<svg width="155" height="93" viewBox="0 0 155 93" fill="none" xmlns="http://www.w3.org/2000/svg">
<path d="M10.192 12H11.44L6.32 0.799999H5.152L0.032 12H1.264L2.608 9.008H8.848L10.192 12ZM3.04 8.048L5.728 2.032L8.416 8.048H3.04ZM17.3888 3.52C16.0448 3.52 14.8928 4.096 14.1888 5.184V0.127999H13.0528V12H14.1408V10.336C14.8288 11.472 15.9968 12.08 17.3888 12.08C19.7888 12.08 21.5808 10.336 21.5808 7.792C21.5808 5.248 19.7888 3.52 17.3888 3.52ZM17.3088 11.072C15.5168 11.072 14.1728 9.76 14.1728 7.792C14.1728 5.824 15.5168 4.512 17.3088 4.512C19.0848 4.512 20.4448 5.824 20.4448 7.792C20.4448 9.76 19.0848 11.072 17.3088 11.072ZM27.3365 12.08C29.8005 12.08 31.6085 10.288 31.6085 7.792C31.6085 5.296 29.8005 3.52 27.3365 3.52C24.8725 3.52 23.0485 5.296 23.0485 7.792C23.0485 10.288 24.8725 12.08 27.3365 12.08ZM27.3365 11.072C25.5445 11.072 24.2005 9.76 24.2005 7.792C24.2005 5.824 25.5445 4.512 27.3365 4.512C29.1285 4.512 30.4565 5.824 30.4565 7.792C30.4565 9.76 29.1285 11.072 27.3365 11.072ZM40.3758 3.584V8C40.3758 9.92 39.2718 11.056 37.5118 11.056C35.9118 11.056 34.9838 10.144 34.9838 8.352V3.584H33.8478V8.464C33.8478 10.88 35.2558 12.08 37.3998 12.08C38.7438 12.08 39.8318 11.488 40.4237 10.464V12H41.5118V3.584H40.3758ZM48.7254 10.672C48.4054 10.96 47.9414 11.104 47.4774 11.104C46.5334 11.104 46.0214 10.56 46.0214 9.568V4.544H48.5814V3.584H46.0214V1.744H44.8854V3.584H43.3814V4.544H44.8854V9.632C44.8854 11.184 45.7654 12.08 47.3494 12.08C48.0054 12.08 48.6774 11.888 49.1254 11.488L48.7254 10.672ZM60.1329 12.096C62.9969 12.096 64.7249 10.432 64.7249 7.216V0.799999H63.5729V7.168C63.5729 9.824 62.3249 11.04 60.1329 11.04C57.9569 11.04 56.7089 9.824 56.7089 7.168V0.799999H55.5249V7.216C55.5249 10.432 57.2689 12.096 60.1329 12.096ZM70.3088 12.08C72.5008 12.08 73.7808 11.136 73.7808 9.68C73.7808 6.448 68.3248 8.16 68.3248 5.888C68.3248 5.088 68.9968 4.496 70.5168 4.496C71.3808 4.496 72.2608 4.704 72.9968 5.216L73.4928 4.304C72.7888 3.824 71.6048 3.52 70.5168 3.52C68.3728 3.52 67.1888 4.544 67.1888 5.92C67.1888 9.248 72.6448 7.52 72.6448 9.712C72.6448 10.544 71.9888 11.088 70.3888 11.088C69.2048 11.088 68.0688 10.672 67.3968 10.144L66.8848 11.04C67.5728 11.632 68.9168 12.08 70.3088 12.08ZM6.688 52.096C8.336 52.096 9.808 51.536 10.8 50.448L10.048 49.696C9.136 50.64 8.016 51.04 6.736 51.04C4.032 51.04 2 49.056 2 46.4C2 43.744 4.032 41.76 6.736 41.76C8.016 41.76 9.136 42.16 10.048 43.088L10.8 42.336C9.808 41.248 8.336 40.704 6.704 40.704C3.328 40.704 0.832 43.12 0.832 46.4C0.832 49.68 3.328 52.096 6.688 52.096ZM16.149 52.08C18.613 52.08 20.421 50.288 20.421 47.792C20.421 45.296 18.613 43.52 16.149 43.52C13.685 43.52 11.861 45.296 11.861 47.792C11.861 50.288 13.685 52.08 16.149 52.08ZM16.149 51.072C14.357 51.072 13.013 49.76 13.013 47.792C13.013 45.824 14.357 44.512 16.149 44.512C17.941 44.512 19.269 45.824 19.269 47.792C19.269 49.76 17.941 51.072 16.149 51.072ZM27.0283 43.52C25.5723 43.52 24.4363 44.112 23.8283 45.136V43.584H22.7403V52H23.8763V47.584C23.8763 45.664 25.0123 44.544 26.8203 44.544C28.4203 44.544 29.3483 45.456 29.3483 47.232V52H30.4843V47.12C30.4843 44.704 29.0763 43.52 27.0283 43.52ZM37.6004 50.672C37.2804 50.96 36.8164 51.104 36.3524 51.104C35.4084 51.104 34.8964 50.56 34.8964 49.568V44.544H37.4564V43.584H34.8964V41.744H33.7604V43.584H32.2564V44.544H33.7604V49.632C33.7604 51.184 34.6404 52.08 36.2244 52.08C36.8804 52.08 37.5524 51.888 38.0004 51.488L37.6004 50.672ZM43.0124 43.52C41.6844 43.52 40.4364 43.936 39.5884 44.656L40.1004 45.504C40.7884 44.896 41.8124 44.512 42.9004 44.512C44.4684 44.512 45.2844 45.296 45.2844 46.736V47.248H42.6124C40.1964 47.248 39.3644 48.336 39.3644 49.632C39.3644 51.088 40.5324 52.08 42.4364 52.08C43.8284 52.08 44.8204 51.552 45.3324 50.688V52H46.4204V46.784C46.4204 44.608 45.1884 43.52 43.0124 43.52ZM42.6124 51.184C41.2684 51.184 40.4844 50.576 40.4844 49.6C40.4844 48.736 41.0124 48.096 42.6444 48.096H45.2844V49.472C44.8364 50.576 43.8924 51.184 42.6124 51.184ZM53.0251 52.08C54.4491 52.08 55.6491 51.504 56.3211 50.416L55.4731 49.84C54.8971 50.688 54.0011 51.072 53.0251 51.072C51.1851 51.072 49.8411 49.776 49.8411 47.792C49.8411 45.824 51.1851 44.512 53.0251 44.512C54.0011 44.512 54.8971 44.912 55.4731 45.76L56.3211 45.184C55.6491 44.08 54.4491 43.52 53.0251 43.52C50.5131 43.52 48.6891 45.28 48.6891 47.792C48.6891 50.304 50.5131 52.08 53.0251 52.08ZM62.6785 50.672C62.3585 50.96 61.8945 51.104 61.4305 51.104C60.4865 51.104 59.9745 50.56 59.9745 49.568V44.544H62.5345V43.584H59.9745V41.744H58.8385V43.584H57.3345V44.544H58.8385V49.632C58.8385 51.184 59.7185 52.08 61.3025 52.08C61.9585 52.08 62.6305 51.888 63.0785 51.488L62.6785 50.672ZM4 92H5.184V81.824H9.12V80.8H0.064V81.824H4V92ZM17.2405 87.792C17.2405 85.264 15.5285 83.52 13.1605 83.52C10.7925 83.52 9.0485 85.296 9.0485 87.792C9.0485 90.288 10.8405 92.08 13.4645 92.08C14.7925 92.08 15.9605 91.6 16.7125 90.704L16.0725 89.968C15.4325 90.704 14.5205 91.072 13.4965 91.072C11.6565 91.072 10.3125 89.904 10.1845 88.144H17.2245C17.2245 88.016 17.2405 87.888 17.2405 87.792ZM13.1605 84.496C14.8085 84.496 16.0085 85.648 16.1525 87.296H10.1845C10.3285 85.648 11.5285 84.496 13.1605 84.496ZM20.6408 85.232V83.584H19.5528V92H20.6888V87.712C20.6888 85.728 21.7608 84.608 23.5208 84.608C23.6008 84.608 23.6968 84.624 23.7928 84.624V83.52C22.2408 83.52 21.1688 84.112 20.6408 85.232ZM36.3456 83.52C34.8256 83.52 33.6256 84.208 33.0176 85.296C32.5056 84.112 31.4176 83.52 30.0256 83.52C28.6176 83.52 27.5296 84.112 26.9376 85.12V83.584H25.8496V92H26.9856V87.584C26.9856 85.664 28.0896 84.544 29.8016 84.544C31.3376 84.544 32.2336 85.456 32.2336 87.232V92H33.3696V87.584C33.3696 85.664 34.4576 84.544 36.1856 84.544C37.7056 84.544 38.6016 85.456 38.6016 87.232V92H39.7376V87.12C39.7376 84.704 38.3936 83.52 36.3456 83.52ZM45.0744 92.08C47.2664 92.08 48.5464 91.136 48.5464 89.68C48.5464 86.448 43.0904 88.16 43.0904 85.888C43.0904 85.088 43.7624 84.496 45.2824 84.496C46.1464 84.496 47.0264 84.704 47.7624 85.216L48.2584 84.304C47.5544 83.824 46.3704 83.52 45.2824 83.52C43.1384 83.52 41.9544 84.544 41.9544 85.92C41.9544 89.248 47.4104 87.52 47.4104 89.712C47.4104 90.544 46.7544 91.088 45.1544 91.088C43.9704 91.088 42.8344 90.672 42.1624 90.144L41.6504 91.04C42.3384 91.632 43.6824 92.08 45.0744 92.08ZM63.746 91.424L62.146 89.776C62.594 89.072 62.93 88.208 63.138 87.2L62.21 86.912C62.05 87.76 61.794 88.48 61.458 89.072L58.386 85.904C60.21 84.848 60.882 84.064 60.882 82.944C60.882 81.552 59.858 80.72 58.274 80.72C56.546 80.72 55.442 81.68 55.442 83.104C55.442 83.968 55.762 84.64 56.85 85.76C54.802 86.944 54.034 87.92 54.034 89.248C54.034 90.944 55.602 92.096 57.794 92.096C59.314 92.096 60.594 91.584 61.538 90.576L63.09 92.176L63.746 91.424ZM58.274 81.568C59.314 81.568 59.906 82.128 59.906 82.96C59.906 83.76 59.378 84.32 57.762 85.248C56.738 84.208 56.498 83.744 56.498 83.088C56.498 82.192 57.154 81.568 58.274 81.568ZM57.858 91.152C56.242 91.152 55.154 90.352 55.154 89.136C55.154 88.144 55.698 87.44 57.49 86.416L60.866 89.888C60.098 90.736 59.074 91.152 57.858 91.152ZM74.8286 92.096C76.4766 92.096 77.9486 91.536 78.9406 90.448L78.1886 89.696C77.2766 90.64 76.1566 91.04 74.8766 91.04C72.1726 91.04 70.1406 89.056 70.1406 86.4C70.1406 83.744 72.1726 81.76 74.8766 81.76C76.1566 81.76 77.2766 82.16 78.1886 83.088L78.9406 82.336C77.9486 81.248 76.4766 80.704 74.8446 80.704C71.4686 80.704 68.9726 83.12 68.9726 86.4C68.9726 89.68 71.4686 92.096 74.8286 92.096ZM84.2896 92.08C86.7536 92.08 88.5616 90.288 88.5616 87.792C88.5616 85.296 86.7536 83.52 84.2896 83.52C81.8256 83.52 80.0016 85.296 80.0016 87.792C80.0016 90.288 81.8256 92.08 84.2896 92.08ZM84.2896 91.072C82.4976 91.072 81.1536 89.76 81.1536 87.792C81.1536 85.824 82.4976 84.512 84.2896 84.512C86.0816 84.512 87.4096 85.824 87.4096 87.792C87.4096 89.76 86.0816 91.072 84.2896 91.072ZM95.1689 83.52C93.7129 83.52 92.5769 84.112 91.9689 85.136V83.584H90.8809V92H92.0169V87.584C92.0169 85.664 93.1529 84.544 94.9609 84.544C96.5609 84.544 97.4889 85.456 97.4889 87.232V92H98.6249V87.12C98.6249 84.704 97.2169 83.52 95.1689 83.52ZM108.284 80.128V85.184C107.58 84.096 106.428 83.52 105.084 83.52C102.684 83.52 100.892 85.248 100.892 87.792C100.892 90.336 102.684 92.08 105.084 92.08C106.476 92.08 107.644 91.472 108.332 90.336V92H109.42V80.128H108.284ZM105.18 91.072C103.388 91.072 102.044 89.76 102.044 87.792C102.044 85.824 103.388 84.512 105.18 84.512C106.956 84.512 108.3 85.824 108.3 87.792C108.3 89.76 106.956 91.072 105.18 91.072ZM113.16 81.744C113.64 81.744 113.992 81.376 113.992 80.912C113.992 80.48 113.624 80.128 113.16 80.128C112.696 80.128 112.328 80.496 112.328 80.928C112.328 81.376 112.696 81.744 113.16 81.744ZM112.584 92H113.72V83.584H112.584V92ZM120.913 90.672C120.593 90.96 120.129 91.104 119.665 91.104C118.721 91.104 118.209 90.56 118.209 89.568V84.544H120.769V83.584H118.209V81.744H117.073V83.584H115.569V84.544H117.073V89.632C117.073 91.184 117.953 92.08 119.537 92.08C120.193 92.08 120.865 91.888 121.313 91.488L120.913 90.672ZM123.957 81.744C124.437 81.744 124.789 81.376 124.789 80.912C124.789 80.48 124.421 80.128 123.957 80.128C123.493 80.128 123.125 80.496 123.125 80.928C123.125 81.376 123.493 81.744 123.957 81.744ZM123.381 92H124.517V83.584H123.381V92ZM131.118 92.08C133.582 92.08 135.39 90.288 135.39 87.792C135.39 85.296 133.582 83.52 131.118 83.52C128.654 83.52 126.83 85.296 126.83 87.792C126.83 90.288 128.654 92.08 131.118 92.08ZM131.118 91.072C129.326 91.072 127.982 89.76 127.982 87.792C127.982 85.824 129.326 84.512 131.118 84.512C132.91 84.512 134.238 85.824 134.238 87.792C134.238 89.76 132.91 91.072 131.118 91.072ZM141.997 83.52C140.541 83.52 139.405 84.112 138.797 85.136V83.584H137.709V92H138.845V87.584C138.845 85.664 139.981 84.544 141.789 84.544C143.389 84.544 144.317 85.456 144.317 87.232V92H145.453V87.12C145.453 84.704 144.045 83.52 141.997 83.52ZM150.793 92.08C152.985 92.08 154.265 91.136 154.265 89.68C154.265 86.448 148.809 88.16 148.809 85.888C148.809 85.088 149.481 84.496 151.001 84.496C151.865 84.496 152.745 84.704 153.481 85.216L153.977 84.304C153.273 83.824 152.089 83.52 151.001 83.52C148.857 83.52 147.673 84.544 147.673 85.92C147.673 89.248 153.129 87.52 153.129 89.712C153.129 90.544 152.473 91.088 150.873 91.088C149.689 91.088 148.553 90.672 147.881 90.144L147.369 91.04C148.057 91.632 149.401 92.08 150.793 92.08Z" fill="#F7F7F7"/>
<path d="M10.192 12L9.7359 12.2049L9.86847 12.5H10.192V12ZM11.44 12V12.5H12.2183L11.8947 11.7921L11.44 12ZM6.32 0.799999L6.77474 0.592119L6.6412 0.299999H6.32V0.799999ZM5.152 0.799999V0.299999H4.8308L4.69726 0.592119L5.152 0.799999ZM0.032 12L-0.422737 11.7921L-0.746339 12.5H0.032V12ZM1.264 12V12.5H1.58753L1.7201 12.2049L1.264 12ZM2.608 9.008V8.508H2.28447L2.1519 8.80312L2.608 9.008ZM8.848 9.008L9.3041 8.80312L9.17153 8.508H8.848V9.008ZM3.04 8.048L2.5835 7.84403L2.26896 8.548H3.04V8.048ZM5.728 2.032L6.1845 1.82803L5.728 0.806329L5.2715 1.82803L5.728 2.032ZM8.416 8.048V8.548H9.18704L8.87251 7.84403L8.416 8.048ZM10.192 12.5H11.44V11.5H10.192V12.5ZM11.8947 11.7921L6.77474 0.592119L5.86526 1.00788L10.9853 12.2079L11.8947 11.7921ZM6.32 0.299999H5.152V1.3H6.32V0.299999ZM4.69726 0.592119L-0.422737 11.7921L0.486737 12.2079L5.60674 1.00788L4.69726 0.592119ZM0.032 12.5H1.264V11.5H0.032V12.5ZM1.7201 12.2049L3.0641 9.21288L2.1519 8.80312L0.807903 11.7951L1.7201 12.2049ZM2.608 9.508H8.848V8.508H2.608V9.508ZM8.3919 9.21288L9.7359 12.2049L10.6481 11.7951L9.3041 8.80312L8.3919 9.21288ZM3.4965 8.25197L6.1845 2.23597L5.2715 1.82803L2.5835 7.84403L3.4965 8.25197ZM5.2715 2.23597L7.9595 8.25197L8.87251 7.84403L6.1845 1.82803L5.2715 2.23597ZM8.416 7.548H3.04V8.548H8.416V7.548ZM14.1888 5.184H13.6888V6.87711L14.6085 5.45563L14.1888 5.184ZM14.1888 0.127999H14.6888V-0.372001H14.1888V0.127999ZM13.0527 0.127999V-0.372001H12.5527V0.127999H13.0527ZM13.0527 12H12.5527V12.5H13.0527V12ZM14.1407 12V12.5H14.6407V12H14.1407ZM14.1407 10.336L14.5684 10.077L13.6407 8.54523V10.336H14.1407ZM17.3888 3.02C15.8929 3.02 14.5743 3.66769 13.769 4.91237L14.6085 5.45563C15.2112 4.52431 16.1966 4.02 17.3888 4.02V3.02ZM14.6888 5.184V0.127999H13.6888V5.184H14.6888ZM14.1888 -0.372001H13.0527V0.627999H14.1888V-0.372001ZM12.5527 0.127999V12H13.5527V0.127999H12.5527ZM13.0527 12.5H14.1407V11.5H13.0527V12.5ZM14.6407 12V10.336H13.6407V12H14.6407ZM13.7131 10.595C14.5009 11.8958 15.8404 12.58 17.3888 12.58V11.58C16.1531 11.58 15.1566 11.0482 14.5684 10.077L13.7131 10.595ZM17.3888 12.58C20.0687 12.58 22.0807 10.6084 22.0807 7.792H21.0807C21.0807 10.0636 19.5089 11.58 17.3888 11.58V12.58ZM22.0807 7.792C22.0807 4.97312 20.0662 3.02 17.3888 3.02V4.02C19.5114 4.02 21.0807 5.52288 21.0807 7.792H22.0807ZM17.3088 10.572C16.5383 10.572 15.8863 10.292 15.4266 9.82084C14.967 9.34969 14.6728 8.65938 14.6728 7.792H13.6728C13.6728 8.89262 14.0505 9.84231 14.7109 10.5192C15.3712 11.196 16.2872 11.572 17.3088 11.572V10.572ZM14.6728 7.792C14.6728 6.92462 14.967 6.23431 15.4266 5.76316C15.8863 5.29202 16.5383 5.012 17.3088 5.012V4.012C16.2872 4.012 15.3712 4.38798 14.7109 5.06484C14.0505 5.74169 13.6728 6.69138 13.6728 7.792H14.6728ZM17.3088 5.012C18.7987 5.012 19.9448 6.09013 19.9448 7.792H20.9448C20.9448 5.55787 19.3708 4.012 17.3088 4.012V5.012ZM19.9448 7.792C19.9448 9.49387 18.7987 10.572 17.3088 10.572V11.572C19.3708 11.572 20.9448 10.0261 20.9448 7.792H19.9448ZM27.3365 12.58C30.0766 12.58 32.1085 10.5641 32.1085 7.792H31.1085C31.1085 10.0119 29.5244 11.58 27.3365 11.58V12.58ZM32.1085 7.792C32.1085 5.01737 30.0742 3.02 27.3365 3.02V4.02C29.5268 4.02 31.1085 5.57463 31.1085 7.792H32.1085ZM27.3365 3.02C24.6013 3.02 22.5485 5.01491 22.5485 7.792H23.5485C23.5485 5.57709 25.1437 4.02 27.3365 4.02V3.02ZM22.5485 7.792C22.5485 10.5666 24.5988 12.58 27.3365 12.58V11.58C25.1462 11.58 23.5485 10.0094 23.5485 7.792H22.5485ZM27.3365 10.572C26.566 10.572 25.914 10.292 25.4544 9.82084C24.9947 9.34969 24.7005 8.65938 24.7005 7.792H23.7005C23.7005 8.89262 24.0783 9.84231 24.7386 10.5192C25.399 11.196 26.315 11.572 27.3365 11.572V10.572ZM24.7005 7.792C24.7005 6.92462 24.9947 6.23431 25.4544 5.76316C25.914 5.29202 26.566 5.012 27.3365 5.012V4.012C26.315 4.012 25.399 4.38798 24.7386 5.06484C24.0783 5.74169 23.7005 6.69138 23.7005 7.792H24.7005ZM27.3365 5.012C28.1067 5.012 28.754 5.29175 29.2094 5.76188C29.6651 6.23239 29.9565 6.92289 29.9565 7.792H30.9565C30.9565 6.69311 30.5839 5.74361 29.9276 5.06612C29.271 4.38825 28.3583 4.012 27.3365 4.012V5.012ZM29.9565 7.792C29.9565 8.66111 29.6651 9.35161 29.2094 9.82212C28.754 10.2922 28.1067 10.572 27.3365 10.572V11.572C28.3583 11.572 29.271 11.1958 29.9276 10.5179C30.5839 9.84039 30.9565 8.89089 30.9565 7.792H29.9565ZM40.3758 3.584V3.084H39.8758V3.584H40.3758ZM34.9837 3.584H35.4837V3.084H34.9837V3.584ZM33.8478 3.584V3.084H33.3478V3.584H33.8478ZM40.4238 10.464H40.9238V8.60014L39.9909 10.2137L40.4238 10.464ZM40.4238 12H39.9238V12.5H40.4238V12ZM41.5117 12V12.5H42.0117V12H41.5117ZM41.5117 3.584H42.0117V3.084H41.5117V3.584ZM39.8758 3.584V8H40.8758V3.584H39.8758ZM39.8758 8C39.8758 8.86556 39.6282 9.49486 39.2406 9.90428C38.8561 10.3106 38.2812 10.556 37.5117 10.556V11.556C38.5023 11.556 39.3594 11.2334 39.9669 10.5917C40.5713 9.95314 40.8758 9.05444 40.8758 8H39.8758ZM37.5117 10.556C36.8058 10.556 36.3211 10.3568 36.0092 10.0305C35.6941 9.7008 35.4837 9.1664 35.4837 8.352H34.4837C34.4837 9.3296 34.7374 10.1472 35.2863 10.7215C35.8384 11.2992 36.6177 11.556 37.5117 11.556V10.556ZM35.4837 8.352V3.584H34.4837V8.352H35.4837ZM34.9837 3.084H33.8478V4.084H34.9837V3.084ZM33.3478 3.584V8.464H34.3478V3.584H33.3478ZM33.3478 8.464C33.3478 9.76945 33.7304 10.8172 34.4714 11.5367C35.2097 12.2536 36.2372 12.58 37.3997 12.58V11.58C36.4183 11.58 35.6698 11.3064 35.1681 10.8193C34.6691 10.3348 34.3478 9.57455 34.3478 8.464H33.3478ZM37.3997 12.58C38.8982 12.58 40.1638 11.9126 40.8566 10.7143L39.9909 10.2137C39.4997 11.0634 38.5893 11.58 37.3997 11.58V12.58ZM39.9238 10.464V12H40.9238V10.464H39.9238ZM40.4238 12.5H41.5117V11.5H40.4238V12.5ZM42.0117 12V3.584H41.0117V12H42.0117ZM41.5117 3.084H40.3758V4.084H41.5117V3.084ZM48.7254 10.672L49.1743 10.4519L48.883 9.8575L48.3909 10.3004L48.7254 10.672ZM46.0214 4.544V4.044H45.5214V4.544H46.0214ZM48.5814 4.544V5.044H49.0814V4.544H48.5814ZM48.5814 3.584H49.0814V3.084H48.5814V3.584ZM46.0214 3.584H45.5214V4.084H46.0214V3.584ZM46.0214 1.744H46.5214V1.244H46.0214V1.744ZM44.8854 1.744V1.244H44.3854V1.744H44.8854ZM44.8854 3.584V4.084H45.3854V3.584H44.8854ZM43.3814 3.584V3.084H42.8814V3.584H43.3814ZM43.3814 4.544H42.8814V5.044H43.3814V4.544ZM44.8854 4.544H45.3854V4.044H44.8854V4.544ZM49.1254 11.488L49.4584 11.861L49.7412 11.6084L49.5743 11.2679L49.1254 11.488ZM48.3909 10.3004C48.1837 10.4868 47.8494 10.604 47.4774 10.604V11.604C48.0334 11.604 48.627 11.4332 49.0599 11.0436L48.3909 10.3004ZM47.4774 10.604C47.1012 10.604 46.8849 10.4979 46.7586 10.3644C46.628 10.2264 46.5214 9.983 46.5214 9.568H45.5214C45.5214 10.145 45.6707 10.6696 46.0322 11.0516C46.3978 11.4381 46.9096 11.604 47.4774 11.604V10.604ZM46.5214 9.568V4.544H45.5214V9.568H46.5214ZM46.0214 5.044H48.5814V4.044H46.0214V5.044ZM49.0814 4.544V3.584H48.0814V4.544H49.0814ZM48.5814 3.084H46.0214V4.084H48.5814V3.084ZM46.5214 3.584V1.744H45.5214V3.584H46.5214ZM46.0214 1.244H44.8854V2.244H46.0214V1.244ZM44.3854 1.744V3.584H45.3854V1.744H44.3854ZM44.8854 3.084H43.3814V4.084H44.8854V3.084ZM42.8814 3.584V4.544H43.8814V3.584H42.8814ZM43.3814 5.044H44.8854V4.044H43.3814V5.044ZM44.3854 4.544V9.632H45.3854V4.544H44.3854ZM44.3854 9.632C44.3854 10.501 44.6333 11.2551 45.1698 11.7916C45.7064 12.3281 46.4646 12.58 47.3494 12.58V11.58C46.6502 11.58 46.1763 11.3839 45.8769 11.0844C45.5774 10.7849 45.3854 10.315 45.3854 9.632H44.3854ZM47.3494 12.58C48.0866 12.58 48.8918 12.3668 49.4584 11.861L48.7924 11.115C48.4629 11.4092 47.9242 11.58 47.3494 11.58V12.58ZM49.5743 11.2679L49.1743 10.4519L48.2764 10.8921L48.6764 11.7081L49.5743 11.2679ZM64.7249 0.799999H65.2249V0.299999H64.7249V0.799999ZM63.5729 0.799999V0.299999H63.0729V0.799999H63.5729ZM56.7089 0.799999H57.2089V0.299999H56.7089V0.799999ZM55.5249 0.799999V0.299999H55.0249V0.799999H55.5249ZM60.1329 12.596C61.6612 12.596 62.9541 12.15 63.8625 11.2093C64.7687 10.271 65.2249 8.91028 65.2249 7.216H64.2249C64.2249 8.73771 63.817 9.81697 63.1432 10.5147C62.4717 11.21 61.4686 11.596 60.1329 11.596V12.596ZM65.2249 7.216V0.799999H64.2249V7.216H65.2249ZM64.7249 0.299999H63.5729V1.3H64.7249V0.299999ZM63.0729 0.799999V7.168H64.0729V0.799999H63.0729ZM63.0729 7.168C63.0729 8.4262 62.7767 9.25164 62.3072 9.7612C61.8445 10.2634 61.1379 10.54 60.1329 10.54V11.54C61.3198 11.54 62.3333 11.2086 63.0426 10.4388C63.7451 9.67636 64.0729 8.5658 64.0729 7.168H63.0729ZM60.1329 10.54C59.1368 10.54 58.4342 10.2639 57.9732 9.76182C57.5051 9.25206 57.2089 8.42616 57.2089 7.168H56.2089C56.2089 8.56584 56.5367 9.67594 57.2366 10.4382C57.9435 11.2081 58.9529 11.54 60.1329 11.54V10.54ZM57.2089 7.168V0.799999H56.2089V7.168H57.2089ZM56.7089 0.299999H55.5249V1.3H56.7089V0.299999ZM55.0249 0.799999V7.216H56.0249V0.799999H55.0249ZM55.0249 7.216C55.0249 8.91148 55.4857 10.2723 56.3961 11.2103C57.3083 12.1501 58.6047 12.596 60.1329 12.596V11.596C58.7971 11.596 57.7894 11.2099 57.1137 10.5137C56.4361 9.81568 56.0249 8.73652 56.0249 7.216H55.0249ZM72.9967 5.216L72.7112 5.62645L73.1694 5.94516L73.436 5.45489L72.9967 5.216ZM73.4928 4.304L73.932 4.54288L74.148 4.14563L73.7744 3.89089L73.4928 4.304ZM67.3968 10.144L67.7057 9.75084L67.2501 9.39289L66.9626 9.89593L67.3968 10.144ZM66.8848 11.04L66.4506 10.7919L66.246 11.15L66.5586 11.419L66.8848 11.04ZM70.3087 12.58C71.4681 12.58 72.4488 12.3315 73.1545 11.8349C73.8782 11.3256 74.2807 10.5748 74.2807 9.68H73.2807C73.2807 10.2412 73.0433 10.6904 72.579 11.0171C72.0967 11.3565 71.3414 11.58 70.3087 11.58V12.58ZM74.2807 9.68C74.2807 8.69423 73.8467 8.0404 73.199 7.62316C72.5959 7.23462 71.8229 7.0618 71.1464 6.93284C70.4229 6.79494 69.8174 6.70639 69.3668 6.52181C69.1519 6.43381 69.0194 6.34079 68.9414 6.24838C68.873 6.16724 68.8248 6.0616 68.8248 5.888H67.8248C67.8248 6.2824 67.947 6.62026 68.1769 6.89299C68.3974 7.15446 68.6911 7.32569 68.9877 7.44719C69.5601 7.68161 70.3186 7.79306 70.9591 7.91516C71.6466 8.0462 72.2376 8.19338 72.6575 8.46384C73.0328 8.7056 73.2807 9.04977 73.2807 9.68H74.2807ZM68.8248 5.888C68.8248 5.64761 68.9159 5.45513 69.1355 5.30301C69.3778 5.13515 69.8109 4.996 70.5168 4.996V3.996C69.7026 3.996 69.0397 4.15285 68.566 4.48099C68.0696 4.82487 67.8248 5.32839 67.8248 5.888H68.8248ZM70.5168 4.996C71.304 4.996 72.0777 5.18573 72.7112 5.62645L73.2823 4.80555C72.4438 4.22227 71.4575 3.996 70.5168 3.996V4.996ZM73.436 5.45489L73.932 4.54288L73.0535 4.06511L72.5575 4.97711L73.436 5.45489ZM73.7744 3.89089C72.9641 3.33843 71.6728 3.02 70.5168 3.02V4.02C71.5367 4.02 72.6134 4.30957 73.2111 4.71711L73.7744 3.89089ZM70.5168 3.02C69.371 3.02 68.422 3.29311 67.7465 3.8057C67.0592 4.32728 66.6888 5.07403 66.6888 5.92H67.6888C67.6888 5.38997 67.9103 4.93672 68.351 4.6023C68.8035 4.25889 69.5185 4.02 70.5168 4.02V3.02ZM66.6888 5.92C66.6888 6.92264 67.1162 7.59345 67.7643 8.02456C68.3693 8.42701 69.1442 8.60474 69.8238 8.73329C70.5513 8.87089 71.1566 8.95262 71.6116 9.12896C71.8285 9.21304 71.9598 9.30143 72.0354 9.38708C72.0999 9.46007 72.1448 9.55345 72.1448 9.712H73.1448C73.1448 9.32255 73.0191 8.99043 72.7852 8.72536C72.5624 8.47295 72.2675 8.31071 71.9729 8.19654C71.4049 7.97638 70.6462 7.87111 70.0097 7.75071C69.3253 7.62126 68.7362 7.46999 68.3182 7.19194C67.9433 6.94255 67.6888 6.58136 67.6888 5.92H66.6888ZM72.1448 9.712C72.1448 9.97414 72.0537 10.1547 71.8415 10.2946C71.5958 10.4565 71.1467 10.588 70.3887 10.588V11.588C71.2308 11.588 71.9097 11.4475 72.392 11.1294C72.9078 10.7893 73.1448 10.2819 73.1448 9.712H72.1448ZM70.3887 10.588C69.3062 10.588 68.2816 10.2033 67.7057 9.75084L67.0878 10.5372C67.8559 11.1407 69.1033 11.588 70.3887 11.588V10.588ZM66.9626 9.89593L66.4506 10.7919L67.3189 11.2881L67.8309 10.3921L66.9626 9.89593ZM66.5586 11.419C67.3638 12.1118 68.8372 12.58 70.3087 12.58V11.58C68.9963 11.58 67.7817 11.1522 67.2109 10.661L66.5586 11.419ZM10.8 50.448L11.1695 50.7849L11.4912 50.4321L11.1536 50.0944L10.8 50.448ZM10.048 49.696L10.4016 49.3424L10.0419 48.9827L9.68841 49.3486L10.048 49.696ZM10.048 43.088L9.69139 43.4385L10.0449 43.7982L10.4016 43.4416L10.048 43.088ZM10.8 42.336L11.1536 42.6896L11.4912 42.3519L11.1695 41.9991L10.8 42.336ZM6.688 52.596C8.44678 52.596 10.0643 51.997 11.1695 50.7849L10.4305 50.1111C9.55166 51.075 8.22522 51.596 6.688 51.596V52.596ZM11.1536 50.0944L10.4016 49.3424L9.69445 50.0496L10.4464 50.8016L11.1536 50.0944ZM9.68841 49.3486C8.8835 50.1817 7.90014 50.54 6.736 50.54V51.54C8.13187 51.54 9.3885 51.0983 10.4076 50.0434L9.68841 49.3486ZM6.736 50.54C4.29795 50.54 2.5 48.7698 2.5 46.4H1.5C1.5 49.3422 3.76605 51.54 6.736 51.54V50.54ZM2.5 46.4C2.5 44.0302 4.29795 42.26 6.736 42.26V41.26C3.76605 41.26 1.5 43.4578 1.5 46.4H2.5ZM6.736 42.26C7.90071 42.26 8.88582 42.6188 9.69139 43.4385L10.4046 42.7375C9.38618 41.7012 8.13129 41.26 6.736 41.26V42.26ZM10.4016 43.4416L11.1536 42.6896L10.4464 41.9824L9.69445 42.7344L10.4016 43.4416ZM11.1695 41.9991C10.0626 40.7851 8.4436 40.204 6.704 40.204V41.204C8.2284 41.204 9.55343 41.7109 10.4305 42.6729L11.1695 41.9991ZM6.704 40.204C3.06662 40.204 0.332 42.8293 0.332 46.4H1.332C1.332 43.4107 3.58938 41.204 6.704 41.204V40.204ZM0.332 46.4C0.332 49.9698 3.0657 52.596 6.688 52.596V51.596C3.5903 51.596 1.332 49.3902 1.332 46.4H0.332ZM16.149 52.58C18.8891 52.58 20.921 50.5641 20.921 47.792H19.921C19.921 50.0119 18.3369 51.58 16.149 51.58V52.58ZM20.921 47.792C20.921 45.0174 18.8867 43.02 16.149 43.02V44.02C18.3393 44.02 19.921 45.5746 19.921 47.792H20.921ZM16.149 43.02C13.4138 43.02 11.361 45.0149 11.361 47.792H12.361C12.361 45.5771 13.9562 44.02 16.149 44.02V43.02ZM11.361 47.792C11.361 50.5666 13.4113 52.58 16.149 52.58V51.58C13.9587 51.58 12.361 50.0094 12.361 47.792H11.361ZM16.149 50.572C15.3785 50.572 14.7265 50.292 14.2669 49.8208C13.8072 49.3497 13.513 48.6594 13.513 47.792H12.513C12.513 48.8926 12.8908 49.8423 13.5511 50.5192C14.2115 51.196 15.1275 51.572 16.149 51.572V50.572ZM13.513 47.792C13.513 46.9246 13.8072 46.2343 14.2669 45.7632C14.7265 45.292 15.3785 45.012 16.149 45.012V44.012C15.1275 44.012 14.2115 44.388 13.5511 45.0648C12.8908 45.7417 12.513 46.6914 12.513 47.792H13.513ZM16.149 45.012C16.9192 45.012 17.5665 45.2917 18.0219 45.7619C18.4776 46.2324 18.769 46.9229 18.769 47.792H19.769C19.769 46.6931 19.3964 45.7436 18.7401 45.0661C18.0835 44.3882 17.1708 44.012 16.149 44.012V45.012ZM18.769 47.792C18.769 48.6611 18.4776 49.3516 18.0219 49.8221C17.5665 50.2923 16.9192 50.572 16.149 50.572V51.572C17.1708 51.572 18.0835 51.1958 18.7401 50.5179C19.3964 49.8404 19.769 48.8909 19.769 47.792H18.769ZM23.8283 45.136H23.3283V46.9575L24.2582 45.3913L23.8283 45.136ZM23.8283 43.584H24.3283V43.084H23.8283V43.584ZM22.7402 43.584V43.084H22.2402V43.584H22.7402ZM22.7402 52H22.2402V52.5H22.7402V52ZM23.8762 52V52.5H24.3762V52H23.8762ZM29.3483 52H28.8483V52.5H29.3483V52ZM30.4842 52V52.5H30.9842V52H30.4842ZM27.0282 43.02C25.4329 43.02 24.1139 43.6756 23.3983 44.8807L24.2582 45.3913C24.7586 44.5484 25.7116 44.02 27.0282 44.02V43.02ZM24.3283 45.136V43.584H23.3283V45.136H24.3283ZM23.8283 43.084H22.7402V44.084H23.8283V43.084ZM22.2402 43.584V52H23.2402V43.584H22.2402ZM22.7402 52.5H23.8762V51.5H22.7402V52.5ZM24.3762 52V47.584H23.3762V52H24.3762ZM24.3762 47.584C24.3762 46.7224 24.6294 46.0997 25.0272 45.6941C25.4242 45.2894 26.0207 45.044 26.8202 45.044V44.044C25.8118 44.044 24.9363 44.3586 24.3133 44.9939C23.6911 45.6283 23.3762 46.5256 23.3762 47.584H24.3762ZM26.8202 45.044C27.5263 45.044 28.0115 45.2432 28.3236 45.5683C28.6385 45.8964 28.8483 46.4267 28.8483 47.232H29.8483C29.8483 46.2613 29.594 45.4476 29.0449 44.8757C28.493 44.3008 27.7142 44.044 26.8202 44.044V45.044ZM28.8483 47.232V52H29.8483V47.232H28.8483ZM29.3483 52.5H30.4842V51.5H29.3483V52.5ZM30.9842 52V47.12H29.9842V52H30.9842ZM30.9842 47.12C30.9842 45.8145 30.6017 44.7724 29.8749 44.0575C29.1501 43.3447 28.1467 43.02 27.0282 43.02V44.02C27.9578 44.02 28.6824 44.2873 29.1736 44.7705C29.6628 45.2516 29.9842 46.0095 29.9842 47.12H30.9842ZM37.6004 50.672L38.0493 50.4519L37.758 49.8575L37.2659 50.3004L37.6004 50.672ZM34.8964 44.544V44.044H34.3964V44.544H34.8964ZM37.4564 44.544V45.044H37.9564V44.544H37.4564ZM37.4564 43.584H37.9564V43.084H37.4564V43.584ZM34.8964 43.584H34.3964V44.084H34.8964V43.584ZM34.8964 41.744H35.3964V41.244H34.8964V41.744ZM33.7604 41.744V41.244H33.2604V41.744H33.7604ZM33.7604 43.584V44.084H34.2604V43.584H33.7604ZM32.2564 43.584V43.084H31.7564V43.584H32.2564ZM32.2564 44.544H31.7564V45.044H32.2564V44.544ZM33.7604 44.544H34.2604V44.044H33.7604V44.544ZM38.0004 51.488L38.3334 51.861L38.6162 51.6084L38.4493 51.2679L38.0004 51.488ZM37.2659 50.3004C37.0587 50.4868 36.7244 50.604 36.3524 50.604V51.604C36.9084 51.604 37.502 51.4332 37.9349 51.0436L37.2659 50.3004ZM36.3524 50.604C35.9762 50.604 35.7599 50.4979 35.6336 50.3644C35.503 50.2264 35.3964 49.983 35.3964 49.568H34.3964C34.3964 50.145 34.5457 50.6696 34.9072 51.0516C35.2728 51.4381 35.7846 51.604 36.3524 51.604V50.604ZM35.3964 49.568V44.544H34.3964V49.568H35.3964ZM34.8964 45.044H37.4564V44.044H34.8964V45.044ZM37.9564 44.544V43.584H36.9564V44.544H37.9564ZM37.4564 43.084H34.8964V44.084H37.4564V43.084ZM35.3964 43.584V41.744H34.3964V43.584H35.3964ZM34.8964 41.244H33.7604V42.244H34.8964V41.244ZM33.2604 41.744V43.584H34.2604V41.744H33.2604ZM33.7604 43.084H32.2564V44.084H33.7604V43.084ZM31.7564 43.584V44.544H32.7564V43.584H31.7564ZM32.2564 45.044H33.7604V44.044H32.2564V45.044ZM33.2604 44.544V49.632H34.2604V44.544H33.2604ZM33.2604 49.632C33.2604 50.501 33.5083 51.2551 34.0448 51.7916C34.5814 52.3281 35.3396 52.58 36.2244 52.58V51.58C35.5252 51.58 35.0513 51.3839 34.7519 51.0844C34.4524 50.7849 34.2604 50.315 34.2604 49.632H33.2604ZM36.2244 52.58C36.9616 52.58 37.7668 52.3668 38.3334 51.861L37.6674 51.115C37.3379 51.4092 36.7992 51.58 36.2244 51.58V52.58ZM38.4493 51.2679L38.0493 50.4519L37.1514 50.8921L37.5514 51.7081L38.4493 51.2679ZM39.5884 44.656L39.2648 44.2749L38.9404 44.5502L39.1603 44.9144L39.5884 44.656ZM40.1004 45.504L39.6723 45.7624L39.9822 46.2757L40.4315 45.8787L40.1004 45.504ZM45.2844 47.248V47.748H45.7844V47.248H45.2844ZM45.3324 50.688H45.8324V48.8635L44.9022 50.4331L45.3324 50.688ZM45.3324 52H44.8324V52.5H45.3324V52ZM46.4204 52V52.5H46.9204V52H46.4204ZM45.2844 48.096H45.7844V47.596H45.2844V48.096ZM45.2844 49.472L45.7477 49.66L45.7844 49.5696V49.472H45.2844ZM43.0124 43.02C41.589 43.02 40.2193 43.4644 39.2648 44.2749L39.912 45.0371C40.6534 44.4076 41.7798 44.02 43.0124 44.02V43.02ZM39.1603 44.9144L39.6723 45.7624L40.5284 45.2456L40.0164 44.3976L39.1603 44.9144ZM40.4315 45.8787C41.0195 45.359 41.9223 45.012 42.9004 45.012V44.012C41.7024 44.012 40.5573 44.433 39.7693 45.1293L40.4315 45.8787ZM42.9004 45.012C43.6072 45.012 44.0616 45.1886 44.3379 45.4483C44.6091 45.7032 44.7844 46.1096 44.7844 46.736H45.7844C45.7844 45.9224 45.5517 45.2168 45.0228 44.7197C44.4991 44.2274 43.7616 44.012 42.9004 44.012V45.012ZM44.7844 46.736V47.248H45.7844V46.736H44.7844ZM45.2844 46.748H42.6124V47.748H45.2844V46.748ZM42.6124 46.748C41.3382 46.748 40.3921 47.0339 39.7583 47.5732C39.1122 48.1231 38.8644 48.873 38.8644 49.632H39.8644C39.8644 49.095 40.0326 48.6529 40.4064 48.3348C40.7927 48.0061 41.4705 47.748 42.6124 47.748V46.748ZM38.8644 49.632C38.8644 50.5054 39.2203 51.262 39.8714 51.7903C40.5127 52.3106 41.402 52.58 42.4364 52.58V51.58C41.5668 51.58 40.9201 51.3534 40.5014 51.0137C40.0925 50.682 39.8644 50.2146 39.8644 49.632H38.8644ZM42.4364 52.58C43.9572 52.58 45.1385 51.9959 45.7625 50.9429L44.9022 50.4331C44.5022 51.1081 43.6995 51.58 42.4364 51.58V52.58ZM44.8324 50.688V52H45.8324V50.688H44.8324ZM45.3324 52.5H46.4204V51.5H45.3324V52.5ZM46.9204 52V46.784H45.9204V52H46.9204ZM46.9204 46.784C46.9204 45.6023 46.5836 44.6365 45.8744 43.9713C45.1708 43.3113 44.1774 43.02 43.0124 43.02V44.02C44.0233 44.02 44.734 44.2727 45.1903 44.7007C45.6411 45.1235 45.9204 45.7897 45.9204 46.784H46.9204ZM42.6124 50.684C42.0078 50.684 41.5945 50.5463 41.3451 50.3585C41.1125 50.1834 40.9844 49.9384 40.9844 49.6H39.9844C39.9844 50.2376 40.2483 50.7846 40.7437 51.1575C41.2222 51.5177 41.8729 51.684 42.6124 51.684V50.684ZM40.9844 49.6C40.9844 49.2756 41.0781 49.0633 41.2642 48.9149C41.4729 48.7484 41.8796 48.596 42.6444 48.596V47.596C41.7772 47.596 41.1038 47.7636 40.6406 48.1331C40.1547 48.5207 39.9844 49.0604 39.9844 49.6H40.9844ZM42.6444 48.596H45.2844V47.596H42.6444V48.596ZM44.7844 48.096V49.472H45.7844V48.096H44.7844ZM44.8211 49.284C44.4562 50.1831 43.707 50.684 42.6124 50.684V51.684C44.0778 51.684 45.2165 50.9689 45.7477 49.66L44.8211 49.284ZM56.3211 50.416L56.7465 50.6787L56.9981 50.2714L56.6021 50.0024L56.3211 50.416ZM55.4731 49.84L55.7541 49.4264L55.3405 49.1455L55.0595 49.5591L55.4731 49.84ZM55.4731 45.76L55.0595 46.0409L55.3405 46.4545L55.7541 46.1736L55.4731 45.76ZM56.3211 45.184L56.6021 45.5976L56.9955 45.3303L56.7482 44.924L56.3211 45.184ZM53.0251 52.58C54.5855 52.58 55.9656 51.9432 56.7465 50.6787L55.8957 50.1533C55.3327 51.0648 54.3128 51.58 53.0251 51.58V52.58ZM56.6021 50.0024L55.7541 49.4264L55.1922 50.2536L56.0402 50.8296L56.6021 50.0024ZM55.0595 49.5591C54.5917 50.2478 53.8643 50.572 53.0251 50.572V51.572C54.138 51.572 55.2026 51.1282 55.8867 50.1209L55.0595 49.5591ZM53.0251 50.572C52.2254 50.572 51.5617 50.2924 51.0985 49.8243C50.6357 49.3566 50.3411 48.6681 50.3411 47.792H49.3411C49.3411 48.8999 49.7185 49.8514 50.3877 50.5277C51.0566 51.2036 51.9849 51.572 53.0251 51.572V50.572ZM50.3411 47.792C50.3411 46.9248 50.6352 46.2356 51.0992 45.7651C51.5632 45.2944 52.2271 45.012 53.0251 45.012V44.012C51.9831 44.012 51.055 44.3856 50.3871 45.0629C49.7191 45.7404 49.3411 46.6912 49.3411 47.792H50.3411ZM53.0251 45.012C53.8581 45.012 54.5886 45.3477 55.0595 46.0409L55.8867 45.4791C55.2056 44.4763 54.1442 44.012 53.0251 44.012V45.012ZM55.7541 46.1736L56.6021 45.5976L56.0402 44.7704L55.1922 45.3464L55.7541 46.1736ZM56.7482 44.924C55.9656 43.6382 54.5815 43.02 53.0251 43.02V44.02C54.3167 44.02 55.3327 44.5218 55.894 45.444L56.7482 44.924ZM53.0251 43.02C50.2469 43.02 48.1891 44.994 48.1891 47.792H49.1891C49.1891 45.566 50.7793 44.02 53.0251 44.02V43.02ZM48.1891 47.792C48.1891 50.5875 50.2444 52.58 53.0251 52.58V51.58C50.7818 51.58 49.1891 50.0205 49.1891 47.792H48.1891ZM62.6785 50.672L63.1275 50.4519L62.8361 49.8575L62.344 50.3004L62.6785 50.672ZM59.9745 44.544V44.044H59.4745V44.544H59.9745ZM62.5345 44.544V45.044H63.0345V44.544H62.5345ZM62.5345 43.584H63.0345V43.084H62.5345V43.584ZM59.9745 43.584H59.4745V44.084H59.9745V43.584ZM59.9745 41.744H60.4745V41.244H59.9745V41.744ZM58.8385 41.744V41.244H58.3385V41.744H58.8385ZM58.8385 43.584V44.084H59.3385V43.584H58.8385ZM57.3345 43.584V43.084H56.8345V43.584H57.3345ZM57.3345 44.544H56.8345V45.044H57.3345V44.544ZM58.8385 44.544H59.3385V44.044H58.8385V44.544ZM63.0785 51.488L63.4115 51.861L63.6944 51.6084L63.5275 51.2679L63.0785 51.488ZM62.344 50.3004C62.1368 50.4868 61.8025 50.604 61.4305 50.604V51.604C61.9865 51.604 62.5802 51.4332 63.013 51.0436L62.344 50.3004ZM61.4305 50.604C61.0543 50.604 60.838 50.4979 60.7117 50.3644C60.5812 50.2264 60.4745 49.983 60.4745 49.568H59.4745C59.4745 50.145 59.6238 50.6696 59.9853 51.0516C60.351 51.4381 60.8627 51.604 61.4305 51.604V50.604ZM60.4745 49.568V44.544H59.4745V49.568H60.4745ZM59.9745 45.044H62.5345V44.044H59.9745V45.044ZM63.0345 44.544V43.584H62.0345V44.544H63.0345ZM62.5345 43.084H59.9745V44.084H62.5345V43.084ZM60.4745 43.584V41.744H59.4745V43.584H60.4745ZM59.9745 41.244H58.8385V42.244H59.9745V41.244ZM58.3385 41.744V43.584H59.3385V41.744H58.3385ZM58.8385 43.084H57.3345V44.084H58.8385V43.084ZM56.8345 43.584V44.544H57.8345V43.584H56.8345ZM57.3345 45.044H58.8385V44.044H57.3345V45.044ZM58.3385 44.544V49.632H59.3385V44.544H58.3385ZM58.3385 49.632C58.3385 50.501 58.5864 51.2551 59.1229 51.7916C59.6595 52.3281 60.4177 52.58 61.3025 52.58V51.58C60.6033 51.58 60.1295 51.3839 59.8301 51.0844C59.5306 50.7849 59.3385 50.315 59.3385 49.632H58.3385ZM61.3025 52.58C62.0397 52.58 62.845 52.3668 63.4115 51.861L62.7455 51.115C62.416 51.4092 61.8773 51.58 61.3025 51.58V52.58ZM63.5275 51.2679L63.1275 50.4519L62.2295 50.8921L62.6295 51.7081L63.5275 51.2679ZM4 92H3.5V92.5H4V92ZM5.184 92V92.5H5.684V92H5.184ZM5.184 81.824V81.324H4.684V81.824H5.184ZM9.12 81.824V82.324H9.62V81.824H9.12ZM9.12 80.8H9.62V80.3H9.12V80.8ZM0.064 80.8V80.3H-0.436V80.8H0.064ZM0.064 81.824H-0.436V82.324H0.064V81.824ZM4 81.824H4.5V81.324H4V81.824ZM4 92.5H5.184V91.5H4V92.5ZM5.684 92V81.824H4.684V92H5.684ZM5.184 82.324H9.12V81.324H5.184V82.324ZM9.62 81.824V80.8H8.62V81.824H9.62ZM9.12 80.3H0.064V81.3H9.12V80.3ZM-0.436 80.8V81.824H0.564V80.8H-0.436ZM0.064 82.324H4V81.324H0.064V82.324ZM3.5 81.824V92H4.5V81.824H3.5ZM16.7125 90.704L17.0955 91.0254L17.3701 90.6982L17.0898 90.3759L16.7125 90.704ZM16.0725 89.968L16.4498 89.6399L16.0725 89.206L15.6952 89.6399L16.0725 89.968ZM10.1845 88.144V87.644H9.64682L9.68582 88.1803L10.1845 88.144ZM17.2245 88.144V88.644H17.7245V88.144H17.2245ZM16.1525 87.296V87.796H16.6981L16.6506 87.2525L16.1525 87.296ZM10.1845 87.296L9.6864 87.2525L9.63891 87.796H10.1845V87.296ZM17.7405 87.792C17.7405 86.4131 17.2719 85.2163 16.4487 84.3612C15.6245 83.5052 14.4716 83.02 13.1605 83.02V84.02C14.2174 84.02 15.1045 84.4068 15.7283 85.0548C16.3531 85.7037 16.7405 86.6429 16.7405 87.792H17.7405ZM13.1605 83.02C10.5013 83.02 8.5485 85.0352 8.5485 87.792H9.5485C9.5485 85.5568 11.0837 84.02 13.1605 84.02V83.02ZM8.5485 87.792C8.5485 89.1633 9.04297 90.3677 9.92265 91.2292C10.8019 92.0904 12.0361 92.58 13.4645 92.58V91.58C12.2689 91.58 11.2951 91.1736 10.6224 90.5148C9.95003 89.8563 9.5485 88.9167 9.5485 87.792H8.5485ZM13.4645 92.58C14.9109 92.58 16.2311 92.0554 17.0955 91.0254L16.3295 90.3826C15.6899 91.1446 14.6741 91.58 13.4645 91.58V92.58ZM17.0898 90.3759L16.4498 89.6399L15.6952 90.2961L16.3352 91.0321L17.0898 90.3759ZM15.6952 89.6399C15.1633 90.2516 14.3971 90.572 13.4965 90.572V91.572C14.6439 91.572 15.7017 91.1564 16.4498 90.2961L15.6952 89.6399ZM13.4965 90.572C11.8931 90.572 10.7904 89.5817 10.6832 88.1077L9.68582 88.1803C9.83462 90.2263 11.4199 91.572 13.4965 91.572V90.572ZM10.1845 88.644H17.2245V87.644H10.1845V88.644ZM17.7245 88.144C17.7245 88.0986 17.7274 88.0498 17.7314 87.9893C17.7349 87.9368 17.7405 87.8607 17.7405 87.792H16.7405C16.7405 87.8193 16.7381 87.8552 16.7336 87.9227C16.7296 87.9823 16.7245 88.0614 16.7245 88.144H17.7245ZM13.1605 84.996C14.5366 84.996 15.5318 85.937 15.6544 87.3395L16.6506 87.2525C16.4852 85.359 15.0804 83.996 13.1605 83.996V84.996ZM16.1525 86.796H10.1845V87.796H16.1525V86.796ZM10.6826 87.3395C10.8053 85.9352 11.8021 84.996 13.1605 84.996V83.996C11.2549 83.996 9.85169 85.3607 9.6864 87.2525L10.6826 87.3395ZM20.6408 85.232H20.1408L21.093 85.4452L20.6408 85.232ZM20.6408 83.584H21.1408V83.084H20.6408V83.584ZM19.5527 83.584V83.084H19.0527V83.584H19.5527ZM19.5527 92H19.0527V92.5H19.5527V92ZM20.6887 92V92.5H21.1887V92H20.6887ZM23.7928 84.624V85.124H24.2928V84.624H23.7928ZM23.7928 83.52H24.2928V83.02H23.7928V83.52ZM21.1408 85.232V83.584H20.1408V85.232H21.1408ZM20.6408 83.084H19.5527V84.084H20.6408V83.084ZM19.0527 83.584V92H20.0527V83.584H19.0527ZM19.5527 92.5H20.6887V91.5H19.5527V92.5ZM21.1887 92V87.712H20.1887V92H21.1887ZM21.1887 87.712C21.1887 86.8067 21.4326 86.1658 21.8119 85.7554C22.1865 85.3501 22.7499 85.108 23.5208 85.108V84.108C22.5316 84.108 21.679 84.4259 21.0776 85.0766C20.4809 85.7222 20.1887 86.6333 20.1887 87.712H21.1887ZM23.5208 85.108C23.5343 85.108 23.5539 85.1095 23.6074 85.1141C23.6518 85.118 23.7201 85.124 23.7928 85.124V84.124C23.7694 84.124 23.7417 84.122 23.6941 84.1179C23.6556 84.1145 23.5872 84.108 23.5208 84.108V85.108ZM24.2928 84.624V83.52H23.2928V84.624H24.2928ZM23.7928 83.02C22.1018 83.02 20.82 83.6792 20.1885 85.0188L21.093 85.4452C21.5175 84.5448 22.3797 84.02 23.7928 84.02V83.02ZM33.0176 85.296L32.5587 85.4945L32.9604 86.4234L33.4541 85.5399L33.0176 85.296ZM26.9376 85.12H26.4376V86.9587L27.3688 85.3732L26.9376 85.12ZM26.9376 83.584H27.4376V83.084H26.9376V83.584ZM25.8496 83.584V83.084H25.3496V83.584H25.8496ZM25.8496 92H25.3496V92.5H25.8496V92ZM26.9856 92V92.5H27.4856V92H26.9856ZM32.2336 92H31.7336V92.5H32.2336V92ZM33.3696 92V92.5H33.8696V92H33.3696ZM38.6016 92H38.1016V92.5H38.6016V92ZM39.7376 92V92.5H40.2376V92H39.7376ZM36.3456 83.02C34.6701 83.02 33.2893 83.7848 32.5812 85.0521L33.4541 85.5399C33.9619 84.6312 34.9812 84.02 36.3456 84.02V83.02ZM33.4766 85.0975C32.8686 83.6916 31.571 83.02 30.0256 83.02V84.02C31.2643 84.02 32.1427 84.5324 32.5587 85.4945L33.4766 85.0975ZM30.0256 83.02C28.4693 83.02 27.202 83.6825 26.5065 84.8668L27.3688 85.3732C27.8572 84.5415 28.766 84.02 30.0256 84.02V83.02ZM27.4376 85.12V83.584H26.4376V85.12H27.4376ZM26.9376 83.084H25.8496V84.084H26.9376V83.084ZM25.3496 83.584V92H26.3496V83.584H25.3496ZM25.8496 92.5H26.9856V91.5H25.8496V92.5ZM27.4856 92V87.584H26.4856V92H27.4856ZM27.4856 87.584C27.4856 86.7185 27.7332 86.0926 28.1155 85.6869C28.4949 85.2843 29.0579 85.044 29.8016 85.044V84.044C28.8334 84.044 27.9884 84.3637 27.3877 85.0011C26.7901 85.6354 26.4856 86.5295 26.4856 87.584H27.4856ZM29.8016 85.044C30.4698 85.044 30.929 85.2396 31.2265 85.5614C31.5296 85.8893 31.7336 86.4224 31.7336 87.232H32.7336C32.7336 86.2656 32.4897 85.4547 31.9608 84.8826C31.4263 84.3044 30.6695 84.044 29.8016 84.044V85.044ZM31.7336 87.232V92H32.7336V87.232H31.7336ZM32.2336 92.5H33.3696V91.5H32.2336V92.5ZM33.8696 92V87.584H32.8696V92H33.8696ZM33.8696 87.584C33.8696 86.7166 34.1142 86.091 34.4942 85.6862C34.8707 85.2849 35.4328 85.044 36.1856 85.044V84.044C35.2104 84.044 34.3645 84.3631 33.765 85.0018C33.169 85.637 32.8696 86.5314 32.8696 87.584H33.8696ZM36.1856 85.044C36.8443 85.044 37.2996 85.2387 37.5957 85.5605C37.8976 85.8887 38.1016 86.4225 38.1016 87.232H39.1016C39.1016 86.2655 38.8577 85.4553 38.3316 84.8835C37.7997 84.3053 37.047 84.044 36.1856 84.044V85.044ZM38.1016 87.232V92H39.1016V87.232H38.1016ZM38.6016 92.5H39.7376V91.5H38.6016V92.5ZM40.2376 92V87.12H39.2376V92H40.2376ZM40.2376 87.12C40.2376 85.8209 39.8748 84.7793 39.165 84.0622C38.455 83.3451 37.4646 83.02 36.3456 83.02V84.02C37.2746 84.02 37.9802 84.2869 38.4543 84.7658C38.9285 85.2447 39.2376 86.0031 39.2376 87.12H40.2376ZM47.7624 85.216L47.4768 85.6264L47.935 85.9452L48.2016 85.4549L47.7624 85.216ZM48.2584 84.304L48.6976 84.5429L48.9137 84.1456L48.54 83.8909L48.2584 84.304ZM42.1624 90.144L42.4713 89.7508L42.0157 89.3929L41.7283 89.8959L42.1624 90.144ZM41.6504 91.04L41.2163 90.7919L41.0116 91.15L41.3243 91.419L41.6504 91.04ZM45.0744 92.58C46.2337 92.58 47.2144 92.3315 47.9201 91.8349C48.6438 91.3256 49.0464 90.5748 49.0464 89.68H48.0464C48.0464 90.2412 47.8089 90.6904 47.3446 91.0171C46.8624 91.3565 46.1071 91.58 45.0744 91.58V92.58ZM49.0464 89.68C49.0464 88.6942 48.6123 88.0404 47.9646 87.6232C47.3615 87.2346 46.5885 87.0618 45.912 86.9328C45.1885 86.7949 44.583 86.7064 44.1324 86.5218C43.9175 86.4338 43.785 86.3408 43.7071 86.2484C43.6387 86.1672 43.5904 86.0616 43.5904 85.888H42.5904C42.5904 86.2824 42.7126 86.6203 42.9426 86.893C43.163 87.1545 43.4567 87.3257 43.7534 87.4472C44.3257 87.6816 45.0842 87.7931 45.7248 87.9152C46.4122 88.0462 47.0033 88.1934 47.4231 88.4638C47.7984 88.7056 48.0464 89.0498 48.0464 89.68H49.0464ZM43.5904 85.888C43.5904 85.6476 43.6815 85.4551 43.9011 85.303C44.1434 85.1351 44.5766 84.996 45.2824 84.996V83.996C44.4682 83.996 43.8053 84.1528 43.3316 84.481C42.8352 84.8249 42.5904 85.3284 42.5904 85.888H43.5904ZM45.2824 84.996C46.0697 84.996 46.8433 85.1857 47.4768 85.6264L48.0479 84.8055C47.2094 84.2223 46.2231 83.996 45.2824 83.996V84.996ZM48.2016 85.4549L48.6976 84.5429L47.8191 84.0651L47.3231 84.9771L48.2016 85.4549ZM48.54 83.8909C47.7298 83.3384 46.4385 83.02 45.2824 83.02V84.02C46.3023 84.02 47.379 84.3096 47.9767 84.7171L48.54 83.8909ZM45.2824 83.02C44.1366 83.02 43.1876 83.2931 42.5121 83.8057C41.8248 84.3273 41.4544 85.074 41.4544 85.92H42.4544C42.4544 85.39 42.6759 84.9367 43.1166 84.6023C43.5692 84.2589 44.2841 84.02 45.2824 84.02V83.02ZM41.4544 85.92C41.4544 86.9226 41.8819 87.5934 42.5299 88.0246C43.135 88.427 43.9098 88.6047 44.5894 88.7333C45.3169 88.8709 45.9222 88.9526 46.3772 89.129C46.5941 89.213 46.7255 89.3014 46.8011 89.3871C46.8655 89.4601 46.9104 89.5535 46.9104 89.712H47.9104C47.9104 89.3225 47.7848 88.9904 47.5508 88.7254C47.328 88.4729 47.0331 88.3107 46.7386 88.1965C46.1705 87.9764 45.4118 87.8711 44.7753 87.7507C44.0909 87.6213 43.5018 87.47 43.0838 87.1919C42.7089 86.9426 42.4544 86.5814 42.4544 85.92H41.4544ZM46.9104 89.712C46.9104 89.9741 46.8194 90.1546 46.6071 90.2946C46.3615 90.4566 45.9123 90.588 45.1544 90.588V91.588C45.9964 91.588 46.6753 91.4474 47.1576 91.1294C47.6734 90.7894 47.9104 90.2819 47.9104 89.712H46.9104ZM45.1544 90.588C44.0718 90.588 43.0472 90.2033 42.4713 89.7508L41.8535 90.5372C42.6216 91.1407 43.869 91.588 45.1544 91.588V90.588ZM41.7283 89.8959L41.2163 90.7919L42.0845 91.2881L42.5965 90.3921L41.7283 89.8959ZM41.3243 91.419C42.1294 92.1118 43.6029 92.58 45.0744 92.58V91.58C43.7619 91.58 42.5474 91.1522 41.9765 90.661L41.3243 91.419ZM63.746 91.424L64.1228 91.7527L64.4253 91.4059L64.1047 91.0757L63.746 91.424ZM62.146 89.776L61.7242 89.5076L61.5121 89.8409L61.7873 90.1243L62.146 89.776ZM63.138 87.2L63.6277 87.301L63.7193 86.8569L63.2862 86.7225L63.138 87.2ZM62.21 86.912L62.3582 86.4345L61.8226 86.2683L61.7187 86.8193L62.21 86.912ZM61.458 89.072L61.099 89.4201L61.5635 89.899L61.8928 89.3188L61.458 89.072ZM58.386 85.904L58.1355 85.4713L57.5811 85.7922L58.0271 86.2521L58.386 85.904ZM56.85 85.76L57.1003 86.1929L57.6557 85.8718L57.2086 85.4116L56.85 85.76ZM61.538 90.576L61.8969 90.2279L61.5316 89.8513L61.173 90.2342L61.538 90.576ZM63.09 92.176L62.7311 92.5241L63.1095 92.9142L63.4668 92.5047L63.09 92.176ZM57.762 85.248L57.4057 85.5988L57.6764 85.8737L58.011 85.6816L57.762 85.248ZM57.49 86.416L57.8485 86.0674L57.5784 85.7896L57.2419 85.9819L57.49 86.416ZM60.866 89.888L61.2366 90.2236L61.5516 89.8758L61.2245 89.5394L60.866 89.888ZM64.1047 91.0757L62.5047 89.4277L61.7873 90.1243L63.3873 91.7723L64.1047 91.0757ZM62.5678 90.0444C63.0542 89.2801 63.4098 88.3569 63.6277 87.301L62.6483 87.099C62.4502 88.0591 62.1338 88.8639 61.7242 89.5076L62.5678 90.0444ZM63.2862 86.7225L62.3582 86.4345L62.0618 87.3895L62.9898 87.6775L63.2862 86.7225ZM61.7187 86.8193C61.567 87.6234 61.3273 88.2894 61.0232 88.8252L61.8928 89.3188C62.2607 88.6706 62.533 87.8967 62.7013 87.0047L61.7187 86.8193ZM61.817 88.7239L58.7449 85.5559L58.0271 86.2521L61.099 89.4201L61.817 88.7239ZM58.6365 86.3367C59.5621 85.8008 60.2469 85.3061 60.6997 84.771C61.1707 84.2143 61.382 83.6244 61.382 82.944H60.382C60.382 83.3836 60.2573 83.7457 59.9363 84.125C59.5971 84.5258 59.0339 84.9512 58.1355 85.4713L58.6365 86.3367ZM61.382 82.944C61.382 82.1156 61.072 81.4138 60.4939 80.9274C59.9262 80.4497 59.1487 80.22 58.274 80.22V81.22C58.9833 81.22 59.5098 81.4063 59.8501 81.6926C60.18 81.9702 60.382 82.3804 60.382 82.944H61.382ZM58.274 80.22C57.3204 80.22 56.4886 80.4852 55.8863 80.997C55.2765 81.515 54.942 82.2533 54.942 83.104H55.942C55.942 82.5307 56.1595 82.077 56.5337 81.759C56.9154 81.4348 57.4996 81.22 58.274 81.22V80.22ZM54.942 83.104C54.942 83.6086 55.0379 84.0728 55.2943 84.5664C55.5432 85.0458 55.934 85.5346 56.4914 86.1084L57.2086 85.4116C56.678 84.8654 56.3648 84.4582 56.1817 84.1056C56.0061 83.7672 55.942 83.4634 55.942 83.104H54.942ZM56.5998 85.3271C55.5557 85.9307 54.7893 86.5077 54.2841 87.137C53.7643 87.7844 53.534 88.471 53.534 89.248H54.534C54.534 88.697 54.6877 88.2316 55.0639 87.763C55.4547 87.2763 56.0963 86.7733 57.1003 86.1929L56.5998 85.3271ZM53.534 89.248C53.534 90.2669 54.0113 91.1219 54.7918 91.7079C55.5629 92.2867 56.6154 92.596 57.794 92.596V91.596C56.7806 91.596 55.9531 91.3293 55.3922 90.9081C54.8407 90.4941 54.534 89.9251 54.534 89.248H53.534ZM57.794 92.596C59.4338 92.596 60.8525 92.0395 61.903 90.9178L61.173 90.2342C60.3355 91.1285 59.1942 91.596 57.794 91.596V92.596ZM61.1791 90.9241L62.7311 92.5241L63.4489 91.8279L61.8969 90.2279L61.1791 90.9241ZM63.4668 92.5047L64.1228 91.7527L63.3692 91.0953L62.7132 91.8473L63.4668 92.5047ZM58.274 82.068C58.7076 82.068 58.9866 82.1842 59.1502 82.3278C59.3068 82.4652 59.406 82.6693 59.406 82.96H60.406C60.406 82.4187 60.2092 81.9268 59.8098 81.5762C59.4174 81.2318 58.8804 81.068 58.274 81.068V82.068ZM59.406 82.96C59.406 83.2204 59.3313 83.441 59.0754 83.7139C58.7956 84.012 58.3156 84.3535 57.513 84.8144L58.011 85.6816C58.8244 85.2145 59.4164 84.812 59.8046 84.3981C60.2167 83.959 60.406 83.4996 60.406 82.96H59.406ZM58.1183 84.8972C57.6114 84.3824 57.334 84.0444 57.1798 83.7754C57.0393 83.5302 56.998 83.3373 56.998 83.088H55.998C55.998 83.4947 56.0767 83.8618 56.3122 84.2726C56.534 84.6596 56.8886 85.0736 57.4057 85.5988L58.1183 84.8972ZM56.998 83.088C56.998 82.7689 57.1108 82.5309 57.2966 82.3671C57.4883 82.1981 57.8045 82.068 58.274 82.068V81.068C57.6235 81.068 57.0517 81.2499 56.6354 81.6169C56.2132 81.9891 55.998 82.5111 55.998 83.088H56.998ZM57.858 90.652C57.1266 90.652 56.5641 90.4704 56.1981 90.1986C55.8442 89.9358 55.654 89.5774 55.654 89.136H54.654C54.654 89.9106 55.0078 90.5602 55.6019 91.0014C56.1839 91.4336 56.9734 91.652 57.858 91.652V90.652ZM55.654 89.136C55.654 88.7527 55.7516 88.4439 56.0326 88.1098C56.3343 87.7512 56.8555 87.3545 57.7381 86.8501L57.2419 85.9819C56.3325 86.5015 55.6857 86.9688 55.2674 87.4661C54.8284 87.9881 54.654 88.5273 54.654 89.136H55.654ZM57.1315 86.7646L60.5075 90.2366L61.2245 89.5394L57.8485 86.0674L57.1315 86.7646ZM60.4954 89.5524C59.833 90.2838 58.9497 90.652 57.858 90.652V91.652C59.1983 91.652 60.363 91.1882 61.2366 90.2236L60.4954 89.5524ZM78.9406 90.448L79.3101 90.7849L79.6318 90.4321L79.2942 90.0944L78.9406 90.448ZM78.1886 89.696L78.5422 89.3424L78.1825 88.9827L77.829 89.3486L78.1886 89.696ZM78.1886 83.088L77.832 83.4385L78.1855 83.7982L78.5422 83.4416L78.1886 83.088ZM78.9406 82.336L79.2942 82.6896L79.6318 82.3519L79.3101 81.9991L78.9406 82.336ZM74.8286 92.596C76.5874 92.596 78.205 91.997 79.3101 90.7849L78.5711 90.1111C77.6923 91.075 76.3658 91.596 74.8286 91.596V92.596ZM79.2942 90.0944L78.5422 89.3424L77.8351 90.0496L78.5871 90.8016L79.2942 90.0944ZM77.829 89.3486C77.0241 90.1817 76.0408 90.54 74.8766 90.54V91.54C76.2725 91.54 77.5291 91.0983 78.5482 90.0434L77.829 89.3486ZM74.8766 90.54C72.4386 90.54 70.6406 88.7698 70.6406 86.4H69.6406C69.6406 89.3422 71.9067 91.54 74.8766 91.54V90.54ZM70.6406 86.4C70.6406 84.0302 72.4386 82.26 74.8766 82.26V81.26C71.9067 81.26 69.6406 83.4578 69.6406 86.4H70.6406ZM74.8766 82.26C76.0413 82.26 77.0264 82.6188 77.832 83.4385L78.5452 82.7375C77.5268 81.7012 76.2719 81.26 74.8766 81.26V82.26ZM78.5422 83.4416L79.2942 82.6896L78.5871 81.9824L77.8351 82.7344L78.5422 83.4416ZM79.3101 81.9991C78.2032 80.7851 76.5842 80.204 74.8446 80.204V81.204C76.369 81.204 77.6941 81.7109 78.5711 82.6729L79.3101 81.9991ZM74.8446 80.204C71.2072 80.204 68.4726 82.8293 68.4726 86.4H69.4726C69.4726 83.4107 71.73 81.204 74.8446 81.204V80.204ZM68.4726 86.4C68.4726 89.9698 71.2063 92.596 74.8286 92.596V91.596C71.7309 91.596 69.4726 89.3902 69.4726 86.4H68.4726ZM84.2896 92.58C87.0298 92.58 89.0616 90.5641 89.0616 87.792H88.0616C88.0616 90.0119 86.4775 91.58 84.2896 91.58V92.58ZM89.0616 87.792C89.0616 85.0174 87.0273 83.02 84.2896 83.02V84.02C86.48 84.02 88.0616 85.5746 88.0616 87.792H89.0616ZM84.2896 83.02C81.5545 83.02 79.5016 85.0149 79.5016 87.792H80.5016C80.5016 85.5771 82.0968 84.02 84.2896 84.02V83.02ZM79.5016 87.792C79.5016 90.5666 81.552 92.58 84.2896 92.58V91.58C82.0993 91.58 80.5016 90.0094 80.5016 87.792H79.5016ZM84.2896 90.572C83.5191 90.572 82.8672 90.292 82.4075 89.8208C81.9479 89.3497 81.6536 88.6594 81.6536 87.792H80.6536C80.6536 88.8926 81.0314 89.8423 81.6917 90.5192C82.3521 91.196 83.2681 91.572 84.2896 91.572V90.572ZM81.6536 87.792C81.6536 86.9246 81.9479 86.2343 82.4075 85.7632C82.8672 85.292 83.5191 85.012 84.2896 85.012V84.012C83.2681 84.012 82.3521 84.388 81.6917 85.0648C81.0314 85.7417 80.6536 86.6914 80.6536 87.792H81.6536ZM84.2896 85.012C85.0598 85.012 85.7071 85.2917 86.1625 85.7619C86.6182 86.2324 86.9096 86.9229 86.9096 87.792H87.9096C87.9096 86.6931 87.537 85.7436 86.8808 85.0661C86.2242 84.3883 85.3115 84.012 84.2896 84.012V85.012ZM86.9096 87.792C86.9096 88.6611 86.6182 89.3516 86.1625 89.8221C85.7071 90.2923 85.0598 90.572 84.2896 90.572V91.572C85.3115 91.572 86.2242 91.1957 86.8808 90.5179C87.537 89.8404 87.9096 88.8909 87.9096 87.792H86.9096ZM91.9689 85.136H91.4689V86.9575L92.3988 85.3913L91.9689 85.136ZM91.9689 83.584H92.4689V83.084H91.9689V83.584ZM90.8809 83.584V83.084H90.3809V83.584H90.8809ZM90.8809 92H90.3809V92.5H90.8809V92ZM92.0169 92V92.5H92.5169V92H92.0169ZM97.4889 92H96.9889V92.5H97.4889V92ZM98.6249 92V92.5H99.1249V92H98.6249ZM95.1689 83.02C93.5735 83.02 92.2545 83.6756 91.5389 84.8807L92.3988 85.3913C92.8993 84.5484 93.8522 84.02 95.1689 84.02V83.02ZM92.4689 85.136V83.584H91.4689V85.136H92.4689ZM91.9689 83.084H90.8809V84.084H91.9689V83.084ZM90.3809 83.584V92H91.3809V83.584H90.3809ZM90.8809 92.5H92.0169V91.5H90.8809V92.5ZM92.5169 92V87.584H91.5169V92H92.5169ZM92.5169 87.584C92.5169 86.7224 92.77 86.0997 93.1678 85.6941C93.5648 85.2894 94.1613 85.044 94.9609 85.044V84.044C93.9525 84.044 93.077 84.3586 92.4539 84.9939C91.8317 85.6283 91.5169 86.5256 91.5169 87.584H92.5169ZM94.9609 85.044C95.6669 85.044 96.1522 85.2432 96.4642 85.5683C96.7791 85.8964 96.9889 86.4267 96.9889 87.232H97.9889C97.9889 86.2613 97.7346 85.4476 97.1856 84.8757C96.6336 84.3008 95.8549 84.044 94.9609 84.044V85.044ZM96.9889 87.232V92H97.9889V87.232H96.9889ZM97.4889 92.5H98.6249V91.5H97.4889V92.5ZM99.1249 92V87.12H98.1249V92H99.1249ZM99.1249 87.12C99.1249 85.8145 98.7423 84.7724 98.0155 84.0575C97.2907 83.3447 96.2873 83.02 95.1689 83.02V84.02C96.0984 84.02 96.8231 84.2873 97.3143 84.7705C97.8034 85.2516 98.1249 86.0095 98.1249 87.12H99.1249ZM108.284 80.128V79.628H107.784V80.128H108.284ZM108.284 85.184L107.864 85.4556L108.784 86.8771V85.184H108.284ZM108.332 90.336H108.832V88.5452L107.905 90.077L108.332 90.336ZM108.332 92H107.832V92.5H108.332V92ZM109.42 92V92.5H109.92V92H109.42ZM109.42 80.128H109.92V79.628H109.42V80.128ZM107.784 80.128V85.184H108.784V80.128H107.784ZM108.704 84.9124C107.899 83.6677 106.58 83.02 105.084 83.02V84.02C106.276 84.02 107.262 84.5243 107.864 85.4556L108.704 84.9124ZM105.084 83.02C102.407 83.02 100.392 84.9731 100.392 87.792H101.392C101.392 85.5229 102.962 84.02 105.084 84.02V83.02ZM100.392 87.792C100.392 90.6084 102.404 92.58 105.084 92.58V91.58C102.964 91.58 101.392 90.0636 101.392 87.792H100.392ZM105.084 92.58C106.633 92.58 107.972 91.8958 108.76 90.595L107.905 90.077C107.316 91.0482 106.32 91.58 105.084 91.58V92.58ZM107.832 90.336V92H108.832V90.336H107.832ZM108.332 92.5H109.42V91.5H108.332V92.5ZM109.92 92V80.128H108.92V92H109.92ZM109.42 79.628H108.284V80.628H109.42V79.628ZM105.18 90.572C104.41 90.572 103.758 90.292 103.298 89.8208C102.838 89.3497 102.544 88.6594 102.544 87.792H101.544C101.544 88.8926 101.922 89.8423 102.582 90.5192C103.243 91.196 104.159 91.572 105.18 91.572V90.572ZM102.544 87.792C102.544 86.9246 102.838 86.2343 103.298 85.7632C103.758 85.292 104.41 85.012 105.18 85.012V84.012C104.159 84.012 103.243 84.388 102.582 85.0648C101.922 85.7417 101.544 86.6914 101.544 87.792H102.544ZM105.18 85.012C106.667 85.012 107.8 86.0867 107.8 87.792H108.8C108.8 85.5613 107.246 84.012 105.18 84.012V85.012ZM107.8 87.792C107.8 89.4973 106.667 90.572 105.18 90.572V91.572C107.246 91.572 108.8 90.0227 108.8 87.792H107.8ZM112.584 92H112.084V92.5H112.584V92ZM113.72 92V92.5H114.22V92H113.72ZM113.72 83.584H114.22V83.084H113.72V83.584ZM112.584 83.584V83.084H112.084V83.584H112.584ZM113.16 82.244C113.922 82.244 114.492 81.6458 114.492 80.912H113.492C113.492 81.1062 113.358 81.244 113.16 81.244V82.244ZM114.492 80.912C114.492 80.1784 113.874 79.628 113.16 79.628V80.628C113.374 80.628 113.492 80.7816 113.492 80.912H114.492ZM113.16 79.628C112.433 79.628 111.828 80.2072 111.828 80.928H112.828C112.828 80.7848 112.959 80.628 113.16 80.628V79.628ZM111.828 80.928C111.828 81.6584 112.426 82.244 113.16 82.244V81.244C112.966 81.244 112.828 81.0936 112.828 80.928H111.828ZM112.584 92.5H113.72V91.5H112.584V92.5ZM114.22 92V83.584H113.22V92H114.22ZM113.72 83.084H112.584V84.084H113.72V83.084ZM112.084 83.584V92H113.084V83.584H112.084ZM120.913 90.672L121.362 90.4519L121.07 89.8575L120.578 90.3004L120.913 90.672ZM118.209 84.544V84.044H117.709V84.544H118.209ZM120.769 84.544V85.044H121.269V84.544H120.769ZM120.769 83.584H121.269V83.084H120.769V83.584ZM118.209 83.584H117.709V84.084H118.209V83.584ZM118.209 81.744H118.709V81.244H118.209V81.744ZM117.073 81.744V81.244H116.573V81.744H117.073ZM117.073 83.584V84.084H117.573V83.584H117.073ZM115.569 83.584V83.084H115.069V83.584H115.569ZM115.569 84.544H115.069V85.044H115.569V84.544ZM117.073 84.544H117.573V84.044H117.073V84.544ZM121.313 91.488L121.646 91.861L121.929 91.6084L121.762 91.2679L121.313 91.488ZM120.578 90.3004C120.371 90.4868 120.037 90.604 119.665 90.604V91.604C120.221 91.604 120.815 91.4332 121.247 91.0436L120.578 90.3004ZM119.665 90.604C119.289 90.604 119.072 90.4979 118.946 90.3644C118.816 90.2264 118.709 89.983 118.709 89.568H117.709C117.709 90.145 117.858 90.6696 118.22 91.0516C118.585 91.4381 119.097 91.604 119.665 91.604V90.604ZM118.709 89.568V84.544H117.709V89.568H118.709ZM118.209 85.044H120.769V84.044H118.209V85.044ZM121.269 84.544V83.584H120.269V84.544H121.269ZM120.769 83.084H118.209V84.084H120.769V83.084ZM118.709 83.584V81.744H117.709V83.584H118.709ZM118.209 81.244H117.073V82.244H118.209V81.244ZM116.573 81.744V83.584H117.573V81.744H116.573ZM117.073 83.084H115.569V84.084H117.073V83.084ZM115.069 83.584V84.544H116.069V83.584H115.069ZM115.569 85.044H117.073V84.044H115.569V85.044ZM116.573 84.544V89.632H117.573V84.544H116.573ZM116.573 89.632C116.573 90.501 116.821 91.2551 117.357 91.7915C117.894 92.3281 118.652 92.58 119.537 92.58V91.58C118.838 91.58 118.364 91.3839 118.064 91.0844C117.765 90.7849 117.573 90.315 117.573 89.632H116.573ZM119.537 92.58C120.274 92.58 121.079 92.3668 121.646 91.861L120.98 91.115C120.65 91.4092 120.112 91.58 119.537 91.58V92.58ZM121.762 91.2679L121.362 90.4519L120.464 90.8921L120.864 91.7081L121.762 91.2679ZM123.381 92H122.881V92.5H123.381V92ZM124.517 92V92.5H125.017V92H124.517ZM124.517 83.584H125.017V83.084H124.517V83.584ZM123.381 83.584V83.084H122.881V83.584H123.381ZM123.957 82.244C124.719 82.244 125.289 81.6458 125.289 80.912H124.289C124.289 81.1062 124.154 81.244 123.957 81.244V82.244ZM125.289 80.912C125.289 80.1784 124.671 79.628 123.957 79.628V80.628C124.171 80.628 124.289 80.7816 124.289 80.912H125.289ZM123.957 79.628C123.23 79.628 122.625 80.2072 122.625 80.928H123.625C123.625 80.7848 123.756 80.628 123.957 80.628V79.628ZM122.625 80.928C122.625 81.6584 123.223 82.244 123.957 82.244V81.244C123.763 81.244 123.625 81.0936 123.625 80.928H122.625ZM123.381 92.5H124.517V91.5H123.381V92.5ZM125.017 92V83.584H124.017V92H125.017ZM124.517 83.084H123.381V84.084H124.517V83.084ZM122.881 83.584V92H123.881V83.584H122.881ZM131.118 92.58C133.858 92.58 135.89 90.5641 135.89 87.792H134.89C134.89 90.0119 133.306 91.58 131.118 91.58V92.58ZM135.89 87.792C135.89 85.0174 133.855 83.02 131.118 83.02V84.02C133.308 84.02 134.89 85.5746 134.89 87.792H135.89ZM131.118 83.02C128.383 83.02 126.33 85.0149 126.33 87.792H127.33C127.33 85.5771 128.925 84.02 131.118 84.02V83.02ZM126.33 87.792C126.33 90.5666 128.38 92.58 131.118 92.58V91.58C128.927 91.58 127.33 90.0094 127.33 87.792H126.33ZM131.118 90.572C130.347 90.572 129.695 90.292 129.236 89.8208C128.776 89.3497 128.482 88.6594 128.482 87.792H127.482C127.482 88.8926 127.86 89.8423 128.52 90.5192C129.18 91.196 130.096 91.572 131.118 91.572V90.572ZM128.482 87.792C128.482 86.9246 128.776 86.2343 129.236 85.7632C129.695 85.292 130.347 85.012 131.118 85.012V84.012C130.096 84.012 129.18 84.388 128.52 85.0648C127.86 85.7417 127.482 86.6914 127.482 87.792H128.482ZM131.118 85.012C131.888 85.012 132.535 85.2917 132.991 85.7619C133.446 86.2324 133.738 86.9229 133.738 87.792H134.738C134.738 86.6931 134.365 85.7436 133.709 85.0661C133.052 84.3883 132.14 84.012 131.118 84.012V85.012ZM133.738 87.792C133.738 88.6611 133.446 89.3516 132.991 89.8221C132.535 90.2923 131.888 90.572 131.118 90.572V91.572C132.14 91.572 133.052 91.1957 133.709 90.5179C134.365 89.8404 134.738 88.8909 134.738 87.792H133.738ZM138.797 85.136H138.297V86.9575L139.227 85.3913L138.797 85.136ZM138.797 83.584H139.297V83.084H138.797V83.584ZM137.709 83.584V83.084H137.209V83.584H137.709ZM137.709 92H137.209V92.5H137.709V92ZM138.845 92V92.5H139.345V92H138.845ZM144.317 92H143.817V92.5H144.317V92ZM145.453 92V92.5H145.953V92H145.453ZM141.997 83.02C140.402 83.02 139.083 83.6756 138.367 84.8807L139.227 85.3913C139.727 84.5484 140.68 84.02 141.997 84.02V83.02ZM139.297 85.136V83.584H138.297V85.136H139.297ZM138.797 83.084H137.709V84.084H138.797V83.084ZM137.209 83.584V92H138.209V83.584H137.209ZM137.709 92.5H138.845V91.5H137.709V92.5ZM139.345 92V87.584H138.345V92H139.345ZM139.345 87.584C139.345 86.7224 139.598 86.0997 139.996 85.6941C140.393 85.2894 140.989 85.044 141.789 85.044V84.044C140.781 84.044 139.905 84.3586 139.282 84.9939C138.66 85.6283 138.345 86.5256 138.345 87.584H139.345ZM141.789 85.044C142.495 85.044 142.98 85.2432 143.292 85.5683C143.607 85.8964 143.817 86.4267 143.817 87.232H144.817C144.817 86.2613 144.563 85.4476 144.014 84.8757C143.462 84.3008 142.683 84.044 141.789 84.044V85.044ZM143.817 87.232V92H144.817V87.232H143.817ZM144.317 92.5H145.453V91.5H144.317V92.5ZM145.953 92V87.12H144.953V92H145.953ZM145.953 87.12C145.953 85.8145 145.57 84.7724 144.844 84.0575C144.119 83.3447 143.115 83.02 141.997 83.02V84.02C142.927 84.02 143.651 84.2873 144.142 84.7705C144.632 85.2516 144.953 86.0095 144.953 87.12H145.953ZM153.481 85.216L153.196 85.6264L153.654 85.9452L153.92 85.4549L153.481 85.216ZM153.977 84.304L154.416 84.5429L154.632 84.1456L154.259 83.8909L153.977 84.304ZM147.881 90.144L148.19 89.7508L147.734 89.3929L147.447 89.8959L147.881 90.144ZM147.369 91.04L146.935 90.7919L146.73 91.15L147.043 91.419L147.369 91.04ZM150.793 92.58C151.952 92.58 152.933 92.3315 153.639 91.8349C154.363 91.3256 154.765 90.5748 154.765 89.68H153.765C153.765 90.2412 153.528 90.6904 153.063 91.0171C152.581 91.3565 151.826 91.58 150.793 91.58V92.58ZM154.765 89.68C154.765 88.6942 154.331 88.0404 153.683 87.6232C153.08 87.2346 152.307 87.0618 151.631 86.9328C150.907 86.7949 150.302 86.7064 149.851 86.5218C149.636 86.4338 149.504 86.3408 149.426 86.2484C149.357 86.1672 149.309 86.0616 149.309 85.888H148.309C148.309 86.2824 148.431 86.6203 148.661 86.893C148.882 87.1545 149.175 87.3257 149.472 87.4472C150.044 87.6816 150.803 87.7931 151.443 87.9152C152.131 88.0462 152.722 88.1934 153.142 88.4638C153.517 88.7056 153.765 89.0498 153.765 89.68H154.765ZM149.309 85.888C149.309 85.6476 149.4 85.4551 149.62 85.303C149.862 85.1351 150.295 84.996 151.001 84.996V83.996C150.187 83.996 149.524 84.1528 149.05 84.481C148.554 84.8249 148.309 85.3284 148.309 85.888H149.309ZM151.001 84.996C151.788 84.996 152.562 85.1857 153.196 85.6264L153.767 84.8055C152.928 84.2223 151.942 83.996 151.001 83.996V84.996ZM153.92 85.4549L154.416 84.5429L153.538 84.0651L153.042 84.9771L153.92 85.4549ZM154.259 83.8909C153.449 83.3384 152.157 83.02 151.001 83.02V84.02C152.021 84.02 153.098 84.3096 153.695 84.7171L154.259 83.8909ZM151.001 83.02C149.855 83.02 148.906 83.2931 148.231 83.8057C147.544 84.3273 147.173 85.074 147.173 85.92H148.173C148.173 85.39 148.395 84.9367 148.835 84.6023C149.288 84.2589 150.003 84.02 151.001 84.02V83.02ZM147.173 85.92C147.173 86.9226 147.601 87.5934 148.249 88.0246C148.854 88.427 149.629 88.6047 150.308 88.7333C151.036 88.8709 151.641 88.9526 152.096 89.129C152.313 89.213 152.444 89.3014 152.52 89.3871C152.584 89.4601 152.629 89.5535 152.629 89.712H153.629C153.629 89.3225 153.504 88.9904 153.27 88.7254C153.047 88.4729 152.752 88.3107 152.457 88.1965C151.889 87.9764 151.131 87.8711 150.494 87.7507C149.81 87.6213 149.221 87.47 148.803 87.1919C148.428 86.9426 148.173 86.5814 148.173 85.92H147.173ZM152.629 89.712C152.629 89.9741 152.538 90.1546 152.326 90.2946C152.08 90.4566 151.631 90.588 150.873 90.588V91.588C151.715 91.588 152.394 91.4474 152.876 91.1294C153.392 90.7894 153.629 90.2819 153.629 89.712H152.629ZM150.873 90.588C149.791 90.588 148.766 90.2033 148.19 89.7508L147.572 90.5372C148.34 91.1407 149.588 91.588 150.873 91.588V90.588ZM147.447 89.8959L146.935 90.7919L147.803 91.2881L148.315 90.3921L147.447 89.8959ZM147.043 91.419C147.848 92.1118 149.322 92.58 150.793 92.58V91.58C149.481 91.58 148.266 91.1522 147.695 90.661L147.043 91.419Z" fill="white"/>
</svg>
