<svg width="113" height="13" viewBox="0 0 113 13" fill="none" xmlns="http://www.w3.org/2000/svg">
<path d="M2.008 10.976V6.816H7.8V5.808H2.008V1.824H8.504V0.799999H0.824V12H8.744V10.976H2.008ZM21.7831 3.52C20.2631 3.52 19.0631 4.208 18.4551 5.296C17.9431 4.112 16.8551 3.52 15.4631 3.52C14.0551 3.52 12.9671 4.112 12.3751 5.12V3.584H11.2871V12H12.4231V7.584C12.4231 5.664 13.5271 4.544 15.2391 4.544C16.7751 4.544 17.6711 5.456 17.6711 7.232V12H18.8071V7.584C18.8071 5.664 19.8951 4.544 21.6231 4.544C23.1431 4.544 24.0391 5.456 24.0391 7.232V12H25.1751V7.12C25.1751 4.704 23.8311 3.52 21.7831 3.52ZM31.1999 3.52C29.8719 3.52 28.6239 3.936 27.7759 4.656L28.2879 5.504C28.9759 4.896 29.9999 4.512 31.0879 4.512C32.6559 4.512 33.4719 5.296 33.4719 6.736V7.248H30.7999C28.3839 7.248 27.5519 8.336 27.5519 9.632C27.5519 11.088 28.7199 12.08 30.6239 12.08C32.0159 12.08 33.0079 11.552 33.5199 10.688V12H34.6079V6.784C34.6079 4.608 33.3759 3.52 31.1999 3.52ZM30.7999 11.184C29.4559 11.184 28.6719 10.576 28.6719 9.6C28.6719 8.736 29.1999 8.096 30.8319 8.096H33.4719V9.472C33.0239 10.576 32.0799 11.184 30.7999 11.184ZM38.2694 1.744C38.7494 1.744 39.1014 1.376 39.1014 0.912C39.1014 0.48 38.7334 0.127999 38.2694 0.127999C37.8054 0.127999 37.4374 0.495999 37.4374 0.927999C37.4374 1.376 37.8054 1.744 38.2694 1.744ZM37.6934 12H38.8294V3.584H37.6934V12ZM41.9903 12H43.1263V0.127999H41.9903V12ZM59.0826 12H60.3306L55.2106 0.799999H54.0426L48.9226 12H50.1546L51.4986 9.008H57.7386L59.0826 12ZM51.9306 8.048L54.6186 2.032L57.3066 8.048H51.9306ZM68.4093 0.127999V5.184C67.7053 4.096 66.5533 3.52 65.2093 3.52C62.8093 3.52 61.0173 5.248 61.0173 7.792C61.0173 10.336 62.8093 12.08 65.2093 12.08C66.6013 12.08 67.7693 11.472 68.4573 10.336V12H69.5453V0.127999H68.4093ZM65.3053 11.072C63.5133 11.072 62.1693 9.76 62.1693 7.792C62.1693 5.824 63.5133 4.512 65.3053 4.512C67.0813 4.512 68.4253 5.824 68.4253 7.792C68.4253 9.76 67.0813 11.072 65.3053 11.072ZM79.253 0.127999V5.184C78.549 4.096 77.397 3.52 76.053 3.52C73.653 3.52 71.861 5.248 71.861 7.792C71.861 10.336 73.653 12.08 76.053 12.08C77.445 12.08 78.613 11.472 79.301 10.336V12H80.389V0.127999H79.253ZM76.149 11.072C74.357 11.072 73.013 9.76 73.013 7.792C73.013 5.824 74.357 4.512 76.149 4.512C77.925 4.512 79.269 5.824 79.269 7.792C79.269 9.76 77.925 11.072 76.149 11.072ZM84.6408 5.232V3.584H83.5528V12H84.6888V7.712C84.6888 5.728 85.7608 4.608 87.5208 4.608C87.6008 4.608 87.6968 4.624 87.7928 4.624V3.52C86.2408 3.52 85.1688 4.112 84.6408 5.232ZM97.1155 7.792C97.1155 5.264 95.4035 3.52 93.0355 3.52C90.6675 3.52 88.9235 5.296 88.9235 7.792C88.9235 10.288 90.7155 12.08 93.3395 12.08C94.6675 12.08 95.8355 11.6 96.5875 10.704L95.9475 9.968C95.3075 10.704 94.3955 11.072 93.3715 11.072C91.5315 11.072 90.1875 9.904 90.0595 8.144H97.0995C97.0995 8.016 97.1155 7.888 97.1155 7.792ZM93.0355 4.496C94.6835 4.496 95.8835 5.648 96.0275 7.296H90.0595C90.2035 5.648 91.4035 4.496 93.0355 4.496ZM101.684 12.08C103.876 12.08 105.156 11.136 105.156 9.68C105.156 6.448 99.6998 8.16 99.6998 5.888C99.6998 5.088 100.372 4.496 101.892 4.496C102.756 4.496 103.636 4.704 104.372 5.216L104.868 4.304C104.164 3.824 102.98 3.52 101.892 3.52C99.7478 3.52 98.5638 4.544 98.5638 5.92C98.5638 9.248 104.02 7.52 104.02 9.712C104.02 10.544 103.364 11.088 101.764 11.088C100.58 11.088 99.4438 10.672 98.7718 10.144L98.2598 11.04C98.9478 11.632 100.292 12.08 101.684 12.08ZM109.512 12.08C111.704 12.08 112.984 11.136 112.984 9.68C112.984 6.448 107.528 8.16 107.528 5.888C107.528 5.088 108.2 4.496 109.72 4.496C110.584 4.496 111.464 4.704 112.2 5.216L112.696 4.304C111.992 3.824 110.808 3.52 109.72 3.52C107.576 3.52 106.392 4.544 106.392 5.92C106.392 9.248 111.848 7.52 111.848 9.712C111.848 10.544 111.192 11.088 109.592 11.088C108.408 11.088 107.272 10.672 106.6 10.144L106.088 11.04C106.776 11.632 108.12 12.08 109.512 12.08Z" fill="white"/>
<path d="M2.008 10.976H1.508V11.476H2.008V10.976ZM2.008 6.816V6.316H1.508V6.816H2.008ZM7.8 6.816V7.316H8.3V6.816H7.8ZM7.8 5.808H8.3V5.308H7.8V5.808ZM2.008 5.808H1.508V6.308H2.008V5.808ZM2.008 1.824V1.324H1.508V1.824H2.008ZM8.504 1.824V2.324H9.004V1.824H8.504ZM8.504 0.799999H9.004V0.299999H8.504V0.799999ZM0.824 0.799999V0.299999H0.324V0.799999H0.824ZM0.824 12H0.324V12.5H0.824V12ZM8.744 12V12.5H9.244V12H8.744ZM8.744 10.976H9.244V10.476H8.744V10.976ZM2.508 10.976V6.816H1.508V10.976H2.508ZM2.008 7.316H7.8V6.316H2.008V7.316ZM8.3 6.816V5.808H7.3V6.816H8.3ZM7.8 5.308H2.008V6.308H7.8V5.308ZM2.508 5.808V1.824H1.508V5.808H2.508ZM2.008 2.324H8.504V1.324H2.008V2.324ZM9.004 1.824V0.799999H8.004V1.824H9.004ZM8.504 0.299999H0.824V1.3H8.504V0.299999ZM0.324 0.799999V12H1.324V0.799999H0.324ZM0.824 12.5H8.744V11.5H0.824V12.5ZM9.244 12V10.976H8.244V12H9.244ZM8.744 10.476H2.008V11.476H8.744V10.476ZM18.4551 5.296L17.9962 5.49446L18.3979 6.42338L18.8916 5.53991L18.4551 5.296ZM12.3751 5.12H11.8751V6.95867L12.8063 5.37321L12.3751 5.12ZM12.3751 3.584H12.8751V3.084H12.3751V3.584ZM11.2871 3.584V3.084H10.7871V3.584H11.2871ZM11.2871 12H10.7871V12.5H11.2871V12ZM12.4231 12V12.5H12.9231V12H12.4231ZM17.6711 12H17.1711V12.5H17.6711V12ZM18.8071 12V12.5H19.3071V12H18.8071ZM24.0391 12H23.5391V12.5H24.0391V12ZM25.1751 12V12.5H25.6751V12H25.1751ZM21.7831 3.02C20.1076 3.02 18.7268 3.78481 18.0187 5.05209L18.8916 5.53991C19.3994 4.63119 20.4187 4.02 21.7831 4.02V3.02ZM18.9141 5.09754C18.3061 3.69164 17.0085 3.02 15.4631 3.02V4.02C16.7018 4.02 17.5802 4.53236 17.9962 5.49446L18.9141 5.09754ZM15.4631 3.02C13.9068 3.02 12.6395 3.68249 11.944 4.86679L12.8063 5.37321C13.2947 4.54151 14.2035 4.02 15.4631 4.02V3.02ZM12.8751 5.12V3.584H11.8751V5.12H12.8751ZM12.3751 3.084H11.2871V4.084H12.3751V3.084ZM10.7871 3.584V12H11.7871V3.584H10.7871ZM11.2871 12.5H12.4231V11.5H11.2871V12.5ZM12.9231 12V7.584H11.9231V12H12.9231ZM12.9231 7.584C12.9231 6.71853 13.1707 6.09265 13.553 5.6869C13.9324 5.28433 14.4954 5.044 15.2391 5.044V4.044C14.2709 4.044 13.4259 4.36367 12.8252 5.0011C12.2276 5.63535 11.9231 6.52947 11.9231 7.584H12.9231ZM15.2391 5.044C15.9073 5.044 16.3665 5.23961 16.664 5.56141C16.9671 5.88928 17.1711 6.42242 17.1711 7.232H18.1711C18.1711 6.26558 17.9272 5.45472 17.3983 4.88259C16.8638 4.30439 16.107 4.044 15.2391 4.044V5.044ZM17.1711 7.232V12H18.1711V7.232H17.1711ZM17.6711 12.5H18.8071V11.5H17.6711V12.5ZM19.3071 12V7.584H18.3071V12H19.3071ZM19.3071 7.584C19.3071 6.71662 19.5517 6.09105 19.9317 5.68616C20.3082 5.28494 20.8703 5.044 21.6231 5.044V4.044C20.6479 4.044 19.802 4.36306 19.2025 5.00184C18.6065 5.63695 18.3071 6.53138 18.3071 7.584H19.3071ZM21.6231 5.044C22.2818 5.044 22.7371 5.23872 23.0332 5.56053C23.3351 5.88869 23.5391 6.42245 23.5391 7.232H24.5391C24.5391 6.26555 24.2952 5.45531 23.7691 4.88347C23.2372 4.30528 22.4845 4.044 21.6231 4.044V5.044ZM23.5391 7.232V12H24.5391V7.232H23.5391ZM24.0391 12.5H25.1751V11.5H24.0391V12.5ZM25.6751 12V7.12H24.6751V12H25.6751ZM25.6751 7.12C25.6751 5.82094 25.3123 4.77926 24.6025 4.06223C23.8925 3.34513 22.9021 3.02 21.7831 3.02V4.02C22.7121 4.02 23.4177 4.28687 23.8918 4.76577C24.366 5.24474 24.6751 6.00306 24.6751 7.12H25.6751ZM27.7759 4.656L27.4523 4.27485L27.1279 4.55022L27.3478 4.91443L27.7759 4.656ZM28.2879 5.504L27.8598 5.76243L28.1697 6.27568L28.619 5.87866L28.2879 5.504ZM33.4719 7.248V7.748H33.9719V7.248H33.4719ZM33.5199 10.688H34.0199V8.86348L33.0897 10.4331L33.5199 10.688ZM33.5199 12H33.0199V12.5H33.5199V12ZM34.6079 12V12.5H35.1079V12H34.6079ZM33.4719 8.096H33.9719V7.596H33.4719V8.096ZM33.4719 9.472L33.9352 9.66001L33.9719 9.56958V9.472H33.4719ZM31.1999 3.02C29.7765 3.02 28.4068 3.46437 27.4523 4.27485L28.0995 5.03715C28.8409 4.40763 29.9673 4.02 31.1999 4.02V3.02ZM27.3478 4.91443L27.8598 5.76243L28.7159 5.24557L28.2039 4.39756L27.3478 4.91443ZM28.619 5.87866C29.207 5.35903 30.1098 5.012 31.0879 5.012V4.012C29.8899 4.012 28.7448 4.43297 27.9568 5.12934L28.619 5.87866ZM31.0879 5.012C31.7947 5.012 32.2491 5.1886 32.5254 5.44831C32.7966 5.70319 32.9719 6.10958 32.9719 6.736H33.9719C33.9719 5.92242 33.7392 5.21681 33.2103 4.71969C32.6866 4.2274 31.9491 4.012 31.0879 4.012V5.012ZM32.9719 6.736V7.248H33.9719V6.736H32.9719ZM33.4719 6.748H30.7999V7.748H33.4719V6.748ZM30.7999 6.748C29.5257 6.748 28.5796 7.03393 27.9458 7.57321C27.2997 8.12308 27.0519 8.87299 27.0519 9.632H28.0519C28.0519 9.09501 28.2201 8.65292 28.5939 8.33479C28.9802 8.00607 29.658 7.748 30.7999 7.748V6.748ZM27.0519 9.632C27.0519 10.5054 27.4078 11.262 28.0589 11.7903C28.7002 12.3106 29.5895 12.58 30.6239 12.58V11.58C29.7543 11.58 29.1076 11.3534 28.6889 11.0137C28.28 10.682 28.0519 10.2146 28.0519 9.632H27.0519ZM30.6239 12.58C32.1447 12.58 33.326 11.9959 33.95 10.9429L33.0897 10.4331C32.6897 11.1081 31.887 11.58 30.6239 11.58V12.58ZM33.0199 10.688V12H34.0199V10.688H33.0199ZM33.5199 12.5H34.6079V11.5H33.5199V12.5ZM35.1079 12V6.784H34.1079V12H35.1079ZM35.1079 6.784C35.1079 5.60234 34.7711 4.63649 34.0619 3.97131C33.3583 3.31131 32.3649 3.02 31.1999 3.02V4.02C32.2108 4.02 32.9215 4.27269 33.3778 4.70069C33.8286 5.12351 34.1079 5.78966 34.1079 6.784H35.1079ZM30.7999 10.684C30.1953 10.684 29.782 10.5463 29.5326 10.3585C29.3 10.1834 29.1719 9.93845 29.1719 9.6H28.1719C28.1719 10.2376 28.4358 10.7846 28.9312 11.1575C29.4097 11.5177 30.0604 11.684 30.7999 11.684V10.684ZM29.1719 9.6C29.1719 9.27558 29.2656 9.06333 29.4517 8.91489C29.6604 8.74838 30.0671 8.596 30.8319 8.596V7.596C29.9647 7.596 29.2913 7.76362 28.8281 8.13311C28.3422 8.52067 28.1719 9.06042 28.1719 9.6H29.1719ZM30.8319 8.596H33.4719V7.596H30.8319V8.596ZM32.9719 8.096V9.472H33.9719V8.096H32.9719ZM33.0086 9.28399C32.6437 10.1831 31.8945 10.684 30.7999 10.684V11.684C32.2653 11.684 33.404 10.9689 33.9352 9.66001L33.0086 9.28399ZM37.6934 12H37.1934V12.5H37.6934V12ZM38.8294 12V12.5H39.3294V12H38.8294ZM38.8294 3.584H39.3294V3.084H38.8294V3.584ZM37.6934 3.584V3.084H37.1934V3.584H37.6934ZM38.2694 2.244C39.0318 2.244 39.6014 1.64579 39.6014 0.912H38.6014C38.6014 1.10621 38.4669 1.244 38.2694 1.244V2.244ZM39.6014 0.912C39.6014 0.178391 38.9833 -0.372001 38.2694 -0.372001V0.627999C38.4834 0.627999 38.6014 0.781609 38.6014 0.912H39.6014ZM38.2694 -0.372001C37.5421 -0.372001 36.9374 0.207203 36.9374 0.927999H37.9374C37.9374 0.784795 38.0687 0.627999 38.2694 0.627999V-0.372001ZM36.9374 0.927999C36.9374 1.65845 37.5356 2.244 38.2694 2.244V1.244C38.0752 1.244 37.9374 1.09355 37.9374 0.927999H36.9374ZM37.6934 12.5H38.8294V11.5H37.6934V12.5ZM39.3294 12V3.584H38.3294V12H39.3294ZM38.8294 3.084H37.6934V4.084H38.8294V3.084ZM37.1934 3.584V12H38.1934V3.584H37.1934ZM41.9902 12H41.4902V12.5H41.9902V12ZM43.1263 12V12.5H43.6263V12H43.1263ZM43.1263 0.127999H43.6263V-0.372001H43.1263V0.127999ZM41.9902 0.127999V-0.372001H41.4902V0.127999H41.9902ZM41.9902 12.5H43.1263V11.5H41.9902V12.5ZM43.6263 12V0.127999H42.6263V12H43.6263ZM43.1263 -0.372001H41.9902V0.627999H43.1263V-0.372001ZM41.4902 0.127999V12H42.4902V0.127999H41.4902ZM59.0826 12L58.6265 12.2049L58.7591 12.5H59.0826V12ZM60.3306 12V12.5H61.109L60.7854 11.7921L60.3306 12ZM55.2106 0.799999L55.6654 0.592119L55.5318 0.299999H55.2106V0.799999ZM54.0426 0.799999V0.299999H53.7214L53.5879 0.592119L54.0426 0.799999ZM48.9226 12L48.4679 11.7921L48.1443 12.5H48.9226V12ZM50.1546 12V12.5H50.4782L50.6107 12.2049L50.1546 12ZM51.4986 9.008V8.508H51.1751L51.0425 8.80312L51.4986 9.008ZM57.7386 9.008L58.1947 8.80312L58.0622 8.508H57.7386V9.008ZM51.9306 8.048L51.4741 7.84403L51.1596 8.548H51.9306V8.048ZM54.6186 2.032L55.0751 1.82803L54.6186 0.806329L54.1621 1.82803L54.6186 2.032ZM57.3066 8.048V8.548H58.0777L57.7631 7.84403L57.3066 8.048ZM59.0826 12.5H60.3306V11.5H59.0826V12.5ZM60.7854 11.7921L55.6654 0.592119L54.7559 1.00788L59.8759 12.2079L60.7854 11.7921ZM55.2106 0.299999H54.0426V1.3H55.2106V0.299999ZM53.5879 0.592119L48.4679 11.7921L49.3774 12.2079L54.4974 1.00788L53.5879 0.592119ZM48.9226 12.5H50.1546V11.5H48.9226V12.5ZM50.6107 12.2049L51.9547 9.21288L51.0425 8.80312L49.6985 11.7951L50.6107 12.2049ZM51.4986 9.508H57.7386V8.508H51.4986V9.508ZM57.2825 9.21288L58.6265 12.2049L59.5387 11.7951L58.1947 8.80312L57.2825 9.21288ZM52.3871 8.25197L55.0751 2.23597L54.1621 1.82803L51.4741 7.84403L52.3871 8.25197ZM54.1621 2.23597L56.8501 8.25197L57.7631 7.84403L55.0751 1.82803L54.1621 2.23597ZM57.3066 7.548H51.9306V8.548H57.3066V7.548ZM68.4092 0.127999V-0.372001H67.9092V0.127999H68.4092ZM68.4092 5.184L67.9895 5.45563L68.9092 6.87711V5.184H68.4092ZM68.4573 10.336H68.9573V8.54523L68.0296 10.077L68.4573 10.336ZM68.4573 12H67.9573V12.5H68.4573V12ZM69.5452 12V12.5H70.0452V12H69.5452ZM69.5452 0.127999H70.0452V-0.372001H69.5452V0.127999ZM67.9092 0.127999V5.184H68.9092V0.127999H67.9092ZM68.829 4.91237C68.0237 3.66769 66.7051 3.02 65.2093 3.02V4.02C66.4014 4.02 67.3868 4.52431 67.9895 5.45563L68.829 4.91237ZM65.2093 3.02C62.5318 3.02 60.5173 4.97312 60.5173 7.792H61.5173C61.5173 5.52288 63.0866 4.02 65.2093 4.02V3.02ZM60.5173 7.792C60.5173 10.6084 62.5294 12.58 65.2093 12.58V11.58C63.0891 11.58 61.5173 10.0636 61.5173 7.792H60.5173ZM65.2093 12.58C66.7576 12.58 68.0971 11.8958 68.8849 10.595L68.0296 10.077C67.4414 11.0482 66.4449 11.58 65.2093 11.58V12.58ZM67.9573 10.336V12H68.9573V10.336H67.9573ZM68.4573 12.5H69.5452V11.5H68.4573V12.5ZM70.0452 12V0.127999H69.0452V12H70.0452ZM69.5452 -0.372001H68.4092V0.627999H69.5452V-0.372001ZM65.3053 10.572C64.5348 10.572 63.8828 10.292 63.4231 9.82084C62.9635 9.34969 62.6693 8.65938 62.6693 7.792H61.6693C61.6693 8.89262 62.047 9.84231 62.7074 10.5192C63.3677 11.196 64.2837 11.572 65.3053 11.572V10.572ZM62.6693 7.792C62.6693 6.92462 62.9635 6.23431 63.4231 5.76316C63.8828 5.29202 64.5348 5.012 65.3053 5.012V4.012C64.2837 4.012 63.3677 4.38798 62.7074 5.06484C62.047 5.74169 61.6693 6.69138 61.6693 7.792H62.6693ZM65.3053 5.012C66.7919 5.012 67.9252 6.08672 67.9252 7.792H68.9252C68.9252 5.56128 67.3706 4.012 65.3053 4.012V5.012ZM67.9252 7.792C67.9252 9.49728 66.7919 10.572 65.3053 10.572V11.572C67.3706 11.572 68.9252 10.0227 68.9252 7.792H67.9252ZM79.253 0.127999V-0.372001H78.753V0.127999H79.253ZM79.253 5.184L78.8332 5.45563L79.753 6.87711V5.184H79.253ZM79.301 10.336H79.801V8.54523L78.8733 10.077L79.301 10.336ZM79.301 12H78.801V12.5H79.301V12ZM80.389 12V12.5H80.889V12H80.389ZM80.389 0.127999H80.889V-0.372001H80.389V0.127999ZM78.753 0.127999V5.184H79.753V0.127999H78.753ZM79.6728 4.91237C78.8674 3.66769 77.5489 3.02 76.053 3.02V4.02C77.2451 4.02 78.2306 4.52431 78.8332 5.45563L79.6728 4.91237ZM76.053 3.02C73.3756 3.02 71.361 4.97312 71.361 7.792H72.361C72.361 5.52288 73.9304 4.02 76.053 4.02V3.02ZM71.361 7.792C71.361 10.6084 73.3731 12.58 76.053 12.58V11.58C73.9329 11.58 72.361 10.0636 72.361 7.792H71.361ZM76.053 12.58C77.6014 12.58 78.9409 11.8958 79.7287 10.595L78.8733 10.077C78.2851 11.0482 77.2886 11.58 76.053 11.58V12.58ZM78.801 10.336V12H79.801V10.336H78.801ZM79.301 12.5H80.389V11.5H79.301V12.5ZM80.889 12V0.127999H79.889V12H80.889ZM80.389 -0.372001H79.253V0.627999H80.389V-0.372001ZM76.149 10.572C75.3785 10.572 74.7265 10.292 74.2669 9.82084C73.8072 9.34969 73.513 8.65938 73.513 7.792H72.513C72.513 8.89262 72.8908 9.84231 73.5511 10.5192C74.2115 11.196 75.1275 11.572 76.149 11.572V10.572ZM73.513 7.792C73.513 6.92462 73.8072 6.23431 74.2669 5.76316C74.7265 5.29202 75.3785 5.012 76.149 5.012V4.012C75.1275 4.012 74.2115 4.38798 73.5511 5.06484C72.8908 5.74169 72.513 6.69138 72.513 7.792H73.513ZM76.149 5.012C77.6356 5.012 78.769 6.08672 78.769 7.792H79.769C79.769 5.56128 78.2144 4.012 76.149 4.012V5.012ZM78.769 7.792C78.769 9.49728 77.6356 10.572 76.149 10.572V11.572C78.2144 11.572 79.769 10.0227 79.769 7.792H78.769ZM84.6407 5.232H84.1407L85.093 5.44521L84.6407 5.232ZM84.6407 3.584H85.1407V3.084H84.6407V3.584ZM83.5527 3.584V3.084H83.0527V3.584H83.5527ZM83.5527 12H83.0527V12.5H83.5527V12ZM84.6888 12V12.5H85.1888V12H84.6888ZM87.7927 4.624V5.124H88.2927V4.624H87.7927ZM87.7927 3.52H88.2927V3.02H87.7927V3.52ZM85.1407 5.232V3.584H84.1407V5.232H85.1407ZM84.6407 3.084H83.5527V4.084H84.6407V3.084ZM83.0527 3.584V12H84.0527V3.584H83.0527ZM83.5527 12.5H84.6888V11.5H83.5527V12.5ZM85.1888 12V7.712H84.1888V12H85.1888ZM85.1888 7.712C85.1888 6.80671 85.4326 6.1658 85.8119 5.75537C86.1865 5.35008 86.7499 5.108 87.5208 5.108V4.108C86.5316 4.108 85.679 4.42592 85.0776 5.07663C84.4809 5.7222 84.1888 6.63329 84.1888 7.712H85.1888ZM87.5208 5.108C87.5343 5.108 87.5539 5.10947 87.6074 5.11412C87.6518 5.11798 87.7201 5.124 87.7927 5.124V4.124C87.7694 4.124 87.7417 4.12202 87.6941 4.11788C87.6556 4.11453 87.5872 4.108 87.5208 4.108V5.108ZM88.2927 4.624V3.52H87.2927V4.624H88.2927ZM87.7927 3.02C86.1018 3.02 84.82 3.67921 84.1885 5.01879L85.093 5.44521C85.5175 4.54479 86.3797 4.02 87.7927 4.02V3.02ZM96.5875 10.704L96.9705 11.0254L97.2451 10.6982L96.9648 10.3759L96.5875 10.704ZM95.9475 9.968L96.3248 9.63991L95.9475 9.20601L95.5702 9.63991L95.9475 9.968ZM90.0595 8.144V7.644H89.5218L89.5608 8.18027L90.0595 8.144ZM97.0995 8.144V8.644H97.5995V8.144H97.0995ZM96.0275 7.296V7.796H96.5731L96.5256 7.25248L96.0275 7.296ZM90.0595 7.296L89.5614 7.25248L89.5139 7.796H90.0595V7.296ZM97.6155 7.792C97.6155 6.4131 97.1469 5.21628 96.3237 4.36122C95.4995 3.50518 94.3466 3.02 93.0355 3.02V4.02C94.0924 4.02 94.9795 4.40682 95.6033 5.05478C96.2281 5.70372 96.6155 6.6429 96.6155 7.792H97.6155ZM93.0355 3.02C90.3763 3.02 88.4235 5.03518 88.4235 7.792H89.4235C89.4235 5.55681 90.9587 4.02 93.0355 4.02V3.02ZM88.4235 7.792C88.4235 9.16331 88.918 10.3677 89.7976 11.2292C90.6769 12.0904 91.9111 12.58 93.3395 12.58V11.58C92.1439 11.58 91.1701 11.1736 90.4974 10.5148C89.825 9.85633 89.4235 8.91669 89.4235 7.792H88.4235ZM93.3395 12.58C94.7859 12.58 96.1061 12.0554 96.9705 11.0254L96.2045 10.3826C95.5649 11.1446 94.5491 11.58 93.3395 11.58V12.58ZM96.9648 10.3759L96.3248 9.63991L95.5702 10.2961L96.2102 11.0321L96.9648 10.3759ZM95.5702 9.63991C95.0383 10.2516 94.2721 10.572 93.3715 10.572V11.572C94.5189 11.572 95.5767 11.1564 96.3248 10.2961L95.5702 9.63991ZM93.3715 10.572C91.7681 10.572 90.6654 9.58167 90.5582 8.10773L89.5608 8.18027C89.7096 10.2263 91.2949 11.572 93.3715 11.572V10.572ZM90.0595 8.644H97.0995V7.644H90.0595V8.644ZM97.5995 8.144C97.5995 8.09859 97.6024 8.04975 97.6064 7.98926C97.6099 7.9368 97.6155 7.86074 97.6155 7.792H96.6155C96.6155 7.81926 96.6131 7.8552 96.6086 7.92274C96.6046 7.98225 96.5995 8.06141 96.5995 8.144H97.5995ZM93.0355 4.996C94.4116 4.996 95.4068 5.937 95.5294 7.33952L96.5256 7.25248C96.3602 5.359 94.9554 3.996 93.0355 3.996V4.996ZM96.0275 6.796H90.0595V7.796H96.0275V6.796ZM90.5576 7.33952C90.6803 5.93525 91.6771 4.996 93.0355 4.996V3.996C91.1299 3.996 89.7267 5.36075 89.5614 7.25248L90.5576 7.33952ZM104.372 5.216L104.086 5.62645L104.544 5.94516L104.811 5.45489L104.372 5.216ZM104.868 4.304L105.307 4.54288L105.523 4.14563L105.149 3.89089L104.868 4.304ZM98.7718 10.144L99.0807 9.75084L98.6251 9.39289L98.3376 9.89593L98.7718 10.144ZM98.2598 11.04L97.8256 10.7919L97.621 11.15L97.9336 11.419L98.2598 11.04ZM101.684 12.58C102.843 12.58 103.824 12.3315 104.529 11.8349C105.253 11.3256 105.656 10.5748 105.656 9.68H104.656C104.656 10.2412 104.418 10.6904 103.954 11.0171C103.472 11.3565 102.716 11.58 101.684 11.58V12.58ZM105.656 9.68C105.656 8.69423 105.222 8.0404 104.574 7.62316C103.971 7.23462 103.198 7.0618 102.521 6.93284C101.798 6.79494 101.192 6.70639 100.742 6.52181C100.527 6.43381 100.394 6.34079 100.316 6.24838C100.248 6.16724 100.2 6.0616 100.2 5.888H99.1998C99.1998 6.2824 99.322 6.62026 99.5519 6.89299C99.7724 7.15446 100.066 7.32569 100.363 7.44719C100.935 7.68161 101.694 7.79306 102.334 7.91516C103.022 8.0462 103.613 8.19338 104.032 8.46384C104.408 8.7056 104.656 9.04977 104.656 9.68H105.656ZM100.2 5.888C100.2 5.64761 100.291 5.45513 100.51 5.30301C100.753 5.13515 101.186 4.996 101.892 4.996V3.996C101.078 3.996 100.415 4.15285 99.941 4.48099C99.4446 4.82487 99.1998 5.32839 99.1998 5.888H100.2ZM101.892 4.996C102.679 4.996 103.453 5.18573 104.086 5.62645L104.657 4.80555C103.819 4.22227 102.832 3.996 101.892 3.996V4.996ZM104.811 5.45489L105.307 4.54288L104.429 4.06511L103.933 4.97711L104.811 5.45489ZM105.149 3.89089C104.339 3.33843 103.048 3.02 101.892 3.02V4.02C102.912 4.02 103.988 4.30957 104.586 4.71711L105.149 3.89089ZM101.892 3.02C100.746 3.02 99.797 3.29311 99.1215 3.8057C98.4342 4.32728 98.0638 5.07403 98.0638 5.92H99.0638C99.0638 5.38997 99.2853 4.93672 99.726 4.6023C100.179 4.25889 100.893 4.02 101.892 4.02V3.02ZM98.0638 5.92C98.0638 6.92264 98.4912 7.59345 99.1393 8.02456C99.7443 8.42701 100.519 8.60474 101.199 8.73329C101.926 8.87089 102.532 8.95262 102.987 9.12896C103.204 9.21304 103.335 9.30143 103.41 9.38708C103.475 9.46007 103.52 9.55345 103.52 9.712H104.52C104.52 9.32255 104.394 8.99043 104.16 8.72536C103.937 8.47295 103.642 8.31071 103.348 8.19654C102.78 7.97638 102.021 7.87111 101.385 7.75071C100.7 7.62126 100.111 7.46999 99.6932 7.19194C99.3183 6.94255 99.0638 6.58136 99.0638 5.92H98.0638ZM103.52 9.712C103.52 9.97414 103.429 10.1547 103.217 10.2946C102.971 10.4565 102.522 10.588 101.764 10.588V11.588C102.606 11.588 103.285 11.4475 103.767 11.1294C104.283 10.7893 104.52 10.2819 104.52 9.712H103.52ZM101.764 10.588C100.681 10.588 99.6566 10.2033 99.0807 9.75084L98.4628 10.5372C99.2309 11.1407 100.478 11.588 101.764 11.588V10.588ZM98.3376 9.89593L97.8256 10.7919L98.6939 11.2881L99.2059 10.3921L98.3376 9.89593ZM97.9336 11.419C98.7388 12.1118 100.212 12.58 101.684 12.58V11.58C100.371 11.58 99.1567 11.1522 98.5859 10.661L97.9336 11.419ZM112.2 5.216L111.914 5.62645L112.372 5.94516L112.639 5.45489L112.2 5.216ZM112.696 4.304L113.135 4.54288L113.351 4.14563L112.978 3.89089L112.696 4.304ZM106.6 10.144L106.909 9.75084L106.453 9.39289L106.166 9.89593L106.6 10.144ZM106.088 11.04L105.654 10.7919L105.449 11.15L105.762 11.419L106.088 11.04ZM109.512 12.58C110.671 12.58 111.652 12.3315 112.358 11.8349C113.081 11.3256 113.484 10.5748 113.484 9.68H112.484C112.484 10.2412 112.246 10.6904 111.782 11.0171C111.3 11.3565 110.545 11.58 109.512 11.58V12.58ZM113.484 9.68C113.484 8.69423 113.05 8.0404 112.402 7.62316C111.799 7.23462 111.026 7.0618 110.349 6.93284C109.626 6.79494 109.021 6.70639 108.57 6.52181C108.355 6.43381 108.222 6.34079 108.145 6.24838C108.076 6.16724 108.028 6.0616 108.028 5.888H107.028C107.028 6.2824 107.15 6.62026 107.38 6.89299C107.601 7.15446 107.894 7.32569 108.191 7.44719C108.763 7.68161 109.522 7.79306 110.162 7.91516C110.85 8.0462 111.441 8.19338 111.861 8.46384C112.236 8.7056 112.484 9.04977 112.484 9.68H113.484ZM108.028 5.888C108.028 5.64761 108.119 5.45513 108.339 5.30301C108.581 5.13515 109.014 4.996 109.72 4.996V3.996C108.906 3.996 108.243 4.15285 107.769 4.48099C107.273 4.82487 107.028 5.32839 107.028 5.888H108.028ZM109.72 4.996C110.507 4.996 111.281 5.18573 111.914 5.62645L112.485 4.80555C111.647 4.22227 110.661 3.996 109.72 3.996V4.996ZM112.639 5.45489L113.135 4.54288L112.257 4.06511L111.761 4.97711L112.639 5.45489ZM112.978 3.89089C112.167 3.33843 110.876 3.02 109.72 3.02V4.02C110.74 4.02 111.816 4.30957 112.414 4.71711L112.978 3.89089ZM109.72 3.02C108.574 3.02 107.625 3.29311 106.95 3.8057C106.262 4.32728 105.892 5.07403 105.892 5.92H106.892C106.892 5.38997 107.113 4.93672 107.554 4.6023C108.007 4.25889 108.722 4.02 109.72 4.02V3.02ZM105.892 5.92C105.892 6.92264 106.319 7.59345 106.967 8.02456C107.572 8.42701 108.347 8.60474 109.027 8.73329C109.754 8.87089 110.36 8.95262 110.815 9.12896C111.032 9.21304 111.163 9.30143 111.239 9.38708C111.303 9.46007 111.348 9.55345 111.348 9.712H112.348C112.348 9.32255 112.222 8.99043 111.988 8.72536C111.766 8.47295 111.471 8.31071 111.176 8.19654C110.608 7.97638 109.849 7.87111 109.213 7.75071C108.528 7.62126 107.939 7.46999 107.521 7.19194C107.146 6.94255 106.892 6.58136 106.892 5.92H105.892ZM111.348 9.712C111.348 9.97414 111.257 10.1547 111.045 10.2946C110.799 10.4565 110.35 10.588 109.592 10.588V11.588C110.434 11.588 111.113 11.4475 111.595 11.1294C112.111 10.7893 112.348 10.2819 112.348 9.712H111.348ZM109.592 10.588C108.509 10.588 107.485 10.2033 106.909 9.75084L106.291 10.5372C107.059 11.1407 108.306 11.588 109.592 11.588V10.588ZM106.166 9.89593L105.654 10.7919L106.522 11.2881L107.034 10.3921L106.166 9.89593ZM105.762 11.419C106.567 12.1118 108.04 12.58 109.512 12.58V11.58C108.199 11.58 106.985 11.1522 106.414 10.661L105.762 11.419Z" fill="white"/>
</svg>
