<svg width="82" height="78" viewBox="0 0 82 78" fill="none" xmlns="http://www.w3.org/2000/svg">
<path d="M9.52451 1.824V0.799999H1.84451V12H3.02851V7.248H8.82051V6.224H3.02851V1.824H9.52451ZM14.3298 3.52C13.0018 3.52 11.7538 3.936 10.9058 4.656L11.4178 5.504C12.1058 4.896 13.1298 4.512 14.2178 4.512C15.7858 4.512 16.6018 5.296 16.6018 6.736V7.248H13.9298C11.5138 7.248 10.6818 8.336 10.6818 9.632C10.6818 11.088 11.8498 12.08 13.7538 12.08C15.1458 12.08 16.1378 11.552 16.6498 10.688V12H17.7378V6.784C17.7378 4.608 16.5058 3.52 14.3298 3.52ZM13.9298 11.184C12.5858 11.184 11.8018 10.576 11.8018 9.6C11.8018 8.736 12.3298 8.096 13.9618 8.096H16.6018V9.472C16.1538 10.576 15.2098 11.184 13.9298 11.184ZM24.3425 12.08C25.7665 12.08 26.9665 11.504 27.6385 10.416L26.7905 9.84C26.2145 10.688 25.3185 11.072 24.3425 11.072C22.5025 11.072 21.1585 9.776 21.1585 7.792C21.1585 5.824 22.5025 4.512 24.3425 4.512C25.3185 4.512 26.2145 4.912 26.7905 5.76L27.6385 5.184C26.9665 4.08 25.7665 3.52 24.3425 3.52C21.8305 3.52 20.0065 5.28 20.0065 7.792C20.0065 10.304 21.8305 12.08 24.3425 12.08ZM37.0735 7.792C37.0735 5.264 35.3615 3.52 32.9935 3.52C30.6255 3.52 28.8815 5.296 28.8815 7.792C28.8815 10.288 30.6735 12.08 33.2975 12.08C34.6255 12.08 35.7935 11.6 36.5455 10.704L35.9055 9.968C35.2655 10.704 34.3535 11.072 33.3295 11.072C31.4895 11.072 30.1455 9.904 30.0175 8.144H37.0575C37.0575 8.016 37.0735 7.888 37.0735 7.792ZM32.9935 4.496C34.6415 4.496 35.8415 5.648 35.9855 7.296H30.0175C30.1615 5.648 31.3615 4.496 32.9935 4.496ZM43.7218 3.52C42.3778 3.52 41.2258 4.096 40.5218 5.184V0.127999H39.3858V12H40.4738V10.336C41.1618 11.472 42.3298 12.08 43.7218 12.08C46.1218 12.08 47.9138 10.336 47.9138 7.792C47.9138 5.248 46.1218 3.52 43.7218 3.52ZM43.6418 11.072C41.8498 11.072 40.5058 9.76 40.5058 7.792C40.5058 5.824 41.8498 4.512 43.6418 4.512C45.4178 4.512 46.7778 5.824 46.7778 7.792C46.7778 9.76 45.4178 11.072 43.6418 11.072ZM53.6695 12.08C56.1335 12.08 57.9415 10.288 57.9415 7.792C57.9415 5.296 56.1335 3.52 53.6695 3.52C51.2055 3.52 49.3815 5.296 49.3815 7.792C49.3815 10.288 51.2055 12.08 53.6695 12.08ZM53.6695 11.072C51.8775 11.072 50.5335 9.76 50.5335 7.792C50.5335 5.824 51.8775 4.512 53.6695 4.512C55.4615 4.512 56.7895 5.824 56.7895 7.792C56.7895 9.76 55.4615 11.072 53.6695 11.072ZM63.7008 12.08C66.1648 12.08 67.9728 10.288 67.9728 7.792C67.9728 5.296 66.1648 3.52 63.7008 3.52C61.2368 3.52 59.4128 5.296 59.4128 7.792C59.4128 10.288 61.2368 12.08 63.7008 12.08ZM63.7008 11.072C61.9088 11.072 60.5648 9.76 60.5648 7.792C60.5648 5.824 61.9088 4.512 63.7008 4.512C65.4928 4.512 66.8208 5.824 66.8208 7.792C66.8208 9.76 65.4928 11.072 63.7008 11.072ZM76.804 12H78.196L74.26 7.024L77.86 3.584H76.452L71.428 8.176V0.127999H70.292V12H71.428V9.6L73.412 7.776L76.804 12ZM4.02051 43H5.20451V32.824H9.14051V31.8H0.0845078V32.824H4.02051V43ZM21.5571 34.584L18.8851 41.736L16.1971 34.584H15.2211L12.5171 41.736L9.87713 34.584H8.78913L11.9571 43H13.0291L15.6851 36.104L18.3411 43H19.4131L22.5971 34.584H21.5571ZM24.8836 32.744C25.3636 32.744 25.7156 32.376 25.7156 31.912C25.7156 31.48 25.3476 31.128 24.8836 31.128C24.4196 31.128 24.0516 31.496 24.0516 31.928C24.0516 32.376 24.4196 32.744 24.8836 32.744ZM24.3076 43H25.4436V34.584H24.3076V43ZM32.6365 41.672C32.3165 41.96 31.8525 42.104 31.3885 42.104C30.4445 42.104 29.9325 41.56 29.9325 40.568V35.544H32.4925V34.584H29.9325V32.744H28.7965V34.584H27.2925V35.544H28.7965V40.632C28.7965 42.184 29.6765 43.08 31.2605 43.08C31.9165 43.08 32.5885 42.888 33.0365 42.488L32.6365 41.672ZM38.9178 41.672C38.5978 41.96 38.1338 42.104 37.6698 42.104C36.7258 42.104 36.2138 41.56 36.2138 40.568V35.544H38.7738V34.584H36.2138V32.744H35.0778V34.584H33.5738V35.544H35.0778V40.632C35.0778 42.184 35.9578 43.08 37.5418 43.08C38.1978 43.08 38.8698 42.888 39.3178 42.488L38.9178 41.672ZM48.4329 38.792C48.4329 36.264 46.7209 34.52 44.3529 34.52C41.9849 34.52 40.2409 36.296 40.2409 38.792C40.2409 41.288 42.0329 43.08 44.6569 43.08C45.9849 43.08 47.1529 42.6 47.9049 41.704L47.2649 40.968C46.6249 41.704 45.7129 42.072 44.6889 42.072C42.8489 42.072 41.5049 40.904 41.3769 39.144H48.4169C48.4169 39.016 48.4329 38.888 48.4329 38.792ZM44.3529 35.496C46.0009 35.496 47.2009 36.648 47.3449 38.296H41.3769C41.5209 36.648 42.7209 35.496 44.3529 35.496ZM51.8331 36.232V34.584H50.7451V43H51.8811V38.712C51.8811 36.728 52.9531 35.608 54.7131 35.608C54.7931 35.608 54.8891 35.624 54.9851 35.624V34.52C53.4331 34.52 52.3611 35.112 51.8331 36.232ZM1.84451 74H3.02851V62.8H1.84451V74ZM10.7206 65.52C9.26463 65.52 8.12863 66.112 7.52063 67.136V65.584H6.43263V74H7.56863V69.584C7.56863 67.664 8.70463 66.544 10.5126 66.544C12.1126 66.544 13.0406 67.456 13.0406 69.232V74H14.1766V69.12C14.1766 66.704 12.7686 65.52 10.7206 65.52ZM19.5168 74.08C21.7088 74.08 22.9888 73.136 22.9888 71.68C22.9888 68.448 17.5328 70.16 17.5328 67.888C17.5328 67.088 18.2048 66.496 19.7248 66.496C20.5888 66.496 21.4688 66.704 22.2048 67.216L22.7008 66.304C21.9968 65.824 20.8128 65.52 19.7248 65.52C17.5808 65.52 16.3968 66.544 16.3968 67.92C16.3968 71.248 21.8528 69.52 21.8528 71.712C21.8528 72.544 21.1968 73.088 19.5968 73.088C18.4128 73.088 17.2768 72.672 16.6048 72.144L16.0928 73.04C16.7808 73.632 18.1248 74.08 19.5168 74.08ZM29.1209 72.672C28.8009 72.96 28.3369 73.104 27.8729 73.104C26.9289 73.104 26.4169 72.56 26.4169 71.568V66.544H28.9769V65.584H26.4169V63.744H25.2809V65.584H23.7769V66.544H25.2809V71.632C25.2809 73.184 26.1609 74.08 27.7449 74.08C28.4009 74.08 29.0729 73.888 29.5209 73.488L29.1209 72.672ZM34.5329 65.52C33.2049 65.52 31.9569 65.936 31.1089 66.656L31.6209 67.504C32.3089 66.896 33.3329 66.512 34.4209 66.512C35.9889 66.512 36.8049 67.296 36.8049 68.736V69.248H34.1329C31.7169 69.248 30.8849 70.336 30.8849 71.632C30.8849 73.088 32.0529 74.08 33.9569 74.08C35.3489 74.08 36.3409 73.552 36.8529 72.688V74H37.9409V68.784C37.9409 66.608 36.7089 65.52 34.5329 65.52ZM34.1329 73.184C32.7889 73.184 32.0049 72.576 32.0049 71.6C32.0049 70.736 32.5329 70.096 34.1649 70.096H36.8049V71.472C36.3569 72.576 35.4129 73.184 34.1329 73.184ZM47.7616 65.584V67.2C47.0576 66.096 45.8416 65.52 44.4336 65.52C42.0336 65.52 40.2096 67.168 40.2096 69.584C40.2096 72 42.0336 73.68 44.4336 73.68C45.8096 73.68 47.0096 73.12 47.7136 72.048V73.12C47.7136 75.2 46.7376 76.176 44.6096 76.176C43.3136 76.176 42.0976 75.744 41.2976 75.024L40.7216 75.888C41.6016 76.72 43.1056 77.184 44.6416 77.184C47.4256 77.184 48.8496 75.872 48.8496 72.976V65.584H47.7616ZM44.5456 72.672C42.6896 72.672 41.3616 71.408 41.3616 69.584C41.3616 67.76 42.6896 66.512 44.5456 66.512C46.4016 66.512 47.7456 67.76 47.7456 69.584C47.7456 71.408 46.4016 72.672 44.5456 72.672ZM53.1144 67.232V65.584H52.0264V74H53.1624V69.712C53.1624 67.728 54.2344 66.608 55.9944 66.608C56.0744 66.608 56.1704 66.624 56.2664 66.624V65.52C54.7144 65.52 53.6424 66.112 53.1144 67.232ZM61.2516 65.52C59.9236 65.52 58.6756 65.936 57.8276 66.656L58.3396 67.504C59.0276 66.896 60.0516 66.512 61.1396 66.512C62.7076 66.512 63.5236 67.296 63.5236 68.736V69.248H60.8516C58.4356 69.248 57.6036 70.336 57.6036 71.632C57.6036 73.088 58.7716 74.08 60.6756 74.08C62.0676 74.08 63.0596 73.552 63.5716 72.688V74H64.6596V68.784C64.6596 66.608 63.4276 65.52 61.2516 65.52ZM60.8516 73.184C59.5076 73.184 58.7236 72.576 58.7236 71.6C58.7236 70.736 59.2516 70.096 60.8836 70.096H63.5236V71.472C63.0756 72.576 62.1316 73.184 60.8516 73.184ZM78.2411 65.52C76.7211 65.52 75.5211 66.208 74.9131 67.296C74.4011 66.112 73.3131 65.52 71.9211 65.52C70.5131 65.52 69.4251 66.112 68.8331 67.12V65.584H67.7451V74H68.8811V69.584C68.8811 67.664 69.9851 66.544 71.6971 66.544C73.2331 66.544 74.1291 67.456 74.1291 69.232V74H75.2651V69.584C75.2651 67.664 76.3531 66.544 78.0811 66.544C79.6011 66.544 80.4971 67.456 80.4971 69.232V74H81.6331V69.12C81.6331 66.704 80.2891 65.52 78.2411 65.52Z" fill="#F7F7F7"/>
<path d="M9.52451 1.824V2.324H10.0245V1.824H9.52451ZM9.52451 0.799999H10.0245V0.299999H9.52451V0.799999ZM1.84451 0.799999V0.299999H1.34451V0.799999H1.84451ZM1.84451 12H1.34451V12.5H1.84451V12ZM3.02851 12V12.5H3.52851V12H3.02851ZM3.02851 7.248V6.748H2.52851V7.248H3.02851ZM8.82051 7.248V7.748H9.32051V7.248H8.82051ZM8.82051 6.224H9.32051V5.724H8.82051V6.224ZM3.02851 6.224H2.52851V6.724H3.02851V6.224ZM3.02851 1.824V1.324H2.52851V1.824H3.02851ZM10.0245 1.824V0.799999H9.02451V1.824H10.0245ZM9.52451 0.299999H1.84451V1.3H9.52451V0.299999ZM1.34451 0.799999V12H2.34451V0.799999H1.34451ZM1.84451 12.5H3.02851V11.5H1.84451V12.5ZM3.52851 12V7.248H2.52851V12H3.52851ZM3.02851 7.748H8.82051V6.748H3.02851V7.748ZM9.32051 7.248V6.224H8.32051V7.248H9.32051ZM8.82051 5.724H3.02851V6.724H8.82051V5.724ZM3.52851 6.224V1.824H2.52851V6.224H3.52851ZM3.02851 2.324H9.52451V1.324H3.02851V2.324ZM10.9058 4.656L10.5821 4.27485L10.2578 4.55022L10.4777 4.91443L10.9058 4.656ZM11.4178 5.504L10.9897 5.76243L11.2996 6.27568L11.7489 5.87866L11.4178 5.504ZM16.6018 7.248V7.748H17.1018V7.248H16.6018ZM16.6498 10.688H17.1498V8.86348L16.2196 10.4331L16.6498 10.688ZM16.6498 12H16.1498V12.5H16.6498V12ZM17.7378 12V12.5H18.2378V12H17.7378ZM16.6018 8.096H17.1018V7.596H16.6018V8.096ZM16.6018 9.472L17.0651 9.66001L17.1018 9.56958V9.472H16.6018ZM14.3298 3.02C12.9063 3.02 11.5367 3.46437 10.5821 4.27485L11.2294 5.03715C11.9708 4.40763 13.0972 4.02 14.3298 4.02V3.02ZM10.4777 4.91443L10.9897 5.76243L11.8458 5.24557L11.3338 4.39756L10.4777 4.91443ZM11.7489 5.87866C12.3369 5.35903 13.2397 5.012 14.2178 5.012V4.012C13.0198 4.012 11.8747 4.43297 11.0867 5.12934L11.7489 5.87866ZM14.2178 5.012C14.9246 5.012 15.379 5.1886 15.6553 5.44831C15.9264 5.70319 16.1018 6.10958 16.1018 6.736H17.1018C17.1018 5.92242 16.8691 5.21681 16.3402 4.71969C15.8165 4.2274 15.0789 4.012 14.2178 4.012V5.012ZM16.1018 6.736V7.248H17.1018V6.736H16.1018ZM16.6018 6.748H13.9298V7.748H16.6018V6.748ZM13.9298 6.748C12.6556 6.748 11.7094 7.03393 11.0757 7.57321C10.4296 8.12308 10.1818 8.873 10.1818 9.632H11.1818C11.1818 9.09501 11.35 8.65292 11.7238 8.33479C12.1101 8.00607 12.7879 7.748 13.9298 7.748V6.748ZM10.1818 9.632C10.1818 10.5054 10.5377 11.262 11.1887 11.7903C11.83 12.3106 12.7194 12.58 13.7538 12.58V11.58C12.8841 11.58 12.2375 11.3534 11.8188 11.0137C11.4099 10.682 11.1818 10.2146 11.1818 9.632H10.1818ZM13.7538 12.58C15.2746 12.58 16.4559 11.9959 17.0799 10.9429L16.2196 10.4331C15.8196 11.1081 15.0169 11.58 13.7538 11.58V12.58ZM16.1498 10.688V12H17.1498V10.688H16.1498ZM16.6498 12.5H17.7378V11.5H16.6498V12.5ZM18.2378 12V6.784H17.2378V12H18.2378ZM18.2378 6.784C18.2378 5.60234 17.901 4.63649 17.1918 3.97131C16.4881 3.31131 15.4948 3.02 14.3298 3.02V4.02C15.3407 4.02 16.0514 4.27269 16.5077 4.70069C16.9585 5.12351 17.2378 5.78966 17.2378 6.784H18.2378ZM13.9298 10.684C13.3252 10.684 12.9119 10.5463 12.6625 10.3585C12.4298 10.1834 12.3018 9.93845 12.3018 9.6H11.3018C11.3018 10.2376 11.5657 10.7846 12.0611 11.1575C12.5396 11.5177 13.1903 11.684 13.9298 11.684V10.684ZM12.3018 9.6C12.3018 9.27558 12.3954 9.06333 12.5815 8.91489C12.7903 8.74838 13.197 8.596 13.9618 8.596V7.596C13.0946 7.596 12.4212 7.76362 11.958 8.13311C11.4721 8.52067 11.3018 9.06042 11.3018 9.6H12.3018ZM13.9618 8.596H16.6018V7.596H13.9618V8.596ZM16.1018 8.096V9.472H17.1018V8.096H16.1018ZM16.1385 9.28399C15.7736 10.1831 15.0244 10.684 13.9298 10.684V11.684C15.3952 11.684 16.5339 10.9689 17.0651 9.66001L16.1385 9.28399ZM27.6385 10.416L28.0639 10.6787L28.3155 10.2714L27.9194 10.0024L27.6385 10.416ZM26.7905 9.84L27.0714 9.42639L26.6578 9.14545L26.3769 9.55906L26.7905 9.84ZM26.7905 5.76L26.3769 6.04094L26.6578 6.45455L27.0714 6.17361L26.7905 5.76ZM27.6385 5.184L27.9194 5.59761L28.3129 5.33034L28.0656 4.92403L27.6385 5.184ZM24.3425 12.58C25.9029 12.58 27.2829 11.9432 28.0639 10.6787L27.2131 10.1533C26.6501 11.0648 25.6302 11.58 24.3425 11.58V12.58ZM27.9194 10.0024L27.0714 9.42639L26.5096 10.2536L27.3576 10.8296L27.9194 10.0024ZM26.3769 9.55906C25.9091 10.2478 25.1817 10.572 24.3425 10.572V11.572C25.4553 11.572 26.5199 11.1282 27.2041 10.1209L26.3769 9.55906ZM24.3425 10.572C23.5428 10.572 22.8791 10.2924 22.4159 9.82432C21.9531 9.35658 21.6585 8.66809 21.6585 7.792H20.6585C20.6585 8.89991 21.0359 9.85142 21.7051 10.5277C22.3739 11.2036 23.3022 11.572 24.3425 11.572V10.572ZM21.6585 7.792C21.6585 6.92475 21.9526 6.23557 22.4165 5.76506C22.8806 5.29445 23.5445 5.012 24.3425 5.012V4.012C23.3005 4.012 22.3724 4.38555 21.7045 5.06294C21.0364 5.74043 20.6585 6.69125 20.6585 7.792H21.6585ZM24.3425 5.012C25.1755 5.012 25.906 5.34767 26.3769 6.04094L27.2041 5.47906C26.523 4.47633 25.4615 4.012 24.3425 4.012V5.012ZM27.0714 6.17361L27.9194 5.59761L27.3576 4.77039L26.5096 5.34639L27.0714 6.17361ZM28.0656 4.92403C27.2829 3.63821 25.8989 3.02 24.3425 3.02V4.02C25.6341 4.02 26.6501 4.52179 27.2114 5.44397L28.0656 4.92403ZM24.3425 3.02C21.5643 3.02 19.5065 4.99401 19.5065 7.792H20.5065C20.5065 5.56599 22.0967 4.02 24.3425 4.02V3.02ZM19.5065 7.792C19.5065 10.5875 21.5618 12.58 24.3425 12.58V11.58C22.0992 11.58 20.5065 10.0205 20.5065 7.792H19.5065ZM36.5455 10.704L36.9285 11.0254L37.2031 10.6982L36.9228 10.3759L36.5455 10.704ZM35.9055 9.968L36.2828 9.63991L35.9055 9.20601L35.5282 9.63991L35.9055 9.968ZM30.0175 8.144V7.644H29.4798L29.5188 8.18027L30.0175 8.144ZM37.0575 8.144V8.644H37.5575V8.144H37.0575ZM35.9855 7.296V7.796H36.5311L36.4836 7.25248L35.9855 7.296ZM30.0175 7.296L29.5194 7.25248L29.4719 7.796H30.0175V7.296ZM37.5735 7.792C37.5735 6.4131 37.1049 5.21628 36.2817 4.36122C35.4575 3.50518 34.3046 3.02 32.9935 3.02V4.02C34.0504 4.02 34.9375 4.40682 35.5613 5.05478C36.1861 5.70372 36.5735 6.6429 36.5735 7.792H37.5735ZM32.9935 3.02C30.3343 3.02 28.3815 5.03518 28.3815 7.792H29.3815C29.3815 5.55681 30.9167 4.02 32.9935 4.02V3.02ZM28.3815 7.792C28.3815 9.16331 28.876 10.3677 29.7557 11.2292C30.6349 12.0904 31.8691 12.58 33.2975 12.58V11.58C32.1019 11.58 31.1281 11.1736 30.4554 10.5148C29.783 9.85633 29.3815 8.91669 29.3815 7.792H28.3815ZM33.2975 12.58C34.7439 12.58 36.0641 12.0554 36.9285 11.0254L36.1625 10.3826C35.5229 11.1446 34.5071 11.58 33.2975 11.58V12.58ZM36.9228 10.3759L36.2828 9.63991L35.5282 10.2961L36.1682 11.0321L36.9228 10.3759ZM35.5282 9.63991C34.9963 10.2516 34.2301 10.572 33.3295 10.572V11.572C34.4769 11.572 35.5347 11.1564 36.2828 10.2961L35.5282 9.63991ZM33.3295 10.572C31.7261 10.572 30.6234 9.58167 30.5162 8.10773L29.5188 8.18027C29.6676 10.2263 31.2529 11.572 33.3295 11.572V10.572ZM30.0175 8.644H37.0575V7.644H30.0175V8.644ZM37.5575 8.144C37.5575 8.09859 37.5604 8.04975 37.5644 7.98926C37.5679 7.9368 37.5735 7.86073 37.5735 7.792H36.5735C36.5735 7.81926 36.5711 7.8552 36.5666 7.92274C36.5626 7.98225 36.5575 8.06141 36.5575 8.144H37.5575ZM32.9935 4.996C34.3696 4.996 35.3649 5.937 35.4874 7.33952L36.4836 7.25248C36.3182 5.359 34.9134 3.996 32.9935 3.996V4.996ZM35.9855 6.796H30.0175V7.796H35.9855V6.796ZM30.5156 7.33952C30.6383 5.93525 31.6351 4.996 32.9935 4.996V3.996C31.0879 3.996 29.6847 5.36075 29.5194 7.25248L30.5156 7.33952ZM40.5218 5.184H40.0218V6.87711L40.9415 5.45563L40.5218 5.184ZM40.5218 0.127999H41.0218V-0.372001H40.5218V0.127999ZM39.3858 0.127999V-0.372001H38.8858V0.127999H39.3858ZM39.3858 12H38.8858V12.5H39.3858V12ZM40.4738 12V12.5H40.9738V12H40.4738ZM40.4738 10.336L40.9014 10.077L39.9738 8.54523V10.336H40.4738ZM43.7218 3.02C42.2259 3.02 40.9074 3.66769 40.102 4.91237L40.9415 5.45563C41.5442 4.52431 42.5296 4.02 43.7218 4.02V3.02ZM41.0218 5.184V0.127999H40.0218V5.184H41.0218ZM40.5218 -0.372001H39.3858V0.627999H40.5218V-0.372001ZM38.8858 0.127999V12H39.8858V0.127999H38.8858ZM39.3858 12.5H40.4738V11.5H39.3858V12.5ZM40.9738 12V10.336H39.9738V12H40.9738ZM40.0461 10.595C40.8339 11.8958 42.1734 12.58 43.7218 12.58V11.58C42.4861 11.58 41.4896 11.0482 40.9014 10.077L40.0461 10.595ZM43.7218 12.58C46.4017 12.58 48.4138 10.6084 48.4138 7.792H47.4138C47.4138 10.0636 45.8419 11.58 43.7218 11.58V12.58ZM48.4138 7.792C48.4138 4.97312 46.3992 3.02 43.7218 3.02V4.02C45.8444 4.02 47.4138 5.52288 47.4138 7.792H48.4138ZM43.6418 10.572C42.8713 10.572 42.2193 10.292 41.7596 9.82084C41.3 9.34969 41.0058 8.65938 41.0058 7.792H40.0058C40.0058 8.89262 40.3835 9.84231 41.0439 10.5192C41.7042 11.196 42.6202 11.572 43.6418 11.572V10.572ZM41.0058 7.792C41.0058 6.92462 41.3 6.23431 41.7596 5.76316C42.2193 5.29202 42.8713 5.012 43.6418 5.012V4.012C42.6202 4.012 41.7042 4.38798 41.0439 5.06484C40.3835 5.74169 40.0058 6.69138 40.0058 7.792H41.0058ZM43.6418 5.012C45.1317 5.012 46.2778 6.09013 46.2778 7.792H47.2778C47.2778 5.55787 45.7038 4.012 43.6418 4.012V5.012ZM46.2778 7.792C46.2778 9.49387 45.1317 10.572 43.6418 10.572V11.572C45.7038 11.572 47.2778 10.0261 47.2778 7.792H46.2778ZM53.6695 12.58C56.4096 12.58 58.4415 10.5641 58.4415 7.792H57.4415C57.4415 10.0119 55.8574 11.58 53.6695 11.58V12.58ZM58.4415 7.792C58.4415 5.01737 56.4072 3.02 53.6695 3.02V4.02C55.8599 4.02 57.4415 5.57463 57.4415 7.792H58.4415ZM53.6695 3.02C50.9343 3.02 48.8815 5.01491 48.8815 7.792H49.8815C49.8815 5.57709 51.4767 4.02 53.6695 4.02V3.02ZM48.8815 7.792C48.8815 10.5666 50.9318 12.58 53.6695 12.58V11.58C51.4792 11.58 49.8815 10.0094 49.8815 7.792H48.8815ZM53.6695 10.572C52.899 10.572 52.247 10.292 51.7874 9.82084C51.3277 9.34969 51.0335 8.65938 51.0335 7.792H50.0335C50.0335 8.89262 50.4113 9.84231 51.0716 10.5192C51.732 11.196 52.648 11.572 53.6695 11.572V10.572ZM51.0335 7.792C51.0335 6.92462 51.3277 6.23431 51.7874 5.76316C52.247 5.29202 52.899 5.012 53.6695 5.012V4.012C52.648 4.012 51.732 4.38798 51.0716 5.06484C50.4113 5.74169 50.0335 6.69138 50.0335 7.792H51.0335ZM53.6695 5.012C54.4397 5.012 55.087 5.29175 55.5424 5.76188C55.9981 6.23239 56.2895 6.92289 56.2895 7.792H57.2895C57.2895 6.69311 56.9169 5.74361 56.2606 5.06612C55.604 4.38825 54.6913 4.012 53.6695 4.012V5.012ZM56.2895 7.792C56.2895 8.66111 55.9981 9.35161 55.5424 9.82212C55.087 10.2922 54.4397 10.572 53.6695 10.572V11.572C54.6913 11.572 55.604 11.1957 56.2606 10.5179C56.9169 9.84039 57.2895 8.89089 57.2895 7.792H56.2895ZM63.7008 12.58C66.4409 12.58 68.4728 10.5641 68.4728 7.792H67.4728C67.4728 10.0119 65.8886 11.58 63.7008 11.58V12.58ZM68.4728 7.792C68.4728 5.01737 66.4384 3.02 63.7008 3.02V4.02C65.8911 4.02 67.4728 5.57463 67.4728 7.792H68.4728ZM63.7008 3.02C60.9656 3.02 58.9128 5.01491 58.9128 7.792H59.9128C59.9128 5.57709 61.5079 4.02 63.7008 4.02V3.02ZM58.9128 7.792C58.9128 10.5666 60.9631 12.58 63.7008 12.58V11.58C61.5104 11.58 59.9128 10.0094 59.9128 7.792H58.9128ZM63.7008 10.572C62.9303 10.572 62.2783 10.292 61.8186 9.82084C61.359 9.34969 61.0648 8.65938 61.0648 7.792H60.0648C60.0648 8.89262 60.4425 9.84231 61.1029 10.5192C61.7632 11.196 62.6792 11.572 63.7008 11.572V10.572ZM61.0648 7.792C61.0648 6.92462 61.359 6.23431 61.8186 5.76316C62.2783 5.29202 62.9303 5.012 63.7008 5.012V4.012C62.6792 4.012 61.7632 4.38798 61.1029 5.06484C60.4425 5.74169 60.0648 6.69138 60.0648 7.792H61.0648ZM63.7008 5.012C64.4709 5.012 65.1182 5.29175 65.5736 5.76188C66.0294 6.23239 66.3208 6.92289 66.3208 7.792H67.3208C67.3208 6.69311 66.9481 5.74361 66.2919 5.06612C65.6353 4.38825 64.7226 4.012 63.7008 4.012V5.012ZM66.3208 7.792C66.3208 8.66111 66.0294 9.35161 65.5736 9.82212C65.1182 10.2922 64.4709 10.572 63.7008 10.572V11.572C64.7226 11.572 65.6353 11.1957 66.2919 10.5179C66.9481 9.84039 67.3208 8.89089 67.3208 7.792H66.3208ZM76.804 12L76.4142 12.3131L76.5643 12.5H76.804V12ZM78.196 12V12.5H79.229L78.5882 11.6898L78.196 12ZM74.26 7.024L73.9146 6.6625L73.5854 6.97707L73.8679 7.33419L74.26 7.024ZM77.86 3.584L78.2054 3.94549L79.107 3.084H77.86V3.584ZM76.452 3.584V3.084H76.2579L76.1147 3.21494L76.452 3.584ZM71.428 8.176H70.928V9.31039L71.7653 8.54506L71.428 8.176ZM71.428 0.127999H71.928V-0.372001H71.428V0.127999ZM70.292 0.127999V-0.372001H69.792V0.127999H70.292ZM70.292 12H69.792V12.5H70.292V12ZM71.428 12V12.5H71.928V12H71.428ZM71.428 9.6L71.0896 9.23192L70.928 9.38048V9.6H71.428ZM73.412 7.776L73.8019 7.46293L73.4671 7.04611L73.0736 7.40792L73.412 7.776ZM76.804 12.5H78.196V11.5H76.804V12.5ZM78.5882 11.6898L74.6522 6.71381L73.8679 7.33419L77.8039 12.3102L78.5882 11.6898ZM74.6054 7.38549L78.2054 3.94549L77.5146 3.2225L73.9146 6.6625L74.6054 7.38549ZM77.86 3.084H76.452V4.084H77.86V3.084ZM76.1147 3.21494L71.0907 7.80693L71.7653 8.54506L76.7893 3.95306L76.1147 3.21494ZM71.928 8.176V0.127999H70.928V8.176H71.928ZM71.428 -0.372001H70.292V0.627999H71.428V-0.372001ZM69.792 0.127999V12H70.792V0.127999H69.792ZM70.292 12.5H71.428V11.5H70.292V12.5ZM71.928 12V9.6H70.928V12H71.928ZM71.7664 9.96808L73.7504 8.14408L73.0736 7.40792L71.0896 9.23192L71.7664 9.96808ZM73.0221 8.08907L76.4142 12.3131L77.1939 11.6869L73.8019 7.46293L73.0221 8.08907ZM4.02051 43H3.52051V43.5H4.02051V43ZM5.20451 43V43.5H5.70451V43H5.20451ZM5.20451 32.824V32.324H4.70451V32.824H5.20451ZM9.14051 32.824V33.324H9.64051V32.824H9.14051ZM9.14051 31.8H9.64051V31.3H9.14051V31.8ZM0.0845078 31.8V31.3H-0.415492V31.8H0.0845078ZM0.0845078 32.824H-0.415492V33.324H0.0845078V32.824ZM4.02051 32.824H4.52051V32.324H4.02051V32.824ZM4.02051 43.5H5.20451V42.5H4.02051V43.5ZM5.70451 43V32.824H4.70451V43H5.70451ZM5.20451 33.324H9.14051V32.324H5.20451V33.324ZM9.64051 32.824V31.8H8.64051V32.824H9.64051ZM9.14051 31.3H0.0845078V32.3H9.14051V31.3ZM-0.415492 31.8V32.824H0.584508V31.8H-0.415492ZM0.0845078 33.324H4.02051V32.324H0.0845078V33.324ZM3.52051 32.824V43H4.52051V32.824H3.52051ZM21.5571 34.584V34.084H21.2102L21.0888 34.409L21.5571 34.584ZM18.8851 41.736L18.4171 41.9119L18.8865 43.1609L19.3535 41.911L18.8851 41.736ZM16.1971 34.584L16.6652 34.4081L16.5434 34.084H16.1971V34.584ZM15.2211 34.584V34.084H14.8756L14.7534 34.4072L15.2211 34.584ZM12.5171 41.736L12.0481 41.9091L12.5115 43.1647L12.9848 41.9128L12.5171 41.736ZM9.87713 34.584L10.3462 34.4109L10.2255 34.084H9.87713V34.584ZM8.78913 34.584V34.084H8.06667L8.32119 34.7601L8.78913 34.584ZM11.9571 43L11.4892 43.1761L11.6111 43.5H11.9571V43ZM13.0291 43V43.5H13.3724L13.4957 43.1797L13.0291 43ZM15.6851 36.104L16.1517 35.9243L15.6851 34.7128L15.2185 35.9243L15.6851 36.104ZM18.3411 43L17.8745 43.1797L17.9979 43.5H18.3411V43ZM19.4131 43V43.5H19.7586L19.8808 43.1769L19.4131 43ZM22.5971 34.584L23.0648 34.7609L23.3209 34.084H22.5971V34.584ZM21.0888 34.409L18.4168 41.561L19.3535 41.911L22.0255 34.759L21.0888 34.409ZM19.3532 41.5601L16.6652 34.4081L15.7291 34.7599L18.4171 41.9119L19.3532 41.5601ZM16.1971 34.084H15.2211V35.084H16.1971V34.084ZM14.7534 34.4072L12.0494 41.5592L12.9848 41.9128L15.6888 34.7608L14.7534 34.4072ZM12.9862 41.5629L10.3462 34.4109L9.40807 34.7571L12.0481 41.9091L12.9862 41.5629ZM9.87713 34.084H8.78913V35.084H9.87713V34.084ZM8.32119 34.7601L11.4892 43.1761L12.4251 42.8239L9.25708 34.4079L8.32119 34.7601ZM11.9571 43.5H13.0291V42.5H11.9571V43.5ZM13.4957 43.1797L16.1517 36.2837L15.2185 35.9243L12.5625 42.8203L13.4957 43.1797ZM15.2185 36.2837L17.8745 43.1797L18.8077 42.8203L16.1517 35.9243L15.2185 36.2837ZM18.3411 43.5H19.4131V42.5H18.3411V43.5ZM19.8808 43.1769L23.0648 34.7609L22.1295 34.4071L18.9455 42.8231L19.8808 43.1769ZM22.5971 34.084H21.5571V35.084H22.5971V34.084ZM24.3076 43H23.8076V43.5H24.3076V43ZM25.4436 43V43.5H25.9436V43H25.4436ZM25.4436 34.584H25.9436V34.084H25.4436V34.584ZM24.3076 34.584V34.084H23.8076V34.584H24.3076ZM24.8836 33.244C25.6461 33.244 26.2156 32.6458 26.2156 31.912H25.2156C25.2156 32.1062 25.0812 32.244 24.8836 32.244V33.244ZM26.2156 31.912C26.2156 31.1784 25.5976 30.628 24.8836 30.628V31.628C25.0977 31.628 25.2156 31.7816 25.2156 31.912H26.2156ZM24.8836 30.628C24.1563 30.628 23.5516 31.2072 23.5516 31.928H24.5516C24.5516 31.7848 24.6829 31.628 24.8836 31.628V30.628ZM23.5516 31.928C23.5516 32.6584 24.1498 33.244 24.8836 33.244V32.244C24.6894 32.244 24.5516 32.0936 24.5516 31.928H23.5516ZM24.3076 43.5H25.4436V42.5H24.3076V43.5ZM25.9436 43V34.584H24.9436V43H25.9436ZM25.4436 34.084H24.3076V35.084H25.4436V34.084ZM23.8076 34.584V43H24.8076V34.584H23.8076ZM32.6365 41.672L33.0855 41.4519L32.7941 40.8575L32.302 41.3004L32.6365 41.672ZM29.9325 35.544V35.044H29.4325V35.544H29.9325ZM32.4925 35.544V36.044H32.9925V35.544H32.4925ZM32.4925 34.584H32.9925V34.084H32.4925V34.584ZM29.9325 34.584H29.4325V35.084H29.9325V34.584ZM29.9325 32.744H30.4325V32.244H29.9325V32.744ZM28.7965 32.744V32.244H28.2965V32.744H28.7965ZM28.7965 34.584V35.084H29.2965V34.584H28.7965ZM27.2925 34.584V34.084H26.7925V34.584H27.2925ZM27.2925 35.544H26.7925V36.044H27.2925V35.544ZM28.7965 35.544H29.2965V35.044H28.7965V35.544ZM33.0365 42.488L33.3695 42.861L33.6524 42.6084L33.4855 42.2679L33.0365 42.488ZM32.302 41.3004C32.0948 41.4868 31.7605 41.604 31.3885 41.604V42.604C31.9445 42.604 32.5382 42.4332 32.971 42.0436L32.302 41.3004ZM31.3885 41.604C31.0123 41.604 30.796 41.4979 30.6697 41.3644C30.5392 41.2264 30.4325 40.983 30.4325 40.568H29.4325C29.4325 41.145 29.5818 41.6696 29.9433 42.0516C30.309 42.4381 30.8207 42.604 31.3885 42.604V41.604ZM30.4325 40.568V35.544H29.4325V40.568H30.4325ZM29.9325 36.044H32.4925V35.044H29.9325V36.044ZM32.9925 35.544V34.584H31.9925V35.544H32.9925ZM32.4925 34.084H29.9325V35.084H32.4925V34.084ZM30.4325 34.584V32.744H29.4325V34.584H30.4325ZM29.9325 32.244H28.7965V33.244H29.9325V32.244ZM28.2965 32.744V34.584H29.2965V32.744H28.2965ZM28.7965 34.084H27.2925V35.084H28.7965V34.084ZM26.7925 34.584V35.544H27.7925V34.584H26.7925ZM27.2925 36.044H28.7965V35.044H27.2925V36.044ZM28.2965 35.544V40.632H29.2965V35.544H28.2965ZM28.2965 40.632C28.2965 41.501 28.5445 42.2551 29.081 42.7916C29.6175 43.3281 30.3757 43.58 31.2605 43.58V42.58C30.5613 42.58 30.0875 42.3839 29.7881 42.0844C29.4886 41.7849 29.2965 41.315 29.2965 40.632H28.2965ZM31.2605 43.58C31.9977 43.58 32.803 43.3668 33.3695 42.861L32.7035 42.115C32.374 42.4092 31.8353 42.58 31.2605 42.58V43.58ZM33.4855 42.2679L33.0855 41.4519L32.1875 41.8921L32.5875 42.7081L33.4855 42.2679ZM38.9178 41.672L39.3667 41.4519L39.0753 40.8575L38.5833 41.3004L38.9178 41.672ZM36.2138 35.544V35.044H35.7138V35.544H36.2138ZM38.7738 35.544V36.044H39.2738V35.544H38.7738ZM38.7738 34.584H39.2738V34.084H38.7738V34.584ZM36.2138 34.584H35.7138V35.084H36.2138V34.584ZM36.2138 32.744H36.7138V32.244H36.2138V32.744ZM35.0778 32.744V32.244H34.5778V32.744H35.0778ZM35.0778 34.584V35.084H35.5778V34.584H35.0778ZM33.5738 34.584V34.084H33.0738V34.584H33.5738ZM33.5738 35.544H33.0738V36.044H33.5738V35.544ZM35.0778 35.544H35.5778V35.044H35.0778V35.544ZM39.3178 42.488L39.6508 42.861L39.9336 42.6084L39.7667 42.2679L39.3178 42.488ZM38.5833 41.3004C38.3761 41.4868 38.0417 41.604 37.6698 41.604V42.604C38.2258 42.604 38.8194 42.4332 39.2522 42.0436L38.5833 41.3004ZM37.6698 41.604C37.2935 41.604 37.0773 41.4979 36.951 41.3644C36.8204 41.2264 36.7138 40.983 36.7138 40.568H35.7138C35.7138 41.145 35.8631 41.6696 36.2246 42.0516C36.5902 42.4381 37.102 42.604 37.6698 42.604V41.604ZM36.7138 40.568V35.544H35.7138V40.568H36.7138ZM36.2138 36.044H38.7738V35.044H36.2138V36.044ZM39.2738 35.544V34.584H38.2738V35.544H39.2738ZM38.7738 34.084H36.2138V35.084H38.7738V34.084ZM36.7138 34.584V32.744H35.7138V34.584H36.7138ZM36.2138 32.244H35.0778V33.244H36.2138V32.244ZM34.5778 32.744V34.584H35.5778V32.744H34.5778ZM35.0778 34.084H33.5738V35.084H35.0778V34.084ZM33.0738 34.584V35.544H34.0738V34.584H33.0738ZM33.5738 36.044H35.0778V35.044H33.5738V36.044ZM34.5778 35.544V40.632H35.5778V35.544H34.5778ZM34.5778 40.632C34.5778 41.501 34.8257 42.2551 35.3622 42.7916C35.8988 43.3281 36.6569 43.58 37.5418 43.58V42.58C36.8426 42.58 36.3687 42.3839 36.0693 42.0844C35.7698 41.7849 35.5778 41.315 35.5778 40.632H34.5778ZM37.5418 43.58C38.279 43.58 39.0842 43.3668 39.6508 42.861L38.9847 42.115C38.6553 42.4092 38.1166 42.58 37.5418 42.58V43.58ZM39.7667 42.2679L39.3667 41.4519L38.4688 41.8921L38.8688 42.7081L39.7667 42.2679ZM47.9049 41.704L48.2879 42.0254L48.5625 41.6982L48.2822 41.3759L47.9049 41.704ZM47.2649 40.968L47.6422 40.6399L47.2649 40.206L46.8876 40.6399L47.2649 40.968ZM41.3769 39.144V38.644H40.8392L40.8782 39.1803L41.3769 39.144ZM48.4169 39.144V39.644H48.9169V39.144H48.4169ZM47.3449 38.296V38.796H47.8905L47.843 38.2525L47.3449 38.296ZM41.3769 38.296L40.8788 38.2525L40.8313 38.796H41.3769V38.296ZM48.9329 38.792C48.9329 37.4131 48.4643 36.2163 47.6411 35.3612C46.8169 34.5052 45.664 34.02 44.3529 34.02V35.02C45.4098 35.02 46.2969 35.4068 46.9207 36.0548C47.5455 36.7037 47.9329 37.6429 47.9329 38.792H48.9329ZM44.3529 34.02C41.6937 34.02 39.7409 36.0352 39.7409 38.792H40.7409C40.7409 36.5568 42.2761 35.02 44.3529 35.02V34.02ZM39.7409 38.792C39.7409 40.1633 40.2354 41.3677 41.115 42.2292C41.9943 43.0904 43.2285 43.58 44.6569 43.58V42.58C43.4613 42.58 42.4875 42.1736 41.8147 41.5148C41.1424 40.8563 40.7409 39.9167 40.7409 38.792H39.7409ZM44.6569 43.58C46.1033 43.58 47.4235 43.0554 48.2879 42.0254L47.5219 41.3826C46.8823 42.1446 45.8665 42.58 44.6569 42.58V43.58ZM48.2822 41.3759L47.6422 40.6399L46.8876 41.2961L47.5276 42.0321L48.2822 41.3759ZM46.8876 40.6399C46.3557 41.2516 45.5894 41.572 44.6889 41.572V42.572C45.8363 42.572 46.8941 42.1564 47.6422 41.2961L46.8876 40.6399ZM44.6889 41.572C43.0855 41.572 41.9828 40.5817 41.8756 39.1077L40.8782 39.1803C41.027 41.2263 42.6123 42.572 44.6889 42.572V41.572ZM41.3769 39.644H48.4169V38.644H41.3769V39.644ZM48.9169 39.144C48.9169 39.0986 48.9197 39.0497 48.9238 38.9893C48.9273 38.9368 48.9329 38.8607 48.9329 38.792H47.9329C47.9329 38.8193 47.9305 38.8552 47.926 38.9227C47.922 38.9823 47.9169 39.0614 47.9169 39.144H48.9169ZM44.3529 35.996C45.7289 35.996 46.7242 36.937 46.8468 38.3395L47.843 38.2525C47.6775 36.359 46.2728 34.996 44.3529 34.996V35.996ZM47.3449 37.796H41.3769V38.796H47.3449V37.796ZM41.875 38.3395C41.9977 36.9352 42.9945 35.996 44.3529 35.996V34.996C42.4472 34.996 41.0441 36.3607 40.8788 38.2525L41.875 38.3395ZM51.8331 36.232H51.3331L52.2854 36.4452L51.8331 36.232ZM51.8331 34.584H52.3331V34.084H51.8331V34.584ZM50.7451 34.584V34.084H50.2451V34.584H50.7451ZM50.7451 43H50.2451V43.5H50.7451V43ZM51.8811 43V43.5H52.3811V43H51.8811ZM54.9851 35.624V36.124H55.4851V35.624H54.9851ZM54.9851 34.52H55.4851V34.02H54.9851V34.52ZM52.3331 36.232V34.584H51.3331V36.232H52.3331ZM51.8331 34.084H50.7451V35.084H51.8331V34.084ZM50.2451 34.584V43H51.2451V34.584H50.2451ZM50.7451 43.5H51.8811V42.5H50.7451V43.5ZM52.3811 43V38.712H51.3811V43H52.3811ZM52.3811 38.712C52.3811 37.8067 52.625 37.1658 53.0043 36.7554C53.3789 36.3501 53.9423 36.108 54.7131 36.108V35.108C53.724 35.108 52.8714 35.4259 52.2699 36.0766C51.6733 36.7222 51.3811 37.6333 51.3811 38.712H52.3811ZM54.7131 36.108C54.7267 36.108 54.7463 36.1095 54.7998 36.1141C54.8442 36.118 54.9125 36.124 54.9851 36.124V35.124C54.9618 35.124 54.9341 35.122 54.8864 35.1179C54.848 35.1145 54.7796 35.108 54.7131 35.108V36.108ZM55.4851 35.624V34.52H54.4851V35.624H55.4851ZM54.9851 34.02C53.2942 34.02 52.0124 34.6792 51.3809 36.0188L52.2854 36.4452C52.7099 35.5448 53.5721 35.02 54.9851 35.02V34.02ZM1.84451 74H1.34451V74.5H1.84451V74ZM3.02851 74V74.5H3.52851V74H3.02851ZM3.02851 62.8H3.52851V62.3H3.02851V62.8ZM1.84451 62.8V62.3H1.34451V62.8H1.84451ZM1.84451 74.5H3.02851V73.5H1.84451V74.5ZM3.52851 74V62.8H2.52851V74H3.52851ZM3.02851 62.3H1.84451V63.3H3.02851V62.3ZM1.34451 62.8V74H2.34451V62.8H1.34451ZM7.52063 67.136H7.02063V68.9575L7.95056 67.3913L7.52063 67.136ZM7.52063 65.584H8.02063V65.084H7.52063V65.584ZM6.43263 65.584V65.084H5.93263V65.584H6.43263ZM6.43263 74H5.93263V74.5H6.43263V74ZM7.56863 74V74.5H8.06863V74H7.56863ZM13.0406 74H12.5406V74.5H13.0406V74ZM14.1766 74V74.5H14.6766V74H14.1766ZM10.7206 65.02C9.12529 65.02 7.80625 65.6756 7.09071 66.8807L7.95056 67.3913C8.45102 66.5484 9.40398 66.02 10.7206 66.02V65.02ZM8.02063 67.136V65.584H7.02063V67.136H8.02063ZM7.52063 65.084H6.43263V66.084H7.52063V65.084ZM5.93263 65.584V74H6.93263V65.584H5.93263ZM6.43263 74.5H7.56863V73.5H6.43263V74.5ZM8.06863 74V69.584H7.06863V74H8.06863ZM8.06863 69.584C8.06863 68.7224 8.32176 68.0997 8.7196 67.6941C9.11653 67.2894 9.71305 67.044 10.5126 67.044V66.044C9.50421 66.044 8.62873 66.3586 8.00566 66.9939C7.38351 67.6283 7.06863 68.5256 7.06863 69.584H8.06863ZM10.5126 67.044C11.2187 67.044 11.7039 67.2432 12.0159 67.5683C12.3309 67.8964 12.5406 68.4267 12.5406 69.232H13.5406C13.5406 68.2613 13.2864 67.4476 12.7373 66.8757C12.1854 66.3008 11.4066 66.044 10.5126 66.044V67.044ZM12.5406 69.232V74H13.5406V69.232H12.5406ZM13.0406 74.5H14.1766V73.5H13.0406V74.5ZM14.6766 74V69.12H13.6766V74H14.6766ZM14.6766 69.12C14.6766 67.8145 14.2941 66.7724 13.5672 66.0575C12.8424 65.3447 11.8391 65.02 10.7206 65.02V66.02C11.6502 66.02 12.3748 66.2873 12.866 66.7705C13.3552 67.2516 13.6766 68.0095 13.6766 69.12H14.6766ZM22.2048 67.216L21.9192 67.6264L22.3774 67.9452L22.644 67.4549L22.2048 67.216ZM22.7008 66.304L23.14 66.5429L23.3561 66.1456L22.9824 65.8909L22.7008 66.304ZM16.6048 72.144L16.9137 71.7508L16.4581 71.3929L16.1706 71.8959L16.6048 72.144ZM16.0928 73.04L15.6586 72.7919L15.454 73.15L15.7666 73.419L16.0928 73.04ZM19.5168 74.58C20.6761 74.58 21.6568 74.3315 22.3625 73.8349C23.0862 73.3256 23.4888 72.5748 23.4888 71.68H22.4888C22.4888 72.2412 22.2513 72.6904 21.787 73.0171C21.3047 73.3565 20.5494 73.58 19.5168 73.58V74.58ZM23.4888 71.68C23.4888 70.6942 23.0547 70.0404 22.407 69.6232C21.8039 69.2346 21.0309 69.0618 20.3544 68.9328C19.6309 68.7949 19.0254 68.7064 18.5748 68.5218C18.3599 68.4338 18.2274 68.3408 18.1495 68.2484C18.081 68.1672 18.0328 68.0616 18.0328 67.888H17.0328C17.0328 68.2824 17.155 68.6203 17.3849 68.893C17.6054 69.1545 17.8991 69.3257 18.1957 69.4472C18.7681 69.6816 19.5266 69.7931 20.1671 69.9152C20.8546 70.0462 21.4456 70.1934 21.8655 70.4638C22.2408 70.7056 22.4888 71.0498 22.4888 71.68H23.4888ZM18.0328 67.888C18.0328 67.6476 18.1239 67.4551 18.3435 67.303C18.5858 67.1351 19.019 66.996 19.7248 66.996V65.996C18.9106 65.996 18.2477 66.1528 17.774 66.481C17.2776 66.8249 17.0328 67.3284 17.0328 67.888H18.0328ZM19.7248 66.996C20.512 66.996 21.2857 67.1857 21.9192 67.6264L22.4903 66.8055C21.6518 66.2223 20.6655 65.996 19.7248 65.996V66.996ZM22.644 67.4549L23.14 66.5429L22.2615 66.0651L21.7655 66.9771L22.644 67.4549ZM22.9824 65.8909C22.1722 65.3384 20.8808 65.02 19.7248 65.02V66.02C20.7447 66.02 21.8214 66.3096 22.4191 66.7171L22.9824 65.8909ZM19.7248 65.02C18.579 65.02 17.63 65.2931 16.9545 65.8057C16.2672 66.3273 15.8968 67.074 15.8968 67.92H16.8968C16.8968 67.39 17.1183 66.9367 17.559 66.6023C18.0115 66.2589 18.7265 66.02 19.7248 66.02V65.02ZM15.8968 67.92C15.8968 68.9226 16.3242 69.5934 16.9723 70.0246C17.5773 70.427 18.3522 70.6047 19.0318 70.7333C19.7593 70.8709 20.3646 70.9526 20.8196 71.129C21.0365 71.213 21.1678 71.3014 21.2434 71.3871C21.3079 71.4601 21.3528 71.5535 21.3528 71.712H22.3528C22.3528 71.3225 22.2271 70.9904 21.9932 70.7254C21.7704 70.4729 21.4755 70.3107 21.181 70.1965C20.6129 69.9764 19.8542 69.8711 19.2177 69.7507C18.5333 69.6213 17.9442 69.47 17.5262 69.1919C17.1513 68.9426 16.8968 68.5814 16.8968 67.92H15.8968ZM21.3528 71.712C21.3528 71.9741 21.2617 72.1546 21.0495 72.2946C20.8039 72.4566 20.3547 72.588 19.5968 72.588V73.588C20.4388 73.588 21.1177 73.4474 21.6 73.1294C22.1158 72.7894 22.3528 72.2819 22.3528 71.712H21.3528ZM19.5968 72.588C18.5142 72.588 17.4896 72.2033 16.9137 71.7508L16.2958 72.5372C17.0639 73.1407 18.3113 73.588 19.5968 73.588V72.588ZM16.1706 71.8959L15.6586 72.7919L16.5269 73.2881L17.0389 72.3921L16.1706 71.8959ZM15.7666 73.419C16.5718 74.1118 18.0452 74.58 19.5168 74.58V73.58C18.2043 73.58 16.9897 73.1522 16.4189 72.661L15.7666 73.419ZM29.1209 72.672L29.5698 72.4519L29.2785 71.8575L28.7864 72.3004L29.1209 72.672ZM26.4169 66.544V66.044H25.9169V66.544H26.4169ZM28.9769 66.544V67.044H29.4769V66.544H28.9769ZM28.9769 65.584H29.4769V65.084H28.9769V65.584ZM26.4169 65.584H25.9169V66.084H26.4169V65.584ZM26.4169 63.744H26.9169V63.244H26.4169V63.744ZM25.2809 63.744V63.244H24.7809V63.744H25.2809ZM25.2809 65.584V66.084H25.7809V65.584H25.2809ZM23.7769 65.584V65.084H23.2769V65.584H23.7769ZM23.7769 66.544H23.2769V67.044H23.7769V66.544ZM25.2809 66.544H25.7809V66.044H25.2809V66.544ZM29.5209 73.488L29.8539 73.861L30.1368 73.6084L29.9698 73.2679L29.5209 73.488ZM28.7864 72.3004C28.5792 72.4868 28.2449 72.604 27.8729 72.604V73.604C28.4289 73.604 29.0226 73.4332 29.4554 73.0436L28.7864 72.3004ZM27.8729 72.604C27.4967 72.604 27.2804 72.4979 27.1541 72.3644C27.0236 72.2264 26.9169 71.983 26.9169 71.568H25.9169C25.9169 72.145 26.0662 72.6696 26.4277 73.0516C26.7934 73.4381 27.3051 73.604 27.8729 73.604V72.604ZM26.9169 71.568V66.544H25.9169V71.568H26.9169ZM26.4169 67.044H28.9769V66.044H26.4169V67.044ZM29.4769 66.544V65.584H28.4769V66.544H29.4769ZM28.9769 65.084H26.4169V66.084H28.9769V65.084ZM26.9169 65.584V63.744H25.9169V65.584H26.9169ZM26.4169 63.244H25.2809V64.244H26.4169V63.244ZM24.7809 63.744V65.584H25.7809V63.744H24.7809ZM25.2809 65.084H23.7769V66.084H25.2809V65.084ZM23.2769 65.584V66.544H24.2769V65.584H23.2769ZM23.7769 67.044H25.2809V66.044H23.7769V67.044ZM24.7809 66.544V71.632H25.7809V66.544H24.7809ZM24.7809 71.632C24.7809 72.501 25.0288 73.2551 25.5653 73.7915C26.1019 74.3281 26.8601 74.58 27.7449 74.58V73.58C27.0457 73.58 26.5719 73.3839 26.2724 73.0844C25.9729 72.7849 25.7809 72.315 25.7809 71.632H24.7809ZM27.7449 74.58C28.4821 74.58 29.2873 74.3668 29.8539 73.861L29.1879 73.115C28.8584 73.4092 28.3197 73.58 27.7449 73.58V74.58ZM29.9698 73.2679L29.5698 72.4519L28.6719 72.8921L29.0719 73.7081L29.9698 73.2679ZM31.1089 66.656L30.7853 66.2748L30.4609 66.5502L30.6809 66.9144L31.1089 66.656ZM31.6209 67.504L31.1929 67.7624L31.5027 68.2757L31.952 67.8787L31.6209 67.504ZM36.8049 69.248V69.748H37.3049V69.248H36.8049ZM36.8529 72.688H37.3529V70.8635L36.4227 72.4331L36.8529 72.688ZM36.8529 74H36.3529V74.5H36.8529V74ZM37.9409 74V74.5H38.4409V74H37.9409ZM36.8049 70.096H37.3049V69.596H36.8049V70.096ZM36.8049 71.472L37.2682 71.66L37.3049 71.5696V71.472H36.8049ZM34.5329 65.02C33.1095 65.02 31.7398 65.4644 30.7853 66.2748L31.4325 67.0371C32.1739 66.4076 33.3003 66.02 34.5329 66.02V65.02ZM30.6809 66.9144L31.1929 67.7624L32.0489 67.2456L31.5369 66.3976L30.6809 66.9144ZM31.952 67.8787C32.54 67.359 33.4428 67.012 34.4209 67.012V66.012C33.2229 66.012 32.0778 66.433 31.2898 67.1293L31.952 67.8787ZM34.4209 67.012C35.1277 67.012 35.5821 67.1886 35.8584 67.4483C36.1296 67.7032 36.3049 68.1096 36.3049 68.736H37.3049C37.3049 67.9224 37.0722 67.2168 36.5433 66.7197C36.0196 66.2274 35.2821 66.012 34.4209 66.012V67.012ZM36.3049 68.736V69.248H37.3049V68.736H36.3049ZM36.8049 68.748H34.1329V69.748H36.8049V68.748ZM34.1329 68.748C32.8587 68.748 31.9126 69.0339 31.2788 69.5732C30.6327 70.1231 30.3849 70.873 30.3849 71.632H31.3849C31.3849 71.095 31.5531 70.6529 31.9269 70.3348C32.3132 70.0061 32.991 69.748 34.1329 69.748V68.748ZM30.3849 71.632C30.3849 72.5054 30.7408 73.262 31.3919 73.7903C32.0332 74.3106 32.9225 74.58 33.9569 74.58V73.58C33.0873 73.58 32.4406 73.3534 32.0219 73.0137C31.613 72.682 31.3849 72.2146 31.3849 71.632H30.3849ZM33.9569 74.58C35.4777 74.58 36.659 73.9959 37.283 72.9429L36.4227 72.4331C36.0227 73.1081 35.2201 73.58 33.9569 73.58V74.58ZM36.3529 72.688V74H37.3529V72.688H36.3529ZM36.8529 74.5H37.9409V73.5H36.8529V74.5ZM38.4409 74V68.784H37.4409V74H38.4409ZM38.4409 68.784C38.4409 67.6023 38.1041 66.6365 37.3949 65.9713C36.6913 65.3113 35.6979 65.02 34.5329 65.02V66.02C35.5439 66.02 36.2545 66.2727 36.7108 66.7007C37.1616 67.1235 37.4409 67.7897 37.4409 68.784H38.4409ZM34.1329 72.684C33.5283 72.684 33.115 72.5463 32.8656 72.3585C32.633 72.1834 32.5049 71.9384 32.5049 71.6H31.5049C31.5049 72.2375 31.7688 72.7846 32.2642 73.1575C32.7427 73.5177 33.3934 73.684 34.1329 73.684V72.684ZM32.5049 71.6C32.5049 71.2756 32.5986 71.0633 32.7847 70.9149C32.9934 70.7484 33.4001 70.596 34.1649 70.596V69.596C33.2977 69.596 32.6243 69.7636 32.1611 70.1331C31.6752 70.5207 31.5049 71.0604 31.5049 71.6H32.5049ZM34.1649 70.596H36.8049V69.596H34.1649V70.596ZM36.3049 70.096V71.472H37.3049V70.096H36.3049ZM36.3416 71.284C35.9767 72.1831 35.2275 72.684 34.1329 72.684V73.684C35.5983 73.684 36.7371 72.9689 37.2682 71.66L36.3416 71.284ZM47.7616 65.584V65.084H47.2616V65.584H47.7616ZM47.7616 67.2L47.3401 67.4688L48.2616 68.914V67.2H47.7616ZM47.7136 72.048H48.2136V70.3758L47.2957 71.7735L47.7136 72.048ZM41.2976 75.024L41.6321 74.6524L41.2023 74.2656L40.8816 74.7467L41.2976 75.024ZM40.7216 75.888L40.3056 75.6106L40.0717 75.9616L40.3781 76.2513L40.7216 75.888ZM48.8496 65.584H49.3496V65.084H48.8496V65.584ZM47.2616 65.584V67.2H48.2616V65.584H47.2616ZM48.1832 66.9312C47.3714 65.658 45.9803 65.02 44.4336 65.02V66.02C45.703 66.02 46.7439 66.534 47.3401 67.4688L48.1832 66.9312ZM44.4336 65.02C41.7848 65.02 39.7096 66.8653 39.7096 69.584H40.7096C40.7096 67.4707 42.2825 66.02 44.4336 66.02V65.02ZM39.7096 69.584C39.7096 72.2976 41.7794 74.18 44.4336 74.18V73.18C42.2878 73.18 40.7096 71.7024 40.7096 69.584H39.7096ZM44.4336 74.18C45.9468 74.18 47.3192 73.5595 48.1316 72.3225L47.2957 71.7735C46.7001 72.6805 45.6725 73.18 44.4336 73.18V74.18ZM47.2136 72.048V73.12H48.2136V72.048H47.2136ZM47.2136 73.12C47.2136 74.091 46.9854 74.6996 46.6082 75.0724C46.2298 75.4463 45.6074 75.676 44.6096 75.676V76.676C45.7399 76.676 46.6695 76.4177 47.3111 75.7836C47.9539 75.1484 48.2136 74.229 48.2136 73.12H47.2136ZM44.6096 75.676C43.415 75.676 42.3251 75.276 41.6321 74.6524L40.9632 75.3956C41.8702 76.212 43.2123 76.676 44.6096 76.676V75.676ZM40.8816 74.7467L40.3056 75.6106L41.1377 76.1654L41.7137 75.3014L40.8816 74.7467ZM40.3781 76.2513C41.382 77.2005 43.0282 77.684 44.6416 77.684V76.684C43.183 76.684 41.8212 76.2395 41.0651 75.5247L40.3781 76.2513ZM44.6416 77.684C46.1034 77.684 47.3061 77.34 48.1396 76.5231C48.975 75.7043 49.3496 74.4989 49.3496 72.976H48.3496C48.3496 74.3491 48.0122 75.2477 47.4396 75.8089C46.8652 76.372 45.9638 76.684 44.6416 76.684V77.684ZM49.3496 72.976V65.584H48.3496V72.976H49.3496ZM48.8496 65.084H47.7616V66.084H48.8496V65.084ZM44.5456 72.172C43.7329 72.172 43.0658 71.8968 42.6047 71.4521C42.1452 71.0089 41.8616 70.37 41.8616 69.584H40.8616C40.8616 70.622 41.242 71.5271 41.9105 72.1719C42.5775 72.8152 43.5024 73.172 44.5456 73.172V72.172ZM41.8616 69.584C41.8616 68.7983 42.145 68.1641 42.6034 67.7252C43.0638 67.2844 43.7311 67.012 44.5456 67.012V66.012C43.5042 66.012 42.5795 66.3636 41.9118 67.0028C41.2423 67.6439 40.8616 68.5457 40.8616 69.584H41.8616ZM44.5456 67.012C45.3605 67.012 46.0324 67.2846 46.4971 67.7264C46.9596 68.1661 47.2456 68.8002 47.2456 69.584H48.2456C48.2456 68.5438 47.8596 67.6419 47.1861 67.0016C46.5148 66.3634 45.5868 66.012 44.5456 66.012V67.012ZM47.2456 69.584C47.2456 70.3681 46.9594 71.0069 46.4958 71.4509C46.0304 71.8966 45.3587 72.172 44.5456 72.172V73.172C45.5886 73.172 46.5168 72.8154 47.1875 72.1731C47.8599 71.5291 48.2456 70.6239 48.2456 69.584H47.2456ZM53.1144 67.232H52.6144L53.5666 67.4452L53.1144 67.232ZM53.1144 65.584H53.6144V65.084H53.1144V65.584ZM52.0264 65.584V65.084H51.5264V65.584H52.0264ZM52.0264 74H51.5264V74.5H52.0264V74ZM53.1624 74V74.5H53.6624V74H53.1624ZM56.2664 66.624V67.124H56.7664V66.624H56.2664ZM56.2664 65.52H56.7664V65.02H56.2664V65.52ZM53.6144 67.232V65.584H52.6144V67.232H53.6144ZM53.1144 65.084H52.0264V66.084H53.1144V65.084ZM51.5264 65.584V74H52.5264V65.584H51.5264ZM52.0264 74.5H53.1624V73.5H52.0264V74.5ZM53.6624 74V69.712H52.6624V74H53.6624ZM53.6624 69.712C53.6624 68.8067 53.9062 68.1658 54.2856 67.7554C54.6602 67.3501 55.2235 67.108 55.9944 67.108V66.108C55.0052 66.108 54.1526 66.4259 53.5512 67.0766C52.9545 67.7222 52.6624 68.6333 52.6624 69.712H53.6624ZM55.9944 67.108C56.0079 67.108 56.0276 67.1095 56.0811 67.1141C56.1254 67.118 56.1938 67.124 56.2664 67.124V66.124C56.243 66.124 56.2154 66.122 56.1677 66.1179C56.1292 66.1145 56.0609 66.108 55.9944 66.108V67.108ZM56.7664 66.624V65.52H55.7664V66.624H56.7664ZM56.2664 65.02C54.5754 65.02 53.2936 65.6792 52.6621 67.0188L53.5666 67.4452C53.9911 66.5448 54.8534 66.02 56.2664 66.02V65.02ZM57.8276 66.656L57.504 66.2748L57.1797 66.5502L57.3996 66.9144L57.8276 66.656ZM58.3396 67.504L57.9116 67.7624L58.2215 68.2757L58.6707 67.8787L58.3396 67.504ZM63.5236 69.248V69.748H64.0236V69.248H63.5236ZM63.5716 72.688H64.0716V70.8635L63.1415 72.4331L63.5716 72.688ZM63.5716 74H63.0716V74.5H63.5716V74ZM64.6596 74V74.5H65.1596V74H64.6596ZM63.5236 70.096H64.0236V69.596H63.5236V70.096ZM63.5236 71.472L63.9869 71.66L64.0236 71.5696V71.472H63.5236ZM61.2516 65.02C59.8282 65.02 58.4586 65.4644 57.504 66.2748L58.1512 67.0371C58.8927 66.4076 60.0191 66.02 61.2516 66.02V65.02ZM57.3996 66.9144L57.9116 67.7624L58.7677 67.2456L58.2557 66.3976L57.3996 66.9144ZM58.6707 67.8787C59.2587 67.359 60.1616 67.012 61.1396 67.012V66.012C59.9417 66.012 58.7965 66.433 58.0085 67.1293L58.6707 67.8787ZM61.1396 67.012C61.8464 67.012 62.3009 67.1886 62.5772 67.4483C62.8483 67.7032 63.0236 68.1096 63.0236 68.736H64.0236C64.0236 67.9224 63.7909 67.2168 63.2621 66.7197C62.7384 66.2274 62.0008 66.012 61.1396 66.012V67.012ZM63.0236 68.736V69.248H64.0236V68.736H63.0236ZM63.5236 68.748H60.8516V69.748H63.5236V68.748ZM60.8516 68.748C59.5775 68.748 58.6313 69.0339 57.9976 69.5732C57.3514 70.1231 57.1036 70.873 57.1036 71.632H58.1036C58.1036 71.095 58.2718 70.6529 58.6457 70.3348C59.032 70.0061 59.7098 69.748 60.8516 69.748V68.748ZM57.1036 71.632C57.1036 72.5054 57.4595 73.262 58.1106 73.7903C58.7519 74.3106 59.6412 74.58 60.6756 74.58V73.58C59.806 73.58 59.1593 73.3534 58.7407 73.0137C58.3317 72.682 58.1036 72.2146 58.1036 71.632H57.1036ZM60.6756 74.58C62.1965 74.58 63.3778 73.9959 64.0018 72.9429L63.1415 72.4331C62.7415 73.1081 61.9388 73.58 60.6756 73.58V74.58ZM63.0716 72.688V74H64.0716V72.688H63.0716ZM63.5716 74.5H64.6596V73.5H63.5716V74.5ZM65.1596 74V68.784H64.1596V74H65.1596ZM65.1596 68.784C65.1596 67.6023 64.8229 66.6365 64.1137 65.9713C63.41 65.3113 62.4167 65.02 61.2516 65.02V66.02C62.2626 66.02 62.9733 66.2727 63.4296 66.7007C63.8804 67.1235 64.1596 67.7897 64.1596 68.784H65.1596ZM60.8516 72.684C60.2471 72.684 59.8338 72.5463 59.5843 72.3585C59.3517 72.1834 59.2236 71.9384 59.2236 71.6H58.2236C58.2236 72.2375 58.4876 72.7846 58.9829 73.1575C59.4615 73.5177 60.1122 73.684 60.8516 73.684V72.684ZM59.2236 71.6C59.2236 71.2756 59.3173 71.0633 59.5034 70.9149C59.7122 70.7484 60.1188 70.596 60.8836 70.596V69.596C60.0164 69.596 59.3431 69.7636 58.8799 70.1331C58.394 70.5207 58.2236 71.0604 58.2236 71.6H59.2236ZM60.8836 70.596H63.5236V69.596H60.8836V70.596ZM63.0236 70.096V71.472H64.0236V70.096H63.0236ZM63.0603 71.284C62.6955 72.1831 61.9462 72.684 60.8516 72.684V73.684C62.317 73.684 63.4558 72.9689 63.9869 71.66L63.0603 71.284ZM74.9131 67.296L74.4542 67.4945L74.8559 68.4234L75.3496 67.5399L74.9131 67.296ZM68.8331 67.12H68.3331V68.9587L69.2643 67.3732L68.8331 67.12ZM68.8331 65.584H69.3331V65.084H68.8331V65.584ZM67.7451 65.584V65.084H67.2451V65.584H67.7451ZM67.7451 74H67.2451V74.5H67.7451V74ZM68.8811 74V74.5H69.3811V74H68.8811ZM74.1291 74H73.6291V74.5H74.1291V74ZM75.2651 74V74.5H75.7651V74H75.2651ZM80.4971 74H79.9971V74.5H80.4971V74ZM81.6331 74V74.5H82.1331V74H81.6331ZM78.2411 65.02C76.5656 65.02 75.1848 65.7848 74.4767 67.0521L75.3496 67.5399C75.8574 66.6312 76.8767 66.02 78.2411 66.02V65.02ZM75.3721 67.0975C74.7641 65.6916 73.4665 65.02 71.9211 65.02V66.02C73.1598 66.02 74.0382 66.5324 74.4542 67.4945L75.3721 67.0975ZM71.9211 65.02C70.3648 65.02 69.0975 65.6825 68.402 66.8668L69.2643 67.3732C69.7527 66.5415 70.6615 66.02 71.9211 66.02V65.02ZM69.3331 67.12V65.584H68.3331V67.12H69.3331ZM68.8331 65.084H67.7451V66.084H68.8331V65.084ZM67.2451 65.584V74H68.2451V65.584H67.2451ZM67.7451 74.5H68.8811V73.5H67.7451V74.5ZM69.3811 74V69.584H68.3811V74H69.3811ZM69.3811 69.584C69.3811 68.7185 69.6287 68.0926 70.011 67.6869C70.3904 67.2843 70.9534 67.044 71.6971 67.044V66.044C70.7289 66.044 69.8839 66.3637 69.2832 67.0011C68.6856 67.6354 68.3811 68.5295 68.3811 69.584H69.3811ZM71.6971 67.044C72.3653 67.044 72.8245 67.2396 73.122 67.5614C73.4251 67.8893 73.6291 68.4224 73.6291 69.232H74.6291C74.6291 68.2656 74.3852 67.4547 73.8563 66.8826C73.3218 66.3044 72.565 66.044 71.6971 66.044V67.044ZM73.6291 69.232V74H74.6291V69.232H73.6291ZM74.1291 74.5H75.2651V73.5H74.1291V74.5ZM75.7651 74V69.584H74.7651V74H75.7651ZM75.7651 69.584C75.7651 68.7166 76.0098 68.091 76.3897 67.6862C76.7663 67.2849 77.3283 67.044 78.0811 67.044V66.044C77.1059 66.044 76.26 66.3631 75.6605 67.0018C75.0645 67.637 74.7651 68.5314 74.7651 69.584H75.7651ZM78.0811 67.044C78.7398 67.044 79.1951 67.2387 79.4912 67.5605C79.7931 67.8887 79.9971 68.4225 79.9971 69.232H80.9971C80.9971 68.2655 80.7532 67.4553 80.2271 66.8835C79.6952 66.3053 78.9425 66.044 78.0811 66.044V67.044ZM79.9971 69.232V74H80.9971V69.232H79.9971ZM80.4971 74.5H81.6331V73.5H80.4971V74.5ZM82.1331 74V69.12H81.1331V74H82.1331ZM82.1331 69.12C82.1331 67.8209 81.7703 66.7793 81.0605 66.0622C80.3506 65.3451 79.3601 65.02 78.2411 65.02V66.02C79.1702 66.02 79.8757 66.2869 80.3498 66.7658C80.824 67.2447 81.1331 68.0031 81.1331 69.12H82.1331Z" fill="white"/>
</svg>
