<svg width="118" height="18" viewBox="0 0 118 18" fill="none" xmlns="http://www.w3.org/2000/svg">
<path d="M6.425 4.1C6.425 1.775 6.575 1.575 7.7 1.4L8.35 1.3C8.55 1.15 8.55 0.575 8.35 0.424999C7.1 0.475 5.85 0.499999 4.65 0.499999C3.45 0.499999 2.2 0.475 0.9 0.424999C0.6 0.575 0.6 1.15 0.85 1.3L1.575 1.4C2.7 1.55 2.85 1.775 2.85 4.1V13.4C2.85 15.725 2.7 15.925 1.575 16.075L0.625 16.2C0.425 16.35 0.475 16.925 0.7 17.075C2.25 17.025 3.5 17 4.65 17H8C10.05 17 12.45 17.025 13.775 17.075C14.125 16.4 14.725 14.325 14.85 13.025C14.675 12.725 14.1 12.625 13.9 12.875C12.425 15.775 11.725 15.85 9.45 15.85C7.625 15.85 7.175 15.65 6.85 15.225C6.525 14.825 6.425 14.025 6.425 12.85V4.1ZM20.1957 10.35C20.1957 13.075 20.7457 14.925 22.0457 16C23.3957 17.1 25.0957 17.4 26.9957 17.4C29.0207 17.4 30.8457 16.775 31.9457 15.6C33.3207 14.075 33.5457 11.925 33.5457 9.575V6.775C33.5457 4.75 33.6457 2.85 33.9207 2.2C34.1457 1.675 34.6207 1.525 35.2707 1.375L35.7207 1.275C35.9207 1.075 35.8707 0.575 35.7207 0.424999C34.7707 0.475 33.8457 0.499999 32.9207 0.499999C31.8957 0.499999 30.9207 0.475 29.5707 0.424999C29.4207 0.575 29.3707 1.075 29.5707 1.275L30.2457 1.4C30.9207 1.525 31.4707 1.675 31.6957 2.2C31.9707 2.85 32.0707 4.75 32.0707 6.775V9.8C32.0707 13.225 31.0957 16.025 27.8957 16.025C24.0957 16.025 23.7707 12.8 23.7707 9.875V4.1C23.7707 1.775 23.9207 1.575 25.0457 1.375L25.6457 1.275C25.8457 1.125 25.8457 0.575 25.6457 0.424999C24.4457 0.475 23.2207 0.499999 21.9957 0.499999C20.7957 0.499999 19.5457 0.475 18.3457 0.424999C18.0707 0.575 18.0957 1.125 18.2957 1.275L18.9207 1.4C20.0457 1.625 20.1957 1.775 20.1957 4.1V10.35ZM39.4266 16.25C39.2016 16.4 39.2766 16.95 39.5266 17.075C40.2766 17.025 41.3266 17 42.1516 17C43.2016 17 44.3266 17.025 45.4266 17.075C45.7016 16.975 45.7266 16.375 45.5016 16.2L44.8516 16.125C44.3266 16.075 44.0516 15.95 44.0516 15.8C44.0516 15.65 44.1016 15.475 44.2766 15.125C45.1016 13.55 46.2766 11.65 47.2516 10.225C47.6266 10.7 49.5266 13.625 49.9016 14.3C50.5266 15.35 50.6266 15.575 50.6266 15.775C50.6266 15.925 50.3266 16.05 49.7016 16.125L49.0266 16.2C48.7766 16.325 48.8766 16.975 49.1016 17.075C50.4516 17.025 51.5766 17 53.3016 17C55.3266 17 56.1016 17.025 57.2016 17.075C57.4516 16.9 57.4516 16.375 57.2766 16.2L56.5016 16.1C55.5516 15.975 54.9266 15.625 54.0516 14.3C53.1516 12.95 51.9266 11.075 50.0516 8.175C49.8016 7.8 49.7016 7.525 49.7016 7.4C49.7016 7.275 49.9516 6.9 50.2016 6.55C51.3766 4.95 52.4766 3.3 53.6766 2.075C54.1266 1.625 54.5766 1.525 55.1016 1.45L56.1516 1.3C56.3266 1.075 56.3016 0.549999 56.0516 0.424999C55.2516 0.475 54.2266 0.499999 53.0266 0.499999C51.8516 0.499999 51.0516 0.475 50.2766 0.424999C50.0016 0.549999 50.0016 1.125 50.2016 1.3L51.2016 1.475C51.5266 1.525 51.7016 1.65 51.7016 1.725C51.7016 1.85 51.7016 2.025 51.4266 2.475C50.6516 3.8 49.8266 5.025 48.9016 6.425C48.1266 5.3 47.2266 3.925 46.5516 2.75C46.2516 2.225 46.1516 2 46.1516 1.775C46.1516 1.6 46.6016 1.475 47.0016 1.4L47.5516 1.3C47.7266 1.1 47.7266 0.549999 47.4516 0.424999C46.6766 0.475 45.6766 0.499999 43.6516 0.499999C42.1266 0.499999 40.5516 0.475 39.7516 0.424999C39.5016 0.575 39.5016 1.1 39.7266 1.3L40.1516 1.375C41.2766 1.575 41.8016 1.9 42.3766 2.725C43.5516 4.4 45.1266 6.875 45.9516 8.1C46.2766 8.55 46.4016 8.875 46.4016 8.975C46.4016 9.125 46.2766 9.425 46.0516 9.75C44.9766 11.35 43.6266 13.3 42.9016 14.25C42.0766 15.375 41.5016 15.975 40.0016 16.175L39.4266 16.25ZM62.8275 10.35C62.8275 13.075 63.3775 14.925 64.6775 16C66.0275 17.1 67.7275 17.4 69.6275 17.4C71.6525 17.4 73.4775 16.775 74.5775 15.6C75.9525 14.075 76.1775 11.925 76.1775 9.575V6.775C76.1775 4.75 76.2775 2.85 76.5525 2.2C76.7775 1.675 77.2525 1.525 77.9025 1.375L78.3525 1.275C78.5525 1.075 78.5025 0.575 78.3525 0.424999C77.4025 0.475 76.4775 0.499999 75.5525 0.499999C74.5275 0.499999 73.5525 0.475 72.2025 0.424999C72.0525 0.575 72.0025 1.075 72.2025 1.275L72.8775 1.4C73.5525 1.525 74.1025 1.675 74.3275 2.2C74.6025 2.85 74.7025 4.75 74.7025 6.775V9.8C74.7025 13.225 73.7275 16.025 70.5275 16.025C66.7275 16.025 66.4025 12.8 66.4025 9.875V4.1C66.4025 1.775 66.5525 1.575 67.6775 1.375L68.2775 1.275C68.4775 1.125 68.4775 0.575 68.2775 0.424999C67.0775 0.475 65.8525 0.499999 64.6275 0.499999C63.4275 0.499999 62.1775 0.475 60.9775 0.424999C60.7025 0.575 60.7275 1.125 60.9275 1.275L61.5525 1.4C62.6775 1.625 62.8275 1.775 62.8275 4.1V10.35ZM85.2084 13.4C85.2084 15.7 85.0584 15.875 83.9334 16.075L83.2584 16.2C83.0584 16.325 83.0584 16.925 83.2584 17.075C84.5584 17.025 85.6584 17 86.9084 17C88.1084 17 89.2584 17.025 90.5834 17.075C90.7584 16.925 90.7584 16.325 90.5834 16.2L89.9084 16.075C88.7834 15.875 88.6334 15.7 88.6334 13.4V10.325C88.6334 9.825 88.6834 9.775 89.5584 9.775C90.1834 9.775 90.5834 9.975 90.8834 10.65C91.4584 11.975 92.0334 13.2 92.8334 14.525C93.9334 16.325 95.3834 17.15 97.6834 17.15C98.4584 17.15 99.2584 17.1 99.6584 16.925C99.7834 16.775 99.7834 16.4 99.5584 16.275C99.1834 16.25 98.5334 16.1 97.8834 15.575C96.6834 14.55 95.6584 12.675 94.0084 9.325C93.8834 9.05 93.8834 8.9 94.1334 8.775C95.2834 8.2 96.7834 7.25 96.7834 5.025C96.7834 3.425 96.0334 2.175 94.5834 1.325C93.6334 0.749999 91.8084 0.424999 89.6834 0.424999C87.3084 0.424999 85.3584 0.524999 83.4834 0.649999C83.1834 0.774999 83.1834 1.4 83.4334 1.525L84.1084 1.625C85.1584 1.775 85.2084 2.05 85.2084 4.55V13.4ZM88.6334 2.85C88.6334 1.65 88.6834 1.575 89.7084 1.575C91.6584 1.575 92.9834 3.025 92.9834 5.275C92.9834 6.75 92.5084 7.55 92.0834 7.975C91.6084 8.45 91.0834 8.675 90.1834 8.675C88.7084 8.675 88.6334 8.6 88.6334 7.725V2.85ZM110.933 11.65C110.933 10.225 111.108 9.6 111.758 8.425L113.333 5.575C114.533 3.4 115.133 2.5 115.508 2.025C115.783 1.675 116.358 1.5 116.808 1.425L117.458 1.3C117.658 1.125 117.658 0.524999 117.358 0.424999C116.633 0.475 115.858 0.499999 114.908 0.499999C114.008 0.499999 113.108 0.475 112.108 0.424999C111.858 0.549999 111.883 1.175 112.083 1.3L112.558 1.4C113.158 1.5 113.558 1.65 113.558 1.8C113.558 2.1 113.258 2.85 112.358 4.625C111.708 5.9 110.933 7.525 110.208 8.75C109.908 8.125 109.333 6.975 108.958 6.15L107.783 3.475C107.258 2.3 107.133 1.925 107.133 1.725C107.133 1.7 107.283 1.6 107.733 1.5L108.583 1.3C108.808 1.1 108.758 0.524999 108.533 0.424999C107.683 0.475 106.408 0.499999 104.883 0.499999C103.408 0.499999 102.483 0.475 101.358 0.424999C101.058 0.499999 101.033 1.1 101.258 1.3L102.108 1.45C102.983 1.6 103.208 2 103.708 3.025L106.683 9.175C107.333 10.5 107.358 10.9 107.358 12.15V13.4C107.358 15.725 107.208 15.9 106.083 16.075L105.233 16.2C105.033 16.35 105.033 16.925 105.233 17.075C106.708 17.025 107.958 17 109.158 17C110.358 17 111.583 17.025 113.208 17.075C113.383 16.925 113.383 16.35 113.208 16.2L112.208 16.075C111.083 15.925 110.933 15.725 110.933 13.4V11.65Z" fill="white"/>
</svg>
