<svg width="19" height="16" viewBox="0 0 19 16" fill="none" xmlns="http://www.w3.org/2000/svg">
<path fill-rule="evenodd" clip-rule="evenodd" d="M5.93158 15.8081C7.36514 15.8211 8.78692 15.5483 10.1139 15.0056C11.4408 14.463 12.6464 13.6614 13.6601 12.6477C14.6738 11.6339 15.4754 10.4284 16.0181 9.10144C16.5607 7.77448 16.8335 6.3527 16.8206 4.91914V4.40014C17.5452 3.84862 18.1757 3.18333 18.6876 2.43014C17.9921 2.73249 17.2598 2.94163 16.5096 3.05214C17.2808 2.56782 17.8655 1.83687 18.1686 0.978135C17.4193 1.39523 16.617 1.70907 15.7836 1.91114C15.4328 1.51583 15.0014 1.20027 14.5184 0.98569C14.0354 0.771108 13.5121 0.662486 12.9836 0.667135C11.971 0.683364 11.0044 1.09283 10.2884 1.80892C9.57227 2.52501 9.1628 3.49156 9.14658 4.50414C9.12173 4.78475 9.15579 5.06746 9.24658 5.33414C7.72067 5.26042 6.22813 4.86148 4.86894 4.16404C3.50975 3.46659 2.31529 2.48675 1.36558 1.29014C1.02421 1.8905 0.845324 2.56951 0.846577 3.26014C0.860265 3.88693 1.01682 4.50233 1.30431 5.05947C1.59181 5.61661 2.00266 6.10079 2.50558 6.47514C1.88217 6.46227 1.27352 6.28309 0.742577 5.95614C0.741565 6.84427 1.05249 7.70456 1.62108 8.38683C2.18967 9.0691 2.97981 9.53002 3.85358 9.68914C3.51569 9.77889 3.16539 9.81267 2.81658 9.78913C2.57025 9.80696 2.32291 9.7729 2.09058 9.68914C2.34362 10.4584 2.82819 11.1307 3.47797 11.614C4.12776 12.0973 4.91103 12.3681 5.72058 12.3891C4.35745 13.4538 2.68017 14.0372 0.950577 14.0481C0.636197 14.0662 0.320989 14.0324 0.0175781 13.9481C1.73361 15.1944 3.80801 15.8496 5.92858 15.8151" fill="white"/>
</svg>
