<svg width="220" height="13" viewBox="0 0 220 13" fill="none" xmlns="http://www.w3.org/2000/svg">
<path d="M4.912 12.096C7.776 12.096 9.088 10.688 9.088 9.04C9.088 4.96 2.192 6.816 2.192 3.744C2.192 2.624 3.104 1.712 5.152 1.712C6.144 1.712 7.264 2.016 8.224 2.64L8.624 1.696C7.728 1.072 6.416 0.704 5.152 0.704C2.304 0.704 1.024 2.128 1.024 3.776C1.024 7.92 7.92 6.032 7.92 9.104C7.92 10.208 7.008 11.088 4.912 11.088C3.44 11.088 2.016 10.512 1.216 9.728L0.752 10.64C1.584 11.504 3.232 12.096 4.912 12.096ZM17.8758 3.584V8C17.8758 9.92 16.7718 11.056 15.0118 11.056C13.4118 11.056 12.4838 10.144 12.4838 8.352V3.584H11.3478V8.464C11.3478 10.88 12.7558 12.08 14.8998 12.08C16.2438 12.08 17.3318 11.488 17.9237 10.464V12H19.0118V3.584H17.8758ZM26.5294 3.52C25.1854 3.52 24.0334 4.096 23.3294 5.184V0.127999H22.1934V12H23.2814V10.336C23.9694 11.472 25.1374 12.08 26.5294 12.08C28.9294 12.08 30.7214 10.336 30.7214 7.792C30.7214 5.248 28.9294 3.52 26.5294 3.52ZM26.4494 11.072C24.6574 11.072 23.3134 9.76 23.3134 7.792C23.3134 5.824 24.6574 4.512 26.4494 4.512C28.2254 4.512 29.5854 5.824 29.5854 7.792C29.5854 9.76 28.2254 11.072 26.4494 11.072ZM35.2931 12.08C37.4851 12.08 38.7651 11.136 38.7651 9.68C38.7651 6.448 33.3091 8.16 33.3091 5.888C33.3091 5.088 33.9811 4.496 35.5011 4.496C36.3651 4.496 37.2451 4.704 37.9811 5.216L38.4771 4.304C37.7731 3.824 36.5891 3.52 35.5011 3.52C33.3571 3.52 32.1731 4.544 32.1731 5.92C32.1731 9.248 37.6291 7.52 37.6291 9.712C37.6291 10.544 36.9731 11.088 35.3731 11.088C34.1891 11.088 33.0531 10.672 32.3811 10.144L31.8691 11.04C32.5571 11.632 33.9011 12.08 35.2931 12.08ZM44.3533 12.08C45.7773 12.08 46.9773 11.504 47.6493 10.416L46.8013 9.84C46.2253 10.688 45.3293 11.072 44.3533 11.072C42.5133 11.072 41.1693 9.776 41.1693 7.792C41.1693 5.824 42.5133 4.512 44.3533 4.512C45.3293 4.512 46.2253 4.912 46.8013 5.76L47.6493 5.184C46.9773 4.08 45.7773 3.52 44.3533 3.52C41.8413 3.52 40.0173 5.28 40.0173 7.792C40.0173 10.304 41.8413 12.08 44.3533 12.08ZM50.9689 5.232V3.584H49.8809V12H51.0169V7.712C51.0169 5.728 52.0889 4.608 53.8489 4.608C53.9289 4.608 54.0249 4.624 54.1209 4.624V3.52C52.5689 3.52 51.4969 4.112 50.9689 5.232ZM56.7538 1.744C57.2338 1.744 57.5858 1.376 57.5858 0.912C57.5858 0.48 57.2178 0.127999 56.7538 0.127999C56.2898 0.127999 55.9218 0.495999 55.9218 0.927999C55.9218 1.376 56.2898 1.744 56.7538 1.744ZM56.1778 12H57.3138V3.584H56.1778V12ZM64.8106 3.52C63.4666 3.52 62.3146 4.096 61.6106 5.184V0.127999H60.4746V12H61.5626V10.336C62.2506 11.472 63.4186 12.08 64.8106 12.08C67.2106 12.08 69.0026 10.336 69.0026 7.792C69.0026 5.248 67.2106 3.52 64.8106 3.52ZM64.7306 11.072C62.9386 11.072 61.5946 9.76 61.5946 7.792C61.5946 5.824 62.9386 4.512 64.7306 4.512C66.5066 4.512 67.8666 5.824 67.8666 7.792C67.8666 9.76 66.5066 11.072 64.7306 11.072ZM78.6624 7.792C78.6624 5.264 76.9504 3.52 74.5824 3.52C72.2144 3.52 70.4704 5.296 70.4704 7.792C70.4704 10.288 72.2624 12.08 74.8864 12.08C76.2144 12.08 77.3824 11.6 78.1344 10.704L77.4944 9.968C76.8544 10.704 75.9424 11.072 74.9184 11.072C73.0784 11.072 71.7344 9.904 71.6064 8.144H78.6464C78.6464 8.016 78.6624 7.888 78.6624 7.792ZM74.5824 4.496C76.2304 4.496 77.4304 5.648 77.5744 7.296H71.6064C71.7504 5.648 72.9504 4.496 74.5824 4.496ZM89.1941 10.672C88.8741 10.96 88.4101 11.104 87.9461 11.104C87.0021 11.104 86.4901 10.56 86.4901 9.568V4.544H89.0501V3.584H86.4901V1.744H85.3541V3.584H83.8501V4.544H85.3541V9.632C85.3541 11.184 86.2341 12.08 87.8181 12.08C88.4741 12.08 89.1461 11.888 89.5941 11.488L89.1941 10.672ZM94.8053 12.08C97.2693 12.08 99.0773 10.288 99.0773 7.792C99.0773 5.296 97.2693 3.52 94.8053 3.52C92.3413 3.52 90.5173 5.296 90.5173 7.792C90.5173 10.288 92.3413 12.08 94.8053 12.08ZM94.8053 11.072C93.0133 11.072 91.6693 9.76 91.6693 7.792C91.6693 5.824 93.0133 4.512 94.8053 4.512C96.5973 4.512 97.9253 5.824 97.9253 7.792C97.9253 9.76 96.5973 11.072 94.8053 11.072ZM109.024 12.08C111.488 12.08 113.296 10.288 113.296 7.792C113.296 5.296 111.488 3.52 109.024 3.52C106.56 3.52 104.736 5.296 104.736 7.792C104.736 10.288 106.56 12.08 109.024 12.08ZM109.024 11.072C107.232 11.072 105.888 9.76 105.888 7.792C105.888 5.824 107.232 4.512 109.024 4.512C110.816 4.512 112.144 5.824 112.144 7.792C112.144 9.76 110.816 11.072 109.024 11.072ZM122.063 3.584V8C122.063 9.92 120.959 11.056 119.199 11.056C117.599 11.056 116.671 10.144 116.671 8.352V3.584H115.535V8.464C115.535 10.88 116.943 12.08 119.087 12.08C120.431 12.08 121.519 11.488 122.111 10.464V12H123.199V3.584H122.063ZM127.469 5.232V3.584H126.381V12H127.517V7.712C127.517 5.728 128.589 4.608 130.349 4.608C130.429 4.608 130.525 4.624 130.621 4.624V3.52C129.069 3.52 127.997 4.112 127.469 5.232ZM141.278 3.52C139.822 3.52 138.686 4.112 138.078 5.136V3.584H136.99V12H138.126V7.584C138.126 5.664 139.262 4.544 141.07 4.544C142.67 4.544 143.598 5.456 143.598 7.232V12H144.734V7.12C144.734 4.704 143.326 3.52 141.278 3.52ZM155.194 7.792C155.194 5.264 153.482 3.52 151.114 3.52C148.746 3.52 147.002 5.296 147.002 7.792C147.002 10.288 148.794 12.08 151.418 12.08C152.746 12.08 153.914 11.6 154.666 10.704L154.026 9.968C153.386 10.704 152.474 11.072 151.45 11.072C149.61 11.072 148.266 9.904 148.138 8.144H155.178C155.178 8.016 155.194 7.888 155.194 7.792ZM151.114 4.496C152.762 4.496 153.962 5.648 154.106 7.296H148.138C148.282 5.648 149.482 4.496 151.114 4.496ZM168.662 3.584L165.99 10.736L163.302 3.584H162.326L159.622 10.736L156.982 3.584H155.894L159.062 12H160.134L162.79 5.104L165.446 12H166.518L169.702 3.584H168.662ZM173.574 12.08C175.766 12.08 177.046 11.136 177.046 9.68C177.046 6.448 171.59 8.16 171.59 5.888C171.59 5.088 172.262 4.496 173.782 4.496C174.646 4.496 175.526 4.704 176.262 5.216L176.758 4.304C176.054 3.824 174.87 3.52 173.782 3.52C171.638 3.52 170.454 4.544 170.454 5.92C170.454 9.248 175.91 7.52 175.91 9.712C175.91 10.544 175.254 11.088 173.654 11.088C172.47 11.088 171.334 10.672 170.662 10.144L170.15 11.04C170.838 11.632 172.182 12.08 173.574 12.08ZM179.147 12H180.283V0.127999H179.147V12ZM190.787 7.792C190.787 5.264 189.075 3.52 186.707 3.52C184.339 3.52 182.595 5.296 182.595 7.792C182.595 10.288 184.387 12.08 187.011 12.08C188.339 12.08 189.507 11.6 190.259 10.704L189.619 9.968C188.979 10.704 188.067 11.072 187.043 11.072C185.203 11.072 183.859 9.904 183.731 8.144H190.771C190.771 8.016 190.787 7.888 190.787 7.792ZM186.707 4.496C188.355 4.496 189.555 5.648 189.699 7.296H183.731C183.875 5.648 185.075 4.496 186.707 4.496ZM197.132 10.672C196.812 10.96 196.348 11.104 195.884 11.104C194.94 11.104 194.428 10.56 194.428 9.568V4.544H196.988V3.584H194.428V1.744H193.292V3.584H191.788V4.544H193.292V9.632C193.292 11.184 194.172 12.08 195.756 12.08C196.412 12.08 197.084 11.888 197.532 11.488L197.132 10.672ZM203.413 10.672C203.093 10.96 202.629 11.104 202.165 11.104C201.221 11.104 200.709 10.56 200.709 9.568V4.544H203.269V3.584H200.709V1.744H199.573V3.584H198.069V4.544H199.573V9.632C199.573 11.184 200.453 12.08 202.037 12.08C202.693 12.08 203.365 11.888 203.813 11.488L203.413 10.672ZM212.928 7.792C212.928 5.264 211.216 3.52 208.848 3.52C206.48 3.52 204.736 5.296 204.736 7.792C204.736 10.288 206.528 12.08 209.152 12.08C210.48 12.08 211.648 11.6 212.4 10.704L211.76 9.968C211.12 10.704 210.208 11.072 209.184 11.072C207.344 11.072 206 9.904 205.872 8.144H212.912C212.912 8.016 212.928 7.888 212.928 7.792ZM208.848 4.496C210.496 4.496 211.696 5.648 211.84 7.296H205.872C206.016 5.648 207.216 4.496 208.848 4.496ZM216.328 5.232V3.584H215.24V12H216.376V7.712C216.376 5.728 217.448 4.608 219.208 4.608C219.288 4.608 219.384 4.624 219.48 4.624V3.52C217.928 3.52 216.856 4.112 216.328 5.232Z" fill="white"/>
<path d="M8.224 2.64L7.95151 3.05922L8.45165 3.38431L8.68438 2.83507L8.224 2.64ZM8.624 1.696L9.08438 1.89107L9.24265 1.51754L8.90975 1.2857L8.624 1.696ZM1.216 9.728L1.56596 9.37089L1.07933 8.89399L0.770361 9.50127L1.216 9.728ZM0.752 10.64L0.306361 10.4133L0.144981 10.7305L0.39184 10.9868L0.752 10.64ZM4.912 12.596C6.42114 12.596 7.58888 12.2251 8.38951 11.5739C9.19895 10.9155 9.588 10.0056 9.588 9.04H8.588C8.588 9.7224 8.32105 10.3405 7.75849 10.7981C7.18712 11.2629 6.26686 11.596 4.912 11.596V12.596ZM9.588 9.04C9.588 7.84353 9.06598 7.04605 8.29518 6.51221C7.56375 6.00564 6.61591 5.74209 5.761 5.52886C4.86256 5.30477 4.07585 5.13656 3.49228 4.84612C3.21089 4.70608 3.01436 4.55415 2.8882 4.38607C2.76841 4.22647 2.692 4.02624 2.692 3.744H1.692C1.692 4.22976 1.83109 4.64353 2.08843 4.98637C2.33939 5.32072 2.68161 5.55967 3.04672 5.74138C3.75615 6.09444 4.69344 6.29323 5.519 6.49914C6.38809 6.71591 7.16425 6.94536 7.72582 7.33429C8.24802 7.69595 8.588 8.19647 8.588 9.04H9.588ZM2.692 3.744C2.692 3.33273 2.85283 2.97502 3.20663 2.70602C3.57489 2.42601 4.1947 2.212 5.152 2.212V1.212C4.0613 1.212 3.20111 1.45399 2.60138 1.90998C1.98717 2.37698 1.692 3.03527 1.692 3.744H2.692ZM5.152 2.212C6.0489 2.212 7.07397 2.48882 7.95151 3.05922L8.49649 2.22078C7.45403 1.54318 6.2391 1.212 5.152 1.212V2.212ZM8.68438 2.83507L9.08438 1.89107L8.16362 1.50092L7.76362 2.44492L8.68438 2.83507ZM8.90975 1.2857C7.91499 0.592917 6.49836 0.204 5.152 0.204V1.204C6.33364 1.204 7.54101 1.55108 8.33825 2.1063L8.90975 1.2857ZM5.152 0.204C3.64901 0.204 2.49145 0.579834 1.70036 1.23752C0.901491 1.90166 0.524 2.81497 0.524 3.776H1.524C1.524 3.08903 1.78651 2.46634 2.33964 2.00648C2.90055 1.54016 3.80699 1.204 5.152 1.204V0.204ZM0.524 3.776C0.524 4.98502 1.04287 5.7926 1.81426 6.33401C2.54649 6.84793 3.49526 7.1137 4.351 7.32714C5.2506 7.55152 6.03682 7.71758 6.62084 8.00643C6.90223 8.1456 7.0984 8.29661 7.22423 8.46376C7.34362 8.62233 7.42 8.82178 7.42 9.104H8.42C8.42 8.61822 8.28088 8.20467 8.02314 7.86231C7.77185 7.52851 7.42927 7.29065 7.06416 7.11007C6.35518 6.75941 5.4174 6.56248 4.593 6.35686C3.72474 6.1403 2.94951 5.90907 2.38874 5.51549C1.86714 5.1494 1.524 4.63898 1.524 3.776H0.524ZM7.42 9.104C7.42 9.50272 7.26317 9.84608 6.90703 10.1063C6.533 10.3795 5.899 10.588 4.912 10.588V11.588C6.021 11.588 6.891 11.3565 7.49697 10.9137C8.12083 10.4579 8.42 9.80928 8.42 9.104H7.42ZM4.912 10.588C3.55143 10.588 2.25949 10.0505 1.56596 9.37089L0.866036 10.0851C1.77251 10.9735 3.32857 11.588 4.912 11.588V10.588ZM0.770361 9.50127L0.306361 10.4133L1.19764 10.8667L1.66164 9.95473L0.770361 9.50127ZM0.39184 10.9868C1.34744 11.9792 3.14522 12.596 4.912 12.596V11.596C3.31878 11.596 1.82056 11.0288 1.11216 10.2932L0.39184 10.9868ZM17.8758 3.584V3.084H17.3758V3.584H17.8758ZM12.4838 3.584H12.9838V3.084H12.4838V3.584ZM11.3477 3.584V3.084H10.8477V3.584H11.3477ZM17.9237 10.464H18.4237V8.60014L17.4909 10.2137L17.9237 10.464ZM17.9237 12H17.4237V12.5H17.9237V12ZM19.0117 12V12.5H19.5117V12H19.0117ZM19.0117 3.584H19.5117V3.084H19.0117V3.584ZM17.3758 3.584V8H18.3758V3.584H17.3758ZM17.3758 8C17.3758 8.86556 17.1282 9.49486 16.7406 9.90428C16.3561 10.3106 15.7812 10.556 15.0118 10.556V11.556C16.0023 11.556 16.8594 11.2334 17.4669 10.5917C18.0713 9.95314 18.3758 9.05444 18.3758 8H17.3758ZM15.0118 10.556C14.3058 10.556 13.8211 10.3568 13.5092 10.0305C13.1941 9.7008 12.9838 9.1664 12.9838 8.352H11.9838C11.9838 9.3296 12.2374 10.1472 12.7863 10.7215C13.3384 11.2992 14.1177 11.556 15.0118 11.556V10.556ZM12.9838 8.352V3.584H11.9838V8.352H12.9838ZM12.4838 3.084H11.3477V4.084H12.4838V3.084ZM10.8477 3.584V8.464H11.8477V3.584H10.8477ZM10.8477 8.464C10.8477 9.76945 11.2304 10.8172 11.9714 11.5367C12.7097 12.2536 13.7372 12.58 14.8997 12.58V11.58C13.9183 11.58 13.1698 11.3064 12.6681 10.8193C12.1691 10.3348 11.8477 9.57455 11.8477 8.464H10.8477ZM14.8997 12.58C16.3982 12.58 17.6638 11.9126 18.3566 10.7143L17.4909 10.2137C16.9997 11.0634 16.0893 11.58 14.8997 11.58V12.58ZM17.4237 10.464V12H18.4237V10.464H17.4237ZM17.9237 12.5H19.0117V11.5H17.9237V12.5ZM19.5117 12V3.584H18.5117V12H19.5117ZM19.0117 3.084H17.8758V4.084H19.0117V3.084ZM23.3294 5.184H22.8294V6.87711L23.7492 5.45563L23.3294 5.184ZM23.3294 0.127999H23.8294V-0.372001H23.3294V0.127999ZM22.1934 0.127999V-0.372001H21.6934V0.127999H22.1934ZM22.1934 12H21.6934V12.5H22.1934V12ZM23.2814 12V12.5H23.7814V12H23.2814ZM23.2814 10.336L23.7091 10.077L22.7814 8.54523V10.336H23.2814ZM26.5294 3.02C25.0335 3.02 23.715 3.66769 22.9096 4.91237L23.7492 5.45563C24.3518 4.52431 25.3372 4.02 26.5294 4.02V3.02ZM23.8294 5.184V0.127999H22.8294V5.184H23.8294ZM23.3294 -0.372001H22.1934V0.627999H23.3294V-0.372001ZM21.6934 0.127999V12H22.6934V0.127999H21.6934ZM22.1934 12.5H23.2814V11.5H22.1934V12.5ZM23.7814 12V10.336H22.7814V12H23.7814ZM22.8537 10.595C23.6415 11.8958 24.981 12.58 26.5294 12.58V11.58C25.2937 11.58 24.2972 11.0482 23.7091 10.077L22.8537 10.595ZM26.5294 12.58C29.2093 12.58 31.2214 10.6084 31.2214 7.792H30.2214C30.2214 10.0636 28.6495 11.58 26.5294 11.58V12.58ZM31.2214 7.792C31.2214 4.97312 29.2068 3.02 26.5294 3.02V4.02C28.652 4.02 30.2214 5.52288 30.2214 7.792H31.2214ZM26.4494 10.572C25.6789 10.572 25.0269 10.292 24.5673 9.82084C24.1076 9.34969 23.8134 8.65938 23.8134 7.792H22.8134C22.8134 8.89262 23.1911 9.84231 23.8515 10.5192C24.5118 11.196 25.4279 11.572 26.4494 11.572V10.572ZM23.8134 7.792C23.8134 6.92462 24.1076 6.23431 24.5673 5.76316C25.0269 5.29202 25.6789 5.012 26.4494 5.012V4.012C25.4279 4.012 24.5118 4.38798 23.8515 5.06484C23.1911 5.74169 22.8134 6.69138 22.8134 7.792H23.8134ZM26.4494 5.012C27.9393 5.012 29.0854 6.09013 29.0854 7.792H30.0854C30.0854 5.55787 28.5114 4.012 26.4494 4.012V5.012ZM29.0854 7.792C29.0854 9.49387 27.9393 10.572 26.4494 10.572V11.572C28.5114 11.572 30.0854 10.0261 30.0854 7.792H29.0854ZM37.9811 5.216L37.6956 5.62645L38.1537 5.94516L38.4204 5.45489L37.9811 5.216ZM38.4771 4.304L38.9164 4.54288L39.1324 4.14563L38.7588 3.89089L38.4771 4.304ZM32.3811 10.144L32.69 9.75084L32.2345 9.39289L31.947 9.89593L32.3811 10.144ZM31.8691 11.04L31.435 10.7919L31.2304 11.15L31.543 11.419L31.8691 11.04ZM35.2931 12.58C36.4524 12.58 37.4331 12.3315 38.1389 11.8349C38.8626 11.3256 39.2651 10.5748 39.2651 9.68H38.2651C38.2651 10.2412 38.0277 10.6904 37.5634 11.0171C37.0811 11.3565 36.3258 11.58 35.2931 11.58V12.58ZM39.2651 9.68C39.2651 8.69423 38.8311 8.0404 38.1834 7.62316C37.5802 7.23462 36.8073 7.0618 36.1307 6.93284C35.4073 6.79494 34.8018 6.70639 34.3511 6.52181C34.1363 6.43381 34.0037 6.34079 33.9258 6.24838C33.8574 6.16724 33.8091 6.0616 33.8091 5.888H32.8091C32.8091 6.2824 32.9313 6.62026 33.1613 6.89299C33.3818 7.15446 33.6755 7.32569 33.9721 7.44719C34.5444 7.68161 35.303 7.79306 35.9435 7.91516C36.631 8.0462 37.222 8.19338 37.6419 8.46384C38.0172 8.7056 38.2651 9.04977 38.2651 9.68H39.2651ZM33.8091 5.888C33.8091 5.64761 33.9003 5.45513 34.1199 5.30301C34.3622 5.13515 34.7953 4.996 35.5011 4.996V3.996C34.6869 3.996 34.0241 4.15285 33.5504 4.48099C33.054 4.82487 32.8091 5.32839 32.8091 5.888H33.8091ZM35.5011 4.996C36.2884 4.996 37.0621 5.18573 37.6956 5.62645L38.2667 4.80555C37.4282 4.22227 36.4418 3.996 35.5011 3.996V4.996ZM38.4204 5.45489L38.9164 4.54288L38.0379 4.06511L37.5419 4.97711L38.4204 5.45489ZM38.7588 3.89089C37.9485 3.33843 36.6572 3.02 35.5011 3.02V4.02C36.521 4.02 37.5977 4.30957 38.1955 4.71711L38.7588 3.89089ZM35.5011 3.02C34.3554 3.02 33.4063 3.29311 32.7309 3.8057C32.0436 4.32728 31.6731 5.07403 31.6731 5.92H32.6731C32.6731 5.38997 32.8947 4.93672 33.3354 4.6023C33.7879 4.25889 34.5029 4.02 35.5011 4.02V3.02ZM31.6731 5.92C31.6731 6.92264 32.1006 7.59345 32.7487 8.02456C33.3537 8.42701 34.1286 8.60474 34.8082 8.73329C35.5357 8.87089 36.141 8.95262 36.5959 9.12896C36.8129 9.21304 36.9442 9.30143 37.0198 9.38708C37.0842 9.46007 37.1291 9.55345 37.1291 9.712H38.1291C38.1291 9.32255 38.0035 8.99043 37.7696 8.72536C37.5468 8.47295 37.2519 8.31071 36.9573 8.19654C36.3893 7.97638 35.6306 7.87111 34.9941 7.75071C34.3097 7.62126 33.7205 7.46999 33.3026 7.19194C32.9276 6.94255 32.6731 6.58136 32.6731 5.92H31.6731ZM37.1291 9.712C37.1291 9.97414 37.0381 10.1547 36.8259 10.2946C36.5802 10.4565 36.1311 10.588 35.3731 10.588V11.588C36.2152 11.588 36.894 11.4475 37.3764 11.1294C37.8921 10.7893 38.1291 10.2819 38.1291 9.712H37.1291ZM35.3731 10.588C34.2905 10.588 33.2659 10.2033 32.69 9.75084L32.0722 10.5372C32.8403 11.1407 34.0877 11.588 35.3731 11.588V10.588ZM31.947 9.89593L31.435 10.7919L32.3032 11.2881L32.8152 10.3921L31.947 9.89593ZM31.543 11.419C32.3481 12.1118 33.8216 12.58 35.2931 12.58V11.58C33.9806 11.58 32.7661 11.1522 32.1952 10.661L31.543 11.419ZM47.6493 10.416L48.0746 10.6787L48.3262 10.2714L47.9302 10.0024L47.6493 10.416ZM46.8013 9.84L47.0822 9.42639L46.6686 9.14545L46.3876 9.55906L46.8013 9.84ZM46.8013 5.76L46.3876 6.04094L46.6686 6.45455L47.0822 6.17361L46.8013 5.76ZM47.6493 5.184L47.9302 5.59761L48.3237 5.33034L48.0764 4.92403L47.6493 5.184ZM44.3532 12.58C45.9136 12.58 47.2937 11.9432 48.0746 10.6787L47.2239 10.1533C46.6608 11.0648 45.6409 11.58 44.3532 11.58V12.58ZM47.9302 10.0024L47.0822 9.42639L46.5203 10.2536L47.3683 10.8296L47.9302 10.0024ZM46.3876 9.55906C45.9198 10.2478 45.1924 10.572 44.3532 10.572V11.572C45.4661 11.572 46.5307 11.1282 47.2149 10.1209L46.3876 9.55906ZM44.3532 10.572C43.5535 10.572 42.8898 10.2924 42.4267 9.82432C41.9638 9.35658 41.6693 8.66809 41.6693 7.792H40.6693C40.6693 8.89991 41.0467 9.85142 41.7158 10.5277C42.3847 11.2036 43.313 11.572 44.3532 11.572V10.572ZM41.6693 7.792C41.6693 6.92475 41.9633 6.23557 42.4273 5.76506C42.8913 5.29445 43.5553 5.012 44.3532 5.012V4.012C43.3112 4.012 42.3832 4.38555 41.7152 5.06294C41.0472 5.74043 40.6693 6.69125 40.6693 7.792H41.6693ZM44.3532 5.012C45.1862 5.012 45.9167 5.34767 46.3876 6.04094L47.2149 5.47906C46.5338 4.47633 45.4723 4.012 44.3532 4.012V5.012ZM47.0822 6.17361L47.9302 5.59761L47.3683 4.77039L46.5203 5.34639L47.0822 6.17361ZM48.0764 4.92403C47.2937 3.63821 45.9096 3.02 44.3532 3.02V4.02C45.6449 4.02 46.6608 4.52179 47.2221 5.44397L48.0764 4.92403ZM44.3532 3.02C41.5751 3.02 39.5173 4.99401 39.5173 7.792H40.5173C40.5173 5.56599 42.1074 4.02 44.3532 4.02V3.02ZM39.5173 7.792C39.5173 10.5875 41.5725 12.58 44.3532 12.58V11.58C42.11 11.58 40.5173 10.0205 40.5173 7.792H39.5173ZM50.9689 5.232H50.4689L51.4211 5.44521L50.9689 5.232ZM50.9689 3.584H51.4689V3.084H50.9689V3.584ZM49.8809 3.584V3.084H49.3809V3.584H49.8809ZM49.8809 12H49.3809V12.5H49.8809V12ZM51.0169 12V12.5H51.5169V12H51.0169ZM54.1209 4.624V5.124H54.6209V4.624H54.1209ZM54.1209 3.52H54.6209V3.02H54.1209V3.52ZM51.4689 5.232V3.584H50.4689V5.232H51.4689ZM50.9689 3.084H49.8809V4.084H50.9689V3.084ZM49.3809 3.584V12H50.3809V3.584H49.3809ZM49.8809 12.5H51.0169V11.5H49.8809V12.5ZM51.5169 12V7.712H50.5169V12H51.5169ZM51.5169 7.712C51.5169 6.80671 51.7607 6.1658 52.1401 5.75537C52.5147 5.35008 53.078 5.108 53.8489 5.108V4.108C52.8597 4.108 52.0071 4.42592 51.4057 5.07663C50.809 5.7222 50.5169 6.63329 50.5169 7.712H51.5169ZM53.8489 5.108C53.8624 5.108 53.882 5.10947 53.9356 5.11412C53.9799 5.11798 54.0483 5.124 54.1209 5.124V4.124C54.0975 4.124 54.0699 4.12202 54.0222 4.11788C53.9837 4.11453 53.9153 4.108 53.8489 4.108V5.108ZM54.6209 4.624V3.52H53.6209V4.624H54.6209ZM54.1209 3.02C52.4299 3.02 51.1481 3.67921 50.5166 5.01879L51.4211 5.44521C51.8456 4.54479 52.7078 4.02 54.1209 4.02V3.02ZM56.1777 12H55.6777V12.5H56.1777V12ZM57.3138 12V12.5H57.8138V12H57.3138ZM57.3138 3.584H57.8138V3.084H57.3138V3.584ZM56.1777 3.584V3.084H55.6777V3.584H56.1777ZM56.7537 2.244C57.5162 2.244 58.0858 1.64579 58.0858 0.912H57.0858C57.0858 1.10621 56.9513 1.244 56.7537 1.244V2.244ZM58.0858 0.912C58.0858 0.178391 57.4677 -0.372001 56.7537 -0.372001V0.627999C56.9678 0.627999 57.0858 0.781609 57.0858 0.912H58.0858ZM56.7537 -0.372001C56.0264 -0.372001 55.4217 0.207203 55.4217 0.927999H56.4217C56.4217 0.784795 56.5531 0.627999 56.7537 0.627999V-0.372001ZM55.4217 0.927999C55.4217 1.65845 56.02 2.244 56.7537 2.244V1.244C56.5595 1.244 56.4217 1.09355 56.4217 0.927999H55.4217ZM56.1777 12.5H57.3138V11.5H56.1777V12.5ZM57.8138 12V3.584H56.8138V12H57.8138ZM57.3138 3.084H56.1777V4.084H57.3138V3.084ZM55.6777 3.584V12H56.6777V3.584H55.6777ZM61.6106 5.184H61.1106V6.87711L62.0304 5.45563L61.6106 5.184ZM61.6106 0.127999H62.1106V-0.372001H61.6106V0.127999ZM60.4746 0.127999V-0.372001H59.9746V0.127999H60.4746ZM60.4746 12H59.9746V12.5H60.4746V12ZM61.5626 12V12.5H62.0626V12H61.5626ZM61.5626 10.336L61.9903 10.077L61.0626 8.54523V10.336H61.5626ZM64.8106 3.02C63.3148 3.02 61.9962 3.66769 61.1908 4.91237L62.0304 5.45563C62.633 4.52431 63.6185 4.02 64.8106 4.02V3.02ZM62.1106 5.184V0.127999H61.1106V5.184H62.1106ZM61.6106 -0.372001H60.4746V0.627999H61.6106V-0.372001ZM59.9746 0.127999V12H60.9746V0.127999H59.9746ZM60.4746 12.5H61.5626V11.5H60.4746V12.5ZM62.0626 12V10.336H61.0626V12H62.0626ZM61.1349 10.595C61.9228 11.8958 63.2623 12.58 64.8106 12.58V11.58C63.575 11.58 62.5785 11.0482 61.9903 10.077L61.1349 10.595ZM64.8106 12.58C67.4905 12.58 69.5026 10.6084 69.5026 7.792H68.5026C68.5026 10.0636 66.9307 11.58 64.8106 11.58V12.58ZM69.5026 7.792C69.5026 4.97312 67.488 3.02 64.8106 3.02V4.02C66.9332 4.02 68.5026 5.52288 68.5026 7.792H69.5026ZM64.7306 10.572C63.9601 10.572 63.3082 10.292 62.8485 9.82084C62.3889 9.34969 62.0946 8.65938 62.0946 7.792H61.0946C61.0946 8.89262 61.4724 9.84231 62.1327 10.5192C62.7931 11.196 63.7091 11.572 64.7306 11.572V10.572ZM62.0946 7.792C62.0946 6.92462 62.3889 6.23431 62.8485 5.76316C63.3082 5.29202 63.9601 5.012 64.7306 5.012V4.012C63.7091 4.012 62.7931 4.38798 62.1327 5.06484C61.4724 5.74169 61.0946 6.69138 61.0946 7.792H62.0946ZM64.7306 5.012C66.2206 5.012 67.3666 6.09013 67.3666 7.792H68.3666C68.3666 5.55787 66.7927 4.012 64.7306 4.012V5.012ZM67.3666 7.792C67.3666 9.49387 66.2206 10.572 64.7306 10.572V11.572C66.7927 11.572 68.3666 10.0261 68.3666 7.792H67.3666ZM78.1344 10.704L78.5174 11.0254L78.792 10.6982L78.5117 10.3759L78.1344 10.704ZM77.4944 9.968L77.8717 9.63991L77.4944 9.20601L77.1171 9.63991L77.4944 9.968ZM71.6064 8.144V7.644H71.0687L71.1077 8.18027L71.6064 8.144ZM78.6464 8.144V8.644H79.1464V8.144H78.6464ZM77.5744 7.296V7.796H78.12L78.0725 7.25248L77.5744 7.296ZM71.6064 7.296L71.1083 7.25248L71.0608 7.796H71.6064V7.296ZM79.1624 7.792C79.1624 6.4131 78.6938 5.21628 77.8706 4.36122C77.0464 3.50518 75.8935 3.02 74.5824 3.02V4.02C75.6392 4.02 76.5263 4.40682 77.1502 5.05478C77.775 5.70372 78.1624 6.6429 78.1624 7.792H79.1624ZM74.5824 3.02C71.9231 3.02 69.9704 5.03518 69.9704 7.792H70.9704C70.9704 5.55681 72.5056 4.02 74.5824 4.02V3.02ZM69.9704 7.792C69.9704 9.16331 70.4648 10.3677 71.3445 11.2292C72.2238 12.0904 73.458 12.58 74.8864 12.58V11.58C73.6908 11.58 72.7169 11.1736 72.0442 10.5148C71.3719 9.85633 70.9704 8.91669 70.9704 7.792H69.9704ZM74.8864 12.58C76.3327 12.58 77.653 12.0554 78.5174 11.0254L77.7514 10.3826C77.1118 11.1446 76.096 11.58 74.8864 11.58V12.58ZM78.5117 10.3759L77.8717 9.63991L77.1171 10.2961L77.7571 11.0321L78.5117 10.3759ZM77.1171 9.63991C76.5852 10.2516 75.8189 10.572 74.9184 10.572V11.572C76.0658 11.572 77.1236 11.1564 77.8717 10.2961L77.1171 9.63991ZM74.9184 10.572C73.3149 10.572 72.2122 9.58167 72.1051 8.10773L71.1077 8.18027C71.2565 10.2263 72.8418 11.572 74.9184 11.572V10.572ZM71.6064 8.644H78.6464V7.644H71.6064V8.644ZM79.1464 8.144C79.1464 8.09859 79.1492 8.04975 79.1533 7.98926C79.1568 7.9368 79.1624 7.86074 79.1624 7.792H78.1624C78.1624 7.81926 78.16 7.8552 78.1555 7.92274C78.1515 7.98225 78.1464 8.06141 78.1464 8.144H79.1464ZM74.5824 4.996C75.9584 4.996 76.9537 5.937 77.0763 7.33952L78.0725 7.25248C77.907 5.359 76.5023 3.996 74.5824 3.996V4.996ZM77.5744 6.796H71.6064V7.796H77.5744V6.796ZM72.1045 7.33952C72.2272 5.93525 73.224 4.996 74.5824 4.996V3.996C72.6767 3.996 71.2736 5.36075 71.1083 7.25248L72.1045 7.33952ZM89.1941 10.672L89.6431 10.4519L89.3517 9.8575L88.8596 10.3004L89.1941 10.672ZM86.4901 4.544V4.044H85.9901V4.544H86.4901ZM89.0501 4.544V5.044H89.5501V4.544H89.0501ZM89.0501 3.584H89.5501V3.084H89.0501V3.584ZM86.4901 3.584H85.9901V4.084H86.4901V3.584ZM86.4901 1.744H86.9901V1.244H86.4901V1.744ZM85.3541 1.744V1.244H84.8541V1.744H85.3541ZM85.3541 3.584V4.084H85.8541V3.584H85.3541ZM83.8501 3.584V3.084H83.3501V3.584H83.8501ZM83.8501 4.544H83.3501V5.044H83.8501V4.544ZM85.3541 4.544H85.8541V4.044H85.3541V4.544ZM89.5941 11.488L89.9271 11.861L90.21 11.6084L90.0431 11.2679L89.5941 11.488ZM88.8596 10.3004C88.6525 10.4868 88.3181 10.604 87.9461 10.604V11.604C88.5021 11.604 89.0958 11.4332 89.5286 11.0436L88.8596 10.3004ZM87.9461 10.604C87.5699 10.604 87.3537 10.4979 87.2273 10.3644C87.0968 10.2264 86.9901 9.983 86.9901 9.568H85.9901C85.9901 10.145 86.1395 10.6696 86.5009 11.0516C86.8666 11.4381 87.3783 11.604 87.9461 11.604V10.604ZM86.9901 9.568V4.544H85.9901V9.568H86.9901ZM86.4901 5.044H89.0501V4.044H86.4901V5.044ZM89.5501 4.544V3.584H88.5501V4.544H89.5501ZM89.0501 3.084H86.4901V4.084H89.0501V3.084ZM86.9901 3.584V1.744H85.9901V3.584H86.9901ZM86.4901 1.244H85.3541V2.244H86.4901V1.244ZM84.8541 1.744V3.584H85.8541V1.744H84.8541ZM85.3541 3.084H83.8501V4.084H85.3541V3.084ZM83.3501 3.584V4.544H84.3501V3.584H83.3501ZM83.8501 5.044H85.3541V4.044H83.8501V5.044ZM84.8541 4.544V9.632H85.8541V4.544H84.8541ZM84.8541 9.632C84.8541 10.501 85.1021 11.2551 85.6386 11.7916C86.1752 12.3281 86.9333 12.58 87.8181 12.58V11.58C87.1189 11.58 86.6451 11.3839 86.3457 11.0844C86.0462 10.7849 85.8541 10.315 85.8541 9.632H84.8541ZM87.8181 12.58C88.5553 12.58 89.3606 12.3668 89.9271 11.861L89.2611 11.115C88.9317 11.4092 88.3929 11.58 87.8181 11.58V12.58ZM90.0431 11.2679L89.6431 10.4519L88.7452 10.8921L89.1452 11.7081L90.0431 11.2679ZM94.8053 12.58C97.5454 12.58 99.5772 10.5641 99.5772 7.792H98.5772C98.5772 10.0119 96.9931 11.58 94.8053 11.58V12.58ZM99.5772 7.792C99.5772 5.01737 97.5429 3.02 94.8053 3.02V4.02C96.9956 4.02 98.5772 5.57463 98.5772 7.792H99.5772ZM94.8053 3.02C92.0701 3.02 90.0173 5.01491 90.0173 7.792H91.0173C91.0173 5.57709 92.6124 4.02 94.8053 4.02V3.02ZM90.0173 7.792C90.0173 10.5666 92.0676 12.58 94.8053 12.58V11.58C92.6149 11.58 91.0173 10.0094 91.0173 7.792H90.0173ZM94.8053 10.572C94.0348 10.572 93.3828 10.292 92.9231 9.82084C92.4635 9.34969 92.1693 8.65938 92.1693 7.792H91.1693C91.1693 8.89262 91.547 9.84231 92.2074 10.5192C92.8677 11.196 93.7837 11.572 94.8053 11.572V10.572ZM92.1693 7.792C92.1693 6.92462 92.4635 6.23431 92.9231 5.76316C93.3828 5.29202 94.0348 5.012 94.8053 5.012V4.012C93.7837 4.012 92.8677 4.38798 92.2074 5.06484C91.547 5.74169 91.1693 6.69138 91.1693 7.792H92.1693ZM94.8053 5.012C95.5754 5.012 96.2227 5.29175 96.6781 5.76188C97.1339 6.23239 97.4252 6.92289 97.4252 7.792H98.4252C98.4252 6.69311 98.0526 5.74361 97.3964 5.06612C96.7398 4.38825 95.8271 4.012 94.8053 4.012V5.012ZM97.4252 7.792C97.4252 8.66111 97.1339 9.35161 96.6781 9.82212C96.2227 10.2922 95.5754 10.572 94.8053 10.572V11.572C95.8271 11.572 96.7398 11.1958 97.3964 10.5179C98.0526 9.84039 98.4252 8.89089 98.4252 7.792H97.4252ZM109.024 12.58C111.764 12.58 113.796 10.5641 113.796 7.792H112.796C112.796 10.0119 111.212 11.58 109.024 11.58V12.58ZM113.796 7.792C113.796 5.01737 111.762 3.02 109.024 3.02V4.02C111.214 4.02 112.796 5.57463 112.796 7.792H113.796ZM109.024 3.02C106.289 3.02 104.236 5.01491 104.236 7.792H105.236C105.236 5.57709 106.831 4.02 109.024 4.02V3.02ZM104.236 7.792C104.236 10.5666 106.286 12.58 109.024 12.58V11.58C106.834 11.58 105.236 10.0094 105.236 7.792H104.236ZM109.024 10.572C108.254 10.572 107.602 10.292 107.142 9.82084C106.682 9.34969 106.388 8.65938 106.388 7.792H105.388C105.388 8.89262 105.766 9.84231 106.426 10.5192C107.086 11.196 108.002 11.572 109.024 11.572V10.572ZM106.388 7.792C106.388 6.92462 106.682 6.23431 107.142 5.76316C107.602 5.29202 108.254 5.012 109.024 5.012V4.012C108.002 4.012 107.086 4.38798 106.426 5.06484C105.766 5.74169 105.388 6.69138 105.388 7.792H106.388ZM109.024 5.012C109.794 5.012 110.441 5.29175 110.897 5.76188C111.353 6.23239 111.644 6.92289 111.644 7.792H112.644C112.644 6.69311 112.271 5.74361 111.615 5.06612C110.959 4.38825 110.046 4.012 109.024 4.012V5.012ZM111.644 7.792C111.644 8.66111 111.353 9.35161 110.897 9.82212C110.441 10.2922 109.794 10.572 109.024 10.572V11.572C110.046 11.572 110.959 11.1958 111.615 10.5179C112.271 9.84039 112.644 8.89089 112.644 7.792H111.644ZM122.063 3.584V3.084H121.563V3.584H122.063ZM116.671 3.584H117.171V3.084H116.671V3.584ZM115.535 3.584V3.084H115.035V3.584H115.535ZM122.111 10.464H122.611V8.60014L121.678 10.2137L122.111 10.464ZM122.111 12H121.611V12.5H122.111V12ZM123.199 12V12.5H123.699V12H123.199ZM123.199 3.584H123.699V3.084H123.199V3.584ZM121.563 3.584V8H122.563V3.584H121.563ZM121.563 8C121.563 8.86556 121.316 9.49486 120.928 9.90428C120.544 10.3106 119.969 10.556 119.199 10.556V11.556C120.19 11.556 121.047 11.2334 121.654 10.5917C122.259 9.95314 122.563 9.05444 122.563 8H121.563ZM119.199 10.556C118.493 10.556 118.009 10.3568 117.697 10.0305C117.382 9.7008 117.171 9.1664 117.171 8.352H116.171C116.171 9.3296 116.425 10.1472 116.974 10.7215C117.526 11.2992 118.305 11.556 119.199 11.556V10.556ZM117.171 8.352V3.584H116.171V8.352H117.171ZM116.671 3.084H115.535V4.084H116.671V3.084ZM115.035 3.584V8.464H116.035V3.584H115.035ZM115.035 8.464C115.035 9.76945 115.418 10.8172 116.159 11.5367C116.897 12.2536 117.925 12.58 119.087 12.58V11.58C118.106 11.58 117.357 11.3064 116.856 10.8193C116.357 10.3348 116.035 9.57455 116.035 8.464H115.035ZM119.087 12.58C120.586 12.58 121.851 11.9126 122.544 10.7143L121.678 10.2137C121.187 11.0634 120.277 11.58 119.087 11.58V12.58ZM121.611 10.464V12H122.611V10.464H121.611ZM122.111 12.5H123.199V11.5H122.111V12.5ZM123.699 12V3.584H122.699V12H123.699ZM123.199 3.084H122.063V4.084H123.199V3.084ZM127.469 5.232H126.969L127.921 5.44521L127.469 5.232ZM127.469 3.584H127.969V3.084H127.469V3.584ZM126.381 3.584V3.084H125.881V3.584H126.381ZM126.381 12H125.881V12.5H126.381V12ZM127.517 12V12.5H128.017V12H127.517ZM130.621 4.624V5.124H131.121V4.624H130.621ZM130.621 3.52H131.121V3.02H130.621V3.52ZM127.969 5.232V3.584H126.969V5.232H127.969ZM127.469 3.084H126.381V4.084H127.469V3.084ZM125.881 3.584V12H126.881V3.584H125.881ZM126.381 12.5H127.517V11.5H126.381V12.5ZM128.017 12V7.712H127.017V12H128.017ZM128.017 7.712C128.017 6.80671 128.261 6.1658 128.64 5.75537C129.015 5.35008 129.578 5.108 130.349 5.108V4.108C129.36 4.108 128.507 4.42592 127.906 5.07663C127.309 5.7222 127.017 6.63329 127.017 7.712H128.017ZM130.349 5.108C130.362 5.108 130.382 5.10947 130.436 5.11412C130.48 5.11798 130.548 5.124 130.621 5.124V4.124C130.598 4.124 130.57 4.12202 130.522 4.11788C130.484 4.11453 130.415 4.108 130.349 4.108V5.108ZM131.121 4.624V3.52H130.121V4.624H131.121ZM130.621 3.02C128.93 3.02 127.648 3.67921 127.017 5.01879L127.921 5.44521C128.346 4.54479 129.208 4.02 130.621 4.02V3.02ZM138.078 5.136H137.578V6.95746L138.508 5.39127L138.078 5.136ZM138.078 3.584H138.578V3.084H138.078V3.584ZM136.99 3.584V3.084H136.49V3.584H136.99ZM136.99 12H136.49V12.5H136.99V12ZM138.126 12V12.5H138.626V12H138.126ZM143.598 12H143.098V12.5H143.598V12ZM144.734 12V12.5H145.234V12H144.734ZM141.278 3.02C139.683 3.02 138.364 3.6756 137.648 4.88073L138.508 5.39127C139.009 4.5484 139.962 4.02 141.278 4.02V3.02ZM138.578 5.136V3.584H137.578V5.136H138.578ZM138.078 3.084H136.99V4.084H138.078V3.084ZM136.49 3.584V12H137.49V3.584H136.49ZM136.99 12.5H138.126V11.5H136.99V12.5ZM138.626 12V7.584H137.626V12H138.626ZM138.626 7.584C138.626 6.72244 138.879 6.09975 139.277 5.6941C139.674 5.28939 140.271 5.044 141.07 5.044V4.044C140.062 4.044 139.186 4.35861 138.563 4.9939C137.941 5.62825 137.626 6.52556 137.626 7.584H138.626ZM141.07 5.044C141.776 5.044 142.262 5.24323 142.574 5.56827C142.889 5.89635 143.098 6.42671 143.098 7.232H144.098C144.098 6.26129 143.844 5.44765 143.295 4.87573C142.743 4.30077 141.964 4.044 141.07 4.044V5.044ZM143.098 7.232V12H144.098V7.232H143.098ZM143.598 12.5H144.734V11.5H143.598V12.5ZM145.234 12V7.12H144.234V12H145.234ZM145.234 7.12C145.234 5.81454 144.852 4.7724 144.125 4.05753C143.4 3.34465 142.397 3.02 141.278 3.02V4.02C142.208 4.02 142.932 4.28734 143.424 4.77047C143.913 5.2516 144.234 6.00946 144.234 7.12H145.234ZM154.666 10.704L155.049 11.0254L155.323 10.6982L155.043 10.3759L154.666 10.704ZM154.026 9.968L154.403 9.63991L154.026 9.20601L153.648 9.63991L154.026 9.968ZM148.138 8.144V7.644H147.6L147.639 8.18027L148.138 8.144ZM155.178 8.144V8.644H155.678V8.144H155.178ZM154.106 7.296V7.796H154.651L154.604 7.25248L154.106 7.296ZM148.138 7.296L147.64 7.25248L147.592 7.796H148.138V7.296ZM155.694 7.792C155.694 6.4131 155.225 5.21628 154.402 4.36122C153.578 3.50518 152.425 3.02 151.114 3.02V4.02C152.17 4.02 153.058 4.40682 153.681 5.05478C154.306 5.70372 154.694 6.6429 154.694 7.792H155.694ZM151.114 3.02C148.454 3.02 146.502 5.03518 146.502 7.792H147.502C147.502 5.55681 149.037 4.02 151.114 4.02V3.02ZM146.502 7.792C146.502 9.16331 146.996 10.3677 147.876 11.2292C148.755 12.0904 149.989 12.58 151.418 12.58V11.58C150.222 11.58 149.248 11.1736 148.575 10.5148C147.903 9.85633 147.502 8.91669 147.502 7.792H146.502ZM151.418 12.58C152.864 12.58 154.184 12.0554 155.049 11.0254L154.283 10.3826C153.643 11.1446 152.627 11.58 151.418 11.58V12.58ZM155.043 10.3759L154.403 9.63991L153.648 10.2961L154.288 11.0321L155.043 10.3759ZM153.648 9.63991C153.116 10.2516 152.35 10.572 151.45 10.572V11.572C152.597 11.572 153.655 11.1564 154.403 10.2961L153.648 9.63991ZM151.45 10.572C149.846 10.572 148.743 9.58167 148.636 8.10773L147.639 8.18027C147.788 10.2263 149.373 11.572 151.45 11.572V10.572ZM148.138 8.644H155.178V7.644H148.138V8.644ZM155.678 8.144C155.678 8.09859 155.68 8.04975 155.685 7.98926C155.688 7.9368 155.694 7.86074 155.694 7.792H154.694C154.694 7.81926 154.691 7.8552 154.687 7.92274C154.683 7.98225 154.678 8.06141 154.678 8.144H155.678ZM151.114 4.996C152.49 4.996 153.485 5.937 153.608 7.33952L154.604 7.25248C154.438 5.359 153.034 3.996 151.114 3.996V4.996ZM154.106 6.796H148.138V7.796H154.106V6.796ZM148.636 7.33952C148.758 5.93525 149.755 4.996 151.114 4.996V3.996C149.208 3.996 147.805 5.36075 147.64 7.25248L148.636 7.33952ZM168.662 3.584V3.084H168.315L168.193 3.40901L168.662 3.584ZM165.99 10.736L165.522 10.9119L165.991 12.1609L166.458 10.911L165.99 10.736ZM163.302 3.584L163.77 3.40809L163.648 3.084H163.302V3.584ZM162.326 3.584V3.084H161.98L161.858 3.40718L162.326 3.584ZM159.622 10.736L159.153 10.9091L159.616 12.1647L160.089 10.9128L159.622 10.736ZM156.982 3.584L157.451 3.41086L157.33 3.084H156.982V3.584ZM155.894 3.584V3.084H155.171L155.426 3.76015L155.894 3.584ZM159.062 12L158.594 12.1761L158.716 12.5H159.062V12ZM160.134 12V12.5H160.477L160.6 12.1797L160.134 12ZM162.79 5.104L163.256 4.92429L162.79 3.71285L162.323 4.92429L162.79 5.104ZM165.446 12L164.979 12.1797L165.102 12.5H165.446V12ZM166.518 12V12.5H166.863L166.985 12.1769L166.518 12ZM169.702 3.584L170.169 3.76092L170.425 3.084H169.702V3.584ZM168.193 3.40901L165.521 10.561L166.458 10.911L169.13 3.75899L168.193 3.40901ZM166.458 10.5601L163.77 3.40809L162.834 3.75991L165.522 10.9119L166.458 10.5601ZM163.302 3.084H162.326V4.084H163.302V3.084ZM161.858 3.40718L159.154 10.5592L160.089 10.9128L162.793 3.76082L161.858 3.40718ZM160.091 10.5629L157.451 3.41086L156.513 3.75714L159.153 10.9091L160.091 10.5629ZM156.982 3.084H155.894V4.084H156.982V3.084ZM155.426 3.76015L158.594 12.1761L159.53 11.8239L156.362 3.40785L155.426 3.76015ZM159.062 12.5H160.134V11.5H159.062V12.5ZM160.6 12.1797L163.256 5.28371L162.323 4.92429L159.667 11.8203L160.6 12.1797ZM162.323 5.28371L164.979 12.1797L165.912 11.8203L163.256 4.92429L162.323 5.28371ZM165.446 12.5H166.518V11.5H165.446V12.5ZM166.985 12.1769L170.169 3.76092L169.234 3.40707L166.05 11.8231L166.985 12.1769ZM169.702 3.084H168.662V4.084H169.702V3.084ZM176.262 5.216L175.977 5.62645L176.435 5.94516L176.702 5.45489L176.262 5.216ZM176.758 4.304L177.198 4.54288L177.414 4.14563L177.04 3.89089L176.758 4.304ZM170.662 10.144L170.971 9.75084L170.516 9.39289L170.228 9.89593L170.662 10.144ZM170.15 11.04L169.716 10.7919L169.512 11.15L169.824 11.419L170.15 11.04ZM173.574 12.58C174.734 12.58 175.714 12.3315 176.42 11.8349C177.144 11.3256 177.546 10.5748 177.546 9.68H176.546C176.546 10.2412 176.309 10.6904 175.845 11.0171C175.362 11.3565 174.607 11.58 173.574 11.58V12.58ZM177.546 9.68C177.546 8.69423 177.112 8.0404 176.465 7.62316C175.861 7.23462 175.089 7.0618 174.412 6.93284C173.689 6.79494 173.083 6.70639 172.632 6.52181C172.418 6.43381 172.285 6.34079 172.207 6.24838C172.139 6.16724 172.09 6.0616 172.09 5.888H171.09C171.09 6.2824 171.213 6.62026 171.443 6.89299C171.663 7.15446 171.957 7.32569 172.253 7.44719C172.826 7.68161 173.584 7.79306 174.225 7.91516C174.912 8.0462 175.503 8.19338 175.923 8.46384C176.298 8.7056 176.546 9.04977 176.546 9.68H177.546ZM172.09 5.888C172.09 5.64761 172.182 5.45513 172.401 5.30301C172.643 5.13515 173.077 4.996 173.782 4.996V3.996C172.968 3.996 172.305 4.15285 171.832 4.48099C171.335 4.82487 171.09 5.32839 171.09 5.888H172.09ZM173.782 4.996C174.57 4.996 175.343 5.18573 175.977 5.62645L176.548 4.80555C175.709 4.22227 174.723 3.996 173.782 3.996V4.996ZM176.702 5.45489L177.198 4.54288L176.319 4.06511L175.823 4.97711L176.702 5.45489ZM177.04 3.89089C176.23 3.33843 174.938 3.02 173.782 3.02V4.02C174.802 4.02 175.879 4.30957 176.477 4.71711L177.04 3.89089ZM173.782 3.02C172.637 3.02 171.688 3.29311 171.012 3.8057C170.325 4.32728 169.954 5.07403 169.954 5.92H170.954C170.954 5.38997 171.176 4.93672 171.617 4.6023C172.069 4.25889 172.784 4.02 173.782 4.02V3.02ZM169.954 5.92C169.954 6.92264 170.382 7.59345 171.03 8.02456C171.635 8.42701 172.41 8.60474 173.089 8.73329C173.817 8.87089 174.422 8.95262 174.877 9.12896C175.094 9.21304 175.225 9.30143 175.301 9.38708C175.365 9.46007 175.41 9.55345 175.41 9.712H176.41C176.41 9.32255 176.285 8.99043 176.051 8.72536C175.828 8.47295 175.533 8.31071 175.239 8.19654C174.671 7.97638 173.912 7.87111 173.275 7.75071C172.591 7.62126 172.002 7.46999 171.584 7.19194C171.209 6.94255 170.954 6.58136 170.954 5.92H169.954ZM175.41 9.712C175.41 9.97414 175.319 10.1547 175.107 10.2946C174.861 10.4565 174.412 10.588 173.654 10.588V11.588C174.496 11.588 175.175 11.4475 175.658 11.1294C176.173 10.7893 176.41 10.2819 176.41 9.712H175.41ZM173.654 10.588C172.572 10.588 171.547 10.2033 170.971 9.75084L170.353 10.5372C171.122 11.1407 172.369 11.588 173.654 11.588V10.588ZM170.228 9.89593L169.716 10.7919L170.585 11.2881L171.096 10.3921L170.228 9.89593ZM169.824 11.419C170.629 12.1118 172.103 12.58 173.574 12.58V11.58C172.262 11.58 171.047 11.1522 170.477 10.661L169.824 11.419ZM179.146 12H178.646V12.5H179.146V12ZM180.283 12V12.5H180.783V12H180.283ZM180.283 0.127999H180.783V-0.372001H180.283V0.127999ZM179.146 0.127999V-0.372001H178.646V0.127999H179.146ZM179.146 12.5H180.283V11.5H179.146V12.5ZM180.783 12V0.127999H179.783V12H180.783ZM180.283 -0.372001H179.146V0.627999H180.283V-0.372001ZM178.646 0.127999V12H179.646V0.127999H178.646ZM190.259 10.704L190.642 11.0254L190.917 10.6982L190.637 10.3759L190.259 10.704ZM189.619 9.968L189.997 9.63991L189.619 9.20601L189.242 9.63991L189.619 9.968ZM183.731 8.144V7.644H183.194L183.233 8.18027L183.731 8.144ZM190.771 8.144V8.644H191.271V8.144H190.771ZM189.699 7.296V7.796H190.245L190.197 7.25248L189.699 7.296ZM183.731 7.296L183.233 7.25248L183.186 7.796H183.731V7.296ZM191.287 7.792C191.287 6.4131 190.819 5.21628 189.996 4.36122C189.171 3.50518 188.019 3.02 186.707 3.02V4.02C187.764 4.02 188.651 4.40682 189.275 5.05478C189.9 5.70372 190.287 6.6429 190.287 7.792H191.287ZM186.707 3.02C184.048 3.02 182.095 5.03518 182.095 7.792H183.095C183.095 5.55681 184.631 4.02 186.707 4.02V3.02ZM182.095 7.792C182.095 9.16331 182.59 10.3677 183.47 11.2292C184.349 12.0904 185.583 12.58 187.011 12.58V11.58C185.816 11.58 184.842 11.1736 184.169 10.5148C183.497 9.85633 183.095 8.91669 183.095 7.792H182.095ZM187.011 12.58C188.458 12.58 189.778 12.0554 190.642 11.0254L189.876 10.3826C189.237 11.1446 188.221 11.58 187.011 11.58V12.58ZM190.637 10.3759L189.997 9.63991L189.242 10.2961L189.882 11.0321L190.637 10.3759ZM189.242 9.63991C188.71 10.2516 187.944 10.572 187.043 10.572V11.572C188.191 11.572 189.249 11.1564 189.997 10.2961L189.242 9.63991ZM187.043 10.572C185.44 10.572 184.337 9.58167 184.23 8.10773L183.233 8.18027C183.382 10.2263 184.967 11.572 187.043 11.572V10.572ZM183.731 8.644H190.771V7.644H183.731V8.644ZM191.271 8.144C191.271 8.09859 191.274 8.04975 191.278 7.98926C191.282 7.9368 191.287 7.86074 191.287 7.792H190.287C190.287 7.81926 190.285 7.8552 190.28 7.92274C190.277 7.98225 190.271 8.06141 190.271 8.144H191.271ZM186.707 4.996C188.083 4.996 189.079 5.937 189.201 7.33952L190.197 7.25248C190.032 5.359 188.627 3.996 186.707 3.996V4.996ZM189.699 6.796H183.731V7.796H189.699V6.796ZM184.229 7.33952C184.352 5.93525 185.349 4.996 186.707 4.996V3.996C184.802 3.996 183.399 5.36075 183.233 7.25248L184.229 7.33952ZM197.132 10.672L197.581 10.4519L197.289 9.8575L196.797 10.3004L197.132 10.672ZM194.428 4.544V4.044H193.928V4.544H194.428ZM196.988 4.544V5.044H197.488V4.544H196.988ZM196.988 3.584H197.488V3.084H196.988V3.584ZM194.428 3.584H193.928V4.084H194.428V3.584ZM194.428 1.744H194.928V1.244H194.428V1.744ZM193.292 1.744V1.244H192.792V1.744H193.292ZM193.292 3.584V4.084H193.792V3.584H193.292ZM191.788 3.584V3.084H191.288V3.584H191.788ZM191.788 4.544H191.288V5.044H191.788V4.544ZM193.292 4.544H193.792V4.044H193.292V4.544ZM197.532 11.488L197.865 11.861L198.147 11.6084L197.981 11.2679L197.532 11.488ZM196.797 10.3004C196.59 10.4868 196.256 10.604 195.884 10.604V11.604C196.44 11.604 197.033 11.4332 197.466 11.0436L196.797 10.3004ZM195.884 10.604C195.507 10.604 195.291 10.4979 195.165 10.3644C195.034 10.2264 194.928 9.983 194.928 9.568H193.928C193.928 10.145 194.077 10.6696 194.438 11.0516C194.804 11.4381 195.316 11.604 195.884 11.604V10.604ZM194.928 9.568V4.544H193.928V9.568H194.928ZM194.428 5.044H196.988V4.044H194.428V5.044ZM197.488 4.544V3.584H196.488V4.544H197.488ZM196.988 3.084H194.428V4.084H196.988V3.084ZM194.928 3.584V1.744H193.928V3.584H194.928ZM194.428 1.244H193.292V2.244H194.428V1.244ZM192.792 1.744V3.584H193.792V1.744H192.792ZM193.292 3.084H191.788V4.084H193.292V3.084ZM191.288 3.584V4.544H192.288V3.584H191.288ZM191.788 5.044H193.292V4.044H191.788V5.044ZM192.792 4.544V9.632H193.792V4.544H192.792ZM192.792 9.632C192.792 10.501 193.04 11.2551 193.576 11.7916C194.113 12.3281 194.871 12.58 195.756 12.58V11.58C195.056 11.58 194.583 11.3839 194.283 11.0844C193.984 10.7849 193.792 10.315 193.792 9.632H192.792ZM195.756 12.58C196.493 12.58 197.298 12.3668 197.865 11.861L197.199 11.115C196.869 11.4092 196.33 11.58 195.756 11.58V12.58ZM197.981 11.2679L197.581 10.4519L196.683 10.8921L197.083 11.7081L197.981 11.2679ZM203.413 10.672L203.862 10.4519L203.57 9.8575L203.078 10.3004L203.413 10.672ZM200.709 4.544V4.044H200.209V4.544H200.709ZM203.269 4.544V5.044H203.769V4.544H203.269ZM203.269 3.584H203.769V3.084H203.269V3.584ZM200.709 3.584H200.209V4.084H200.709V3.584ZM200.709 1.744H201.209V1.244H200.709V1.744ZM199.573 1.744V1.244H199.073V1.744H199.573ZM199.573 3.584V4.084H200.073V3.584H199.573ZM198.069 3.584V3.084H197.569V3.584H198.069ZM198.069 4.544H197.569V5.044H198.069V4.544ZM199.573 4.544H200.073V4.044H199.573V4.544ZM203.813 11.488L204.146 11.861L204.429 11.6084L204.262 11.2679L203.813 11.488ZM203.078 10.3004C202.871 10.4868 202.537 10.604 202.165 10.604V11.604C202.721 11.604 203.315 11.4332 203.747 11.0436L203.078 10.3004ZM202.165 10.604C201.789 10.604 201.572 10.4979 201.446 10.3644C201.316 10.2264 201.209 9.983 201.209 9.568H200.209C200.209 10.145 200.358 10.6696 200.72 11.0516C201.085 11.4381 201.597 11.604 202.165 11.604V10.604ZM201.209 9.568V4.544H200.209V9.568H201.209ZM200.709 5.044H203.269V4.044H200.709V5.044ZM203.769 4.544V3.584H202.769V4.544H203.769ZM203.269 3.084H200.709V4.084H203.269V3.084ZM201.209 3.584V1.744H200.209V3.584H201.209ZM200.709 1.244H199.573V2.244H200.709V1.244ZM199.073 1.744V3.584H200.073V1.744H199.073ZM199.573 3.084H198.069V4.084H199.573V3.084ZM197.569 3.584V4.544H198.569V3.584H197.569ZM198.069 5.044H199.573V4.044H198.069V5.044ZM199.073 4.544V9.632H200.073V4.544H199.073ZM199.073 9.632C199.073 10.501 199.321 11.2551 199.857 11.7916C200.394 12.3281 201.152 12.58 202.037 12.58V11.58C201.338 11.58 200.864 11.3839 200.564 11.0844C200.265 10.7849 200.073 10.315 200.073 9.632H199.073ZM202.037 12.58C202.774 12.58 203.579 12.3668 204.146 11.861L203.48 11.115C203.15 11.4092 202.612 11.58 202.037 11.58V12.58ZM204.262 11.2679L203.862 10.4519L202.964 10.8921L203.364 11.7081L204.262 11.2679ZM212.4 10.704L212.783 11.0254L213.058 10.6982L212.777 10.3759L212.4 10.704ZM211.76 9.968L212.137 9.63991L211.76 9.20601L211.383 9.63991L211.76 9.968ZM205.872 8.144V7.644H205.334L205.373 8.18027L205.872 8.144ZM212.912 8.144V8.644H213.412V8.144H212.912ZM211.84 7.296V7.796H212.386L212.338 7.25248L211.84 7.296ZM205.872 7.296L205.374 7.25248L205.326 7.796H205.872V7.296ZM213.428 7.792C213.428 6.4131 212.959 5.21628 212.136 4.36122C211.312 3.50518 210.159 3.02 208.848 3.02V4.02C209.905 4.02 210.792 4.40682 211.416 5.05478C212.041 5.70372 212.428 6.6429 212.428 7.792H213.428ZM208.848 3.02C206.189 3.02 204.236 5.03518 204.236 7.792H205.236C205.236 5.55681 206.771 4.02 208.848 4.02V3.02ZM204.236 7.792C204.236 9.16331 204.73 10.3677 205.61 11.2292C206.489 12.0904 207.724 12.58 209.152 12.58V11.58C207.956 11.58 206.983 11.1736 206.31 10.5148C205.638 9.85633 205.236 8.91669 205.236 7.792H204.236ZM209.152 12.58C210.598 12.58 211.919 12.0554 212.783 11.0254L212.017 10.3826C211.377 11.1446 210.362 11.58 209.152 11.58V12.58ZM212.777 10.3759L212.137 9.63991L211.383 10.2961L212.023 11.0321L212.777 10.3759ZM211.383 9.63991C210.851 10.2516 210.085 10.572 209.184 10.572V11.572C210.331 11.572 211.389 11.1564 212.137 10.2961L211.383 9.63991ZM209.184 10.572C207.581 10.572 206.478 9.58167 206.371 8.10773L205.373 8.18027C205.522 10.2263 207.107 11.572 209.184 11.572V10.572ZM205.872 8.644H212.912V7.644H205.872V8.644ZM213.412 8.144C213.412 8.09859 213.415 8.04975 213.419 7.98926C213.422 7.9368 213.428 7.86074 213.428 7.792H212.428C212.428 7.81926 212.426 7.8552 212.421 7.92274C212.417 7.98225 212.412 8.06141 212.412 8.144H213.412ZM208.848 4.996C210.224 4.996 211.219 5.937 211.342 7.33952L212.338 7.25248C212.173 5.359 210.768 3.996 208.848 3.996V4.996ZM211.84 6.796H205.872V7.796H211.84V6.796ZM206.37 7.33952C206.493 5.93525 207.49 4.996 208.848 4.996V3.996C206.942 3.996 205.539 5.36075 205.374 7.25248L206.37 7.33952ZM216.328 5.232H215.828L216.781 5.44521L216.328 5.232ZM216.328 3.584H216.828V3.084H216.328V3.584ZM215.24 3.584V3.084H214.74V3.584H215.24ZM215.24 12H214.74V12.5H215.24V12ZM216.376 12V12.5H216.876V12H216.376ZM219.48 4.624V5.124H219.98V4.624H219.48ZM219.48 3.52H219.98V3.02H219.48V3.52ZM216.828 5.232V3.584H215.828V5.232H216.828ZM216.328 3.084H215.24V4.084H216.328V3.084ZM214.74 3.584V12H215.74V3.584H214.74ZM215.24 12.5H216.376V11.5H215.24V12.5ZM216.876 12V7.712H215.876V12H216.876ZM216.876 7.712C216.876 6.80671 217.12 6.1658 217.499 5.75537C217.874 5.35008 218.437 5.108 219.208 5.108V4.108C218.219 4.108 217.366 4.42592 216.765 5.07663C216.168 5.7222 215.876 6.63329 215.876 7.712H216.876ZM219.208 5.108C219.222 5.108 219.241 5.10947 219.295 5.11412C219.339 5.11798 219.408 5.124 219.48 5.124V4.124C219.457 4.124 219.429 4.12202 219.382 4.11788C219.343 4.11453 219.275 4.108 219.208 4.108V5.108ZM219.98 4.624V3.52H218.98V4.624H219.98ZM219.48 3.02C217.789 3.02 216.508 3.67921 215.876 5.01879L216.781 5.44521C217.205 4.54479 218.067 4.02 219.48 4.02V3.02Z" fill="white"/>
</svg>
